<svg id="圖層_2" data-name="圖層 2" xmlns="http://www.w3.org/2000/svg" viewBox="0 0 436.2 78.1"><defs><style>.cls-1{fill:#e95a4b;}.cls-2{fill:#5d99aa;}.cls-3{fill:#485176;}.cls-4{fill:#dccbc4;}.cls-5{fill:#e75b4b;}.cls-6{fill:#f7f3f2;}.cls-7{fill:#e65a4b;}.cls-8{fill:#da5d51;}.cls-9{fill:#639cad;}.cls-10{fill:#73788f;}.cls-11{fill:#555a7b;}.cls-12{fill:#575b7c;}.cls-13{fill:#858a9f;}.cls-14{fill:#565475;}.cls-15{fill:#60516e;}.cls-16{fill:#cd5f57;}.cls-17{fill:#6c526b;}.cls-18{fill:#efcbc1;}.cls-19{fill:#fefefe;}.cls-20{fill:#6d526b;}.cls-21{fill:#69526d;}.cls-22{fill:#61526e;}.cls-23{fill:#6e536b;}.cls-24{fill:#63526e;}.cls-25{fill:#7e5467;}.cls-26{fill:#62526e;}.cls-27{fill:#e55a4c;}.cls-28{fill:#455076;}.cls-29{fill:#d4594f;}.cls-30{fill:#d5594f;}.cls-31{fill:#e85a4b;}</style></defs><path class="cls-1" d="M772.9,270.6c-27.2,6.5-55.9,4.9-81.6-5.8-36.9-20.7-86.7,3.4-117.4-4-.7-14.6-7.7-43,4.8-52,64.4-24.6,126.6,18.4,189,9.1,41.1-13.6,7.1,8.2,14,27.8C806.7,264.1,800.7,266.9,772.9,270.6Z" transform="translate(-361.2 -196.3)"/><path class="cls-2" d="M521,255.4c-40.8-3.7-85.7,3.1-127.1-.9-27-7.9-34.2-42,2.8-40.3,18.6-4.1,49.6,9.1,60.3-6.7,9.6,16.3,39.8,13.5,57,24.1,12.2,8.6,21.2-2.8,34.6,3.1C545.2,254.8,535.9,250.2,521,255.4Z" transform="translate(-361.2 -196.3)"/><path class="cls-3" d="M371,223.6c1.1,4.7,3.7,18.5-3.2,14.4,6.2,9.6.7,35.9-6.2,14.7,5.4-14.7-7.4-41.8,5.9-50C378,204.3,362.3,228,371,223.6Z" transform="translate(-361.2 -196.3)"/><path class="cls-4" d="M414,214.7c-70.9,12.9,4.6-31.2-22.1-7-2.3,2.4.9,5.6,3,2.7,1.3-5.6,19.8-5.5,12.4-9.4C391.3,197.6,432.1,187.7,414,214.7Z" transform="translate(-361.2 -196.3)"/><path class="cls-5" d="M428.7,215.6c-14.7,3.5-13.3-9.3-7.6-19C434.7,194.4,433.1,206.5,428.7,215.6Z" transform="translate(-361.2 -196.3)"/><path class="cls-6" d="M402.1,197.7c.6,3.3,3.2,1.6,4.9,1.9,5.8-1.2,6.3,6.5.4,6.1-8-2.3-10.6,9.9-17,6.9C385.5,207.2,401.3,197.9,402.1,197.7Z" transform="translate(-361.2 -196.3)"/><path class="cls-7" d="M441.8,215.6c-12.6,3.2-13.3-7.8-7.8-16.6C444.2,198.3,446,207.9,441.8,215.6Z" transform="translate(-361.2 -196.3)"/><path class="cls-8" d="M457,207.5c-.1,8.4-3.8,10.3-12.2,8.3C439.5,203.7,447.6,199.3,457,207.5Z" transform="translate(-361.2 -196.3)"/><path class="cls-9" d="M534.1,229.3c1.2-8.3,13.6-12.1,15.7-4.5C549.8,234.2,540.5,232.6,534.1,229.3Z" transform="translate(-361.2 -196.3)"/><path class="cls-10" d="M548.7,235.7c-19.7-1.8-21-5.6-.7-4.3C579.1,208.5,578.2,216.8,548.7,235.7Z" transform="translate(-361.2 -196.3)"/><path class="cls-11" d="M393.9,254.5c6.1-4.5,2,2.9,2.3,6.3C392.4,277.4,374.9,254.9,393.9,254.5Z" transform="translate(-361.2 -196.3)"/><path class="cls-12" d="M521,255.4c1.5-4.4,5.2-.1,7.6.6C539.9,267.8,515,271.4,521,255.4Z" transform="translate(-361.2 -196.3)"/><path class="cls-13" d="M545.9,242.8c4.4-7,19.6,11.1,26.9,13.8C575.8,266.4,552,245.5,545.9,242.8Z" transform="translate(-361.2 -196.3)"/><path class="cls-14" d="M421.1,196.6c-2.5,4.7-.3,22.2-7.1,18.1C415.9,210.1,414.6,193.9,421.1,196.6Z" transform="translate(-361.2 -196.3)"/><path class="cls-15" d="M434,199c-2.6,4.8,1.2,17.5-5.3,16.6C430.2,211.1,428.2,198.1,434,199Z" transform="translate(-361.2 -196.3)"/><path class="cls-16" d="M547.9,231.7c-6,2.5-12,.5-17.9-.3C533.5,226.9,542.9,230.2,547.9,231.7Z" transform="translate(-361.2 -196.3)"/><path class="cls-8" d="M467.2,216c-7.1,1-11.8,2.2-9.2-6.9A41.8,41.8,0,0,1,467.2,216Z" transform="translate(-361.2 -196.3)"/><path class="cls-17" d="M445.2,202.2c-1.2,4,2.5,14.7-3.4,13.4C442.8,212,440.1,200.5,445.2,202.2Z" transform="translate(-361.2 -196.3)"/><path class="cls-18" d="M796.2,264.6c-7.9,2.4-15.4,7.8-23.3,6A165.9,165.9,0,0,1,796.2,264.6Z" transform="translate(-361.2 -196.3)"/><path class="cls-19" d="M574,258.2c-6-7-32.6-13.3-25.3-22.5C579.4,204.9,573.9,226.7,574,258.2Z" transform="translate(-361.2 -196.3)"/><path class="cls-20" d="M729.1,245.5c-1.2,4.2.7,11.1-2.5,13.9-3.4-4.1-.3-17.5,1.7-22.5,11.8,18.6,7.6,18.9,19.1,0,2.4,5.3,3.6,17.3,3,22.6-6.6-.6-2.3-11-4.8-15.6C737.8,262.6,737.4,259.1,729.1,245.5Z" transform="translate(-361.2 -196.3)"/><path class="cls-21" d="M599.5,230.5c-7.2,29.5-13.4,6.2-13-6.8,8.9,14.2,4.4,20.5,14.3-.4,7.4,21.6,5.2,14.7,13.2.6C611.2,238.9,608.4,259.4,599.5,230.5Z" transform="translate(-361.2 -196.3)"/><path class="cls-22" d="M706.2,229.6c16.5-.9,15.1,25.2-.6,24C689.9,254.2,689.9,228.2,706.2,229.6Z" transform="translate(-361.2 -196.3)"/><path class="cls-23" d="M684.5,244.1c-20,17.8-31.2-29.7,0-19.9C657.9,223.8,665,250.4,684.5,244.1Z" transform="translate(-361.2 -196.3)"/><path class="cls-24" d="M622,225.9c-2.1-8.2,2.4-16.4,10.3-10.6-3.2,2.2-8.5-1.3-7.3,5.7-.5,6.2,5.6.8,6.8,4.3-2.5,2.3-8-1.3-6.8,5.5-1.1,7.1,5.2,3.2,7.6,5.3C624.6,242.2,620.2,235,622,225.9Z" transform="translate(-361.2 -196.3)"/><path class="cls-25" d="M657.4,240.8c-19.3,15.2-12.7-33.7-8.4-18.9C650.2,229.8,644.3,243.9,657.4,240.8Z" transform="translate(-361.2 -196.3)"/><path class="cls-26" d="M768.9,238.9c-10.8-1.2-8.3,13.1.5,11-2.8.7-11.5,2.7-10.6-1.8s-3.2-18.1,2.2-20.5c2.8.3,5.8-.9,8.9,1.1-2.8,1.7-7.5-2.3-8.1,4S765.7,237.2,768.9,238.9Z" transform="translate(-361.2 -196.3)"/><path class="cls-27" d="M425.7,230.7c7.3-5.7,64.2,0,51.2,8.5C460.8,239.7,436.8,244.2,425.7,230.7Z" transform="translate(-361.2 -196.3)"/><path class="cls-28" d="M425.7,230.7c15.3,10.6,38,9,55.5,6C482.7,247.8,418.9,245.5,425.7,230.7Z" transform="translate(-361.2 -196.3)"/><path class="cls-29" d="M393.9,261.4c-.5,4.2-6.9,3.8-6.5-.5S394.1,257,393.9,261.4Z" transform="translate(-361.2 -196.3)"/><path class="cls-30" d="M526.4,264.5c-4.3-.1-4.4-6.7-.1-6.6S530.4,264.1,526.4,264.5Z" transform="translate(-361.2 -196.3)"/><path class="cls-31" d="M706.2,251.8c-11.5.5-12.4-21.3-.4-21S718.6,252.8,706.2,251.8Z" transform="translate(-361.2 -196.3)"/></svg>