<svg width="1091" height="320" viewBox="0 0 1091 320" fill="none" xmlns="http://www.w3.org/2000/svg">
<g clip-path="url(#clip0_2072_18921)">
<g filter="url(#filter0_d_2072_18921)">
<mask id="path-1-inside-1_2072_18921" fill="white">
<path fill-rule="evenodd" clip-rule="evenodd" d="M2 308.681H1078.55L1078.56 220.913C1042.06 220.913 1012.48 191.331 1012.48 154.84C1012.48 118.349 1042.06 88.7678 1078.56 88.7678L1078.55 0.999756H2V88.7678H2.00024C38.4911 88.7678 68.0727 118.35 68.0727 154.84C68.0727 191.331 38.4911 220.913 2.00024 220.913H2L2 308.681Z"/>
</mask>
<path fill-rule="evenodd" clip-rule="evenodd" d="M2 308.681H1078.55L1078.56 220.913C1042.06 220.913 1012.48 191.331 1012.48 154.84C1012.48 118.349 1042.06 88.7678 1078.56 88.7678L1078.55 0.999756H2V88.7678H2.00024C38.4911 88.7678 68.0727 118.35 68.0727 154.84C68.0727 191.331 38.4911 220.913 2.00024 220.913H2L2 308.681Z" fill="white"/>
<path d="M1078.55 308.681L1083.55 308.681L1083.55 313.681H1078.55V308.681ZM2 308.681V313.681H-3V308.681H2ZM1078.56 220.913V215.913H1083.56L1083.56 220.913L1078.56 220.913ZM1078.56 88.7678L1083.56 88.7677L1083.56 93.7678H1078.56V88.7678ZM1078.55 0.999756V-4.00024H1083.55L1083.55 0.999707L1078.55 0.999756ZM2 0.999756H-3V-4.00024H2V0.999756ZM2 88.7678V93.7678H-3V88.7678H2ZM2 220.913H-3V215.913H2V220.913ZM1078.55 313.681H2V303.681H1078.55V313.681ZM1083.56 220.913L1083.55 308.681L1073.55 308.681L1073.56 220.913L1083.56 220.913ZM1017.48 154.84C1017.48 188.57 1044.83 215.913 1078.56 215.913V225.913C1039.3 225.913 1007.48 194.093 1007.48 154.84H1017.48ZM1078.56 93.7678C1044.83 93.7678 1017.48 121.111 1017.48 154.84H1007.48C1007.48 115.588 1039.3 83.7678 1078.56 83.7678V93.7678ZM1083.55 0.999707L1083.56 88.7677L1073.56 88.7678L1073.55 0.999805L1083.55 0.999707ZM2 -4.00024H1078.55V5.99976H2V-4.00024ZM-3 88.7678L-3 0.999756H7L7 88.7678H-3ZM2.00024 93.7678H2V83.7678H2.00024V93.7678ZM63.0727 154.84C63.0727 121.111 35.7297 93.7678 2.00024 93.7678V83.7678C41.2525 83.7678 73.0727 115.588 73.0727 154.84H63.0727ZM2.00024 215.913C35.7296 215.913 63.0727 188.57 63.0727 154.84H73.0727C73.0727 194.093 41.2525 225.913 2.00024 225.913V215.913ZM2 215.913H2.00024V225.913H2V215.913ZM-3 308.681V220.913H7V308.681H-3Z" fill="#A7D4D3" mask="url(#path-1-inside-1_2072_18921)"/>
</g>
<mask id="path-3-inside-2_2072_18921" fill="white">
<path fill-rule="evenodd" clip-rule="evenodd" d="M257 1L4 1V89C4.025 89 4.04999 89 4.075 89C40.5672 89 70.15 118.583 70.15 155.075C70.15 191.567 40.5672 221.15 4.075 221.15C4.04999 221.15 4.025 221.15 4 221.15L4 309H257V1Z"/>
</mask>
<path fill-rule="evenodd" clip-rule="evenodd" d="M257 1L4 1V89C4.025 89 4.04999 89 4.075 89C40.5672 89 70.15 118.583 70.15 155.075C70.15 191.567 40.5672 221.15 4.075 221.15C4.04999 221.15 4.025 221.15 4 221.15L4 309H257V1Z" fill="#D7D7D7"/>
<path d="M4 1V-4H-1V1H4ZM257 1H262V-4L257 -4V1ZM4 89H-1V94.0061L4.0061 94L4 89ZM4 221.15L4.0061 216.15L-1 216.144V221.15H4ZM4 309H-1V314H4V309ZM257 309V314H262V309H257ZM4 6H257V-4H4V6ZM9 89V1H-1V89H9ZM4.0061 94C4.02817 94 4.05088 94 4.075 94V84C4.0491 84 4.02182 84 3.9939 84L4.0061 94ZM4.075 94C37.8058 94 65.15 121.344 65.15 155.075H75.15C75.15 115.821 43.3286 84 4.075 84V94ZM65.15 155.075C65.15 188.806 37.8058 216.15 4.075 216.15V226.15C43.3286 226.15 75.15 194.329 75.15 155.075H65.15ZM4.075 216.15C4.05203 216.15 4.02906 216.15 4.0061 216.15L3.9939 226.15C4.02093 226.15 4.04796 226.15 4.075 226.15V216.15ZM9 309V221.15H-1L-1 309H9ZM257 304H4V314H257V304ZM252 1V309H262V1H252Z" fill="#A7D4D3" mask="url(#path-3-inside-2_2072_18921)"/>
<line x1="267" y1="15" x2="267" y2="296" stroke="#C4C4C4" stroke-width="2" stroke-linecap="round" stroke-dasharray="6 6"/>
<line x1="1064" y1="15" x2="1064" y2="65" stroke="#C4C4C4" stroke-width="2" stroke-linecap="round" stroke-dasharray="6 6"/>
<line x1="1064" y1="246" x2="1064" y2="296" stroke="#C4C4C4" stroke-width="2" stroke-linecap="round" stroke-dasharray="6 6"/>
<path d="M358 280V232.8H367.6V280H358ZM372.4 280V232.8H374.8V280H372.4ZM377.2 280V232.8H379.6V280H377.2ZM386.006 280V232.8H388.406V280H386.006ZM398.006 280V232.8H400.406V280H398.006ZM405.206 280V232.8H410.006V280H405.206ZM414.013 280V232.8H423.613V280H414.013ZM428.413 280V232.8H430.813V280H428.413ZM433.213 280V232.8H435.613V280H433.213ZM442.019 280V232.8L451.619 232.8V280H442.019ZM456.419 280V232.8H458.819V280H456.419ZM461.219 280V232.8H463.619V280H461.219ZM470.025 280V232.8H479.625V280H470.025ZM484.425 280V232.8H486.825V280H484.425ZM489.225 280V232.8H491.625V280H489.225ZM498.031 280V232.8H500.431V280H498.031ZM502.831 280V232.8H512.431V280H502.831ZM517.231 280V232.8H519.631V280H517.231ZM526.038 280V232.8H528.438V280H526.038ZM538.038 280V232.8H540.438V280H538.038ZM545.238 280V232.8H550.038V280H545.238ZM554.044 280V232.8H556.444V280H554.044ZM558.844 280V232.8H568.444V280L558.844 280ZM573.244 280V232.8H575.644V280H573.244ZM582.05 280V232.8H584.45V280H582.05ZM594.05 280V232.8H596.45V280H594.05ZM601.25 280V232.8H606.05V280H601.25ZM610.056 280V232.8H612.456V280H610.056ZM614.856 280V232.8H624.456V280H614.856ZM629.256 280V232.8H631.656V280H629.256ZM638.062 280V232.8H640.463V280H638.062ZM650.063 280V232.8H652.463V280H650.063ZM657.263 280V232.8H662.063V280H657.263Z" fill="#398590"/>
<line x1="1062" y1="15" x2="267" y2="15" stroke="#C4C4C4" stroke-width="2" stroke-linecap="round" stroke-dasharray="6 6"/>
<path d="M1063 77C1041.88 77.2133 998.3 90.8191 992.959 143.536C988.654 172.198 996.636 230.417 1063 234" stroke="#C4C4C4" stroke-width="2" stroke-dasharray="7 7"/>
<line x1="1062" y1="298" x2="267" y2="298" stroke="#C4C4C4" stroke-width="2" stroke-linecap="round" stroke-dasharray="6 6"/>
</g>
<defs>
<filter id="filter0_d_2072_18921" x="2" y="1" width="1086.56" height="317.681" filterUnits="userSpaceOnUse" color-interpolation-filters="sRGB">
<feFlood flood-opacity="0" result="BackgroundImageFix"/>
<feColorMatrix in="SourceAlpha" type="matrix" values="0 0 0 0 0 0 0 0 0 0 0 0 0 0 0 0 0 0 127 0" result="hardAlpha"/>
<feOffset dx="10" dy="10"/>
<feComposite in2="hardAlpha" operator="out"/>
<feColorMatrix type="matrix" values="0 0 0 0 1 0 0 0 0 1 0 0 0 0 1 0 0 0 1 0"/>
<feBlend mode="normal" in2="BackgroundImageFix" result="effect1_dropShadow_2072_18921"/>
<feBlend mode="normal" in="SourceGraphic" in2="effect1_dropShadow_2072_18921" result="shape"/>
</filter>
<clipPath id="clip0_2072_18921">
<rect width="1091" height="320" fill="white"/>
</clipPath>
</defs>
</svg>
