<svg width="261" height="163" viewBox="0 0 261 163" fill="none" xmlns="http://www.w3.org/2000/svg">
<path d="M216.41 57.006C216.961 54.084 217.249 51.069 217.249 47.986C217.249 21.4841 195.972 0 169.725 0C153.666 0 139.467 8.043 130.865 20.3575C122.606 13.3566 111.954 9.1402 100.327 9.1402C74.3322 9.1402 53.2123 30.2136 52.8094 56.364H52.8035C23.6407 56.364 0 80.235 0 109.682C0 139.129 23.6407 163 52.8035 163H208.197C237.359 163 261 139.129 261 109.682C261 83.056 241.672 60.99 216.41 57.006Z" fill="#A7D4D3"/>
</svg>
