<svg width="92" height="92" viewBox="0 0 92 92" fill="none" xmlns="http://www.w3.org/2000/svg">
<circle cx="46.3835" cy="46.279" r="45.5583" fill="#FEFEFE"/>
<g opacity="0.8">
<path d="M25.1647 49.8846C24.409 48.5994 22.636 48.2744 21.2198 49.1072C21.2128 49.1113 21.2059 49.1154 21.199 49.1195L19.8089 46.7554C19.8158 46.7514 19.8228 46.7473 19.8297 46.7432C21.2459 45.9104 21.8238 44.2031 21.0681 42.918C20.3124 41.6328 18.5394 41.3078 17.1232 42.1405C17.1163 42.1446 17.1093 42.1487 17.1024 42.1528L15.7124 39.7889L60.4565 13.4783L61.8537 15.8545C60.6314 16.7331 60.1703 18.3064 60.8775 19.5091C61.5847 20.7117 63.1837 21.0736 64.5458 20.4326L65.9503 22.8212C64.728 23.6998 64.2669 25.2731 64.9741 26.4757C65.6813 27.6784 67.2803 28.0403 68.6423 27.3993L70.0468 29.7877C68.8245 30.6664 68.3634 32.2397 69.0706 33.4423C69.7778 34.6449 71.3768 35.0069 72.7388 34.3658L74.1361 36.7421L29.392 63.0526L28.0019 60.6886C28.0089 60.6846 28.0158 60.6805 28.0228 60.6764C29.439 59.8437 30.0168 58.1363 29.2611 56.8512C28.5054 55.566 26.7325 55.241 25.3163 56.0738C25.3093 56.0778 25.3024 56.0819 25.2955 56.0861L23.9054 53.722C23.9124 53.718 23.9193 53.714 23.9263 53.7099C25.3425 52.8771 25.9204 51.1698 25.1647 49.8846Z" fill="#EBEBEB" stroke="white" stroke-width="0.288344"/>
<path d="M33.3116 55.224C33.6037 55.0523 33.9797 55.1498 34.1514 55.4419C34.3232 55.734 34.2256 56.11 33.9336 56.2817C33.6415 56.4535 33.2655 56.3559 33.0937 56.0638C32.922 55.7718 33.0195 55.3958 33.3116 55.224Z" fill="#FFFBEF" stroke="white" stroke-width="0.288344"/>
<path d="M31.4347 52.0307C31.7267 51.8589 32.1027 51.9565 32.2745 52.2485C32.4462 52.5406 32.3487 52.9166 32.0566 53.0884C31.7645 53.2601 31.3885 53.1626 31.2168 52.8705C31.045 52.5784 31.1426 52.2024 31.4347 52.0307Z" fill="#FFFBEF" stroke="white" stroke-width="0.288344"/>
<path d="M29.5567 48.8383C29.8488 48.6665 30.2248 48.7641 30.3965 49.0562C30.5683 49.3482 30.4707 49.7242 30.1787 49.896C29.8866 50.0677 29.5106 49.9702 29.3389 49.6781C29.1671 49.386 29.2647 49.01 29.5567 48.8383Z" fill="#FFFBEF" stroke="white" stroke-width="0.288344"/>
<path d="M27.6788 45.6449C27.9709 45.4732 28.3469 45.5707 28.5186 45.8628C28.6904 46.1549 28.5928 46.5309 28.3007 46.7026C28.0087 46.8744 27.6327 46.7768 27.4609 46.4847C27.2892 46.1927 27.3867 45.8167 27.6788 45.6449Z" fill="#FFFBEF" stroke="white" stroke-width="0.288344"/>
<path d="M25.8018 42.4525C26.0939 42.2808 26.4699 42.3783 26.6417 42.6704C26.8134 42.9625 26.7159 43.3385 26.4238 43.5102C26.1317 43.682 25.7557 43.5844 25.584 43.2924C25.4122 43.0003 25.5098 42.6243 25.8018 42.4525Z" fill="#FFFBEF" stroke="white" stroke-width="0.288344"/>
<path d="M23.9239 39.2572C24.216 39.0855 24.592 39.183 24.7637 39.4751C24.9355 39.7672 24.8379 40.1432 24.5459 40.3149C24.2538 40.4867 23.8778 40.3891 23.706 40.097C23.5343 39.805 23.6318 39.429 23.9239 39.2572Z" fill="#FFFBEF" stroke="white" stroke-width="0.288344"/>
<path d="M65.6173 36.4223C65.9093 36.2505 66.2853 36.3481 66.4571 36.6401C66.6288 36.9322 66.5313 37.3082 66.2392 37.48C65.9471 37.6517 65.5712 37.5542 65.3994 37.2621C65.2277 36.97 65.3252 36.594 65.6173 36.4223Z" fill="#FFFBEF" stroke="white" stroke-width="0.288344"/>
<path d="M63.7403 33.2289C64.0324 33.0572 64.4084 33.1547 64.5801 33.4468C64.7519 33.7389 64.6543 34.1148 64.3623 34.2866C64.0702 34.4583 63.6942 34.3608 63.5225 34.0687C63.3507 33.7767 63.4483 33.4007 63.7403 33.2289Z" fill="#FFFBEF" stroke="white" stroke-width="0.288344"/>
<path d="M61.8624 30.0365C62.1545 29.8648 62.5305 29.9623 62.7022 30.2544C62.874 30.5465 62.7764 30.9225 62.4843 31.0942C62.1923 31.266 61.8163 31.1684 61.6445 30.8763C61.4728 30.5843 61.5703 30.2083 61.8624 30.0365Z" fill="#FFFBEF" stroke="white" stroke-width="0.288344"/>
<path d="M59.9845 26.8432C60.2765 26.6714 60.6525 26.769 60.8243 27.061C60.996 27.3531 60.8985 27.7291 60.6064 27.9009C60.3143 28.0726 59.9383 27.9751 59.7666 27.683C59.5949 27.3909 59.6924 27.0149 59.9845 26.8432Z" fill="#FFFBEF" stroke="white" stroke-width="0.288344"/>
<path d="M58.1075 23.6508C58.3996 23.479 58.7756 23.5766 58.9473 23.8687C59.1191 24.1607 59.0215 24.5367 58.7295 24.7085C58.4374 24.8802 58.0614 24.7827 57.8896 24.4906C57.7179 24.1985 57.8154 23.8225 58.1075 23.6508Z" fill="#FFFBEF" stroke="white" stroke-width="0.288344"/>
<path d="M56.2296 20.4555C56.5217 20.2837 56.8977 20.3813 57.0694 20.6733C57.2411 20.9654 57.1436 21.3414 56.8515 21.5132C56.5595 21.6849 56.1835 21.5874 56.0117 21.2953C55.84 21.0032 55.9375 20.6272 56.2296 20.4555Z" fill="#FFFBEF" stroke="white" stroke-width="0.288344"/>
<path d="M36.7473 48.993L36.8204 49.1172L36.9447 49.0442L37.1674 48.9132L37.2917 48.8401L37.2186 48.7158L36.4188 47.3557L36.8514 47.1013L36.9756 47.0282L36.9026 46.904L36.7858 46.7053L36.7127 46.5811L36.5884 46.6541L35.2543 47.4386L35.1301 47.5117L35.2031 47.636L35.3199 47.8346L35.393 47.9589L35.5173 47.8858L35.9475 47.6328L36.7473 48.993ZM37.8414 48.3496L37.9145 48.4739L38.0388 48.4008L38.2615 48.2699L38.3858 48.1968L38.3127 48.0725L37.323 46.3894L37.2499 46.2652L37.1257 46.3382L36.9029 46.4692L36.7787 46.5423L36.8517 46.6666L37.8414 48.3496ZM39.4427 46.4517L39.2995 46.4936L39.3462 46.6353C39.3917 46.7732 39.3906 46.8802 39.3602 46.9649C39.3286 47.0525 39.2684 47.1254 39.1693 47.1837C39.0893 47.2307 39.0042 47.2535 38.9112 47.2527C38.8276 47.2519 38.746 47.2237 38.6635 47.1595C38.5762 47.0901 38.493 46.992 38.4159 46.8608C38.3585 46.7632 38.3186 46.66 38.2959 46.5508L38.2958 46.5505C38.2753 46.4534 38.2846 46.3652 38.3218 46.2813C38.358 46.2007 38.4245 46.1268 38.5334 46.0628C38.6248 46.0091 38.7035 45.9929 38.7734 46.0008C38.8413 46.0086 38.9236 46.0456 39.0207 46.1326L39.1201 46.2216L39.2166 46.1294L39.4055 45.9488L39.5152 45.8439L39.4048 45.7397C39.2486 45.5923 39.0694 45.5028 38.869 45.4807C38.6678 45.4585 38.4701 45.509 38.2798 45.621C38.1115 45.7199 37.9774 45.851 37.8804 46.0139C37.7813 46.1796 37.7381 46.3636 37.7492 46.5613L37.7493 46.5616C37.7608 46.7578 37.826 46.952 37.9384 47.1431C38.0421 47.3194 38.1726 47.4672 38.3302 47.5848L38.3307 47.5852C38.4927 47.7049 38.6691 47.7729 38.8579 47.7821L38.859 47.7822C39.0518 47.79 39.2485 47.7281 39.4459 47.612C39.6452 47.4949 39.7892 47.3362 39.8672 47.1351L39.8672 47.135C39.9459 46.9316 39.9451 46.7093 39.8774 46.4753L39.8372 46.3365L39.6985 46.377L39.4427 46.4517ZM40.2419 46.9381L40.315 47.0623L40.4393 46.9893L40.662 46.8583L40.7863 46.7852L40.7132 46.6609L40.4011 46.1301L40.4581 45.9214L41.4042 46.3509L41.4723 46.3818L41.5369 46.3439L41.8308 46.171L41.9441 46.1044L42.0684 46.0313L42.0766 46.0265L43.3244 45.2928L43.4486 45.2197L43.3755 45.0954L43.2588 44.8968L43.1857 44.7725L43.0614 44.8456L42.1524 45.3801L41.9617 45.0558L42.7685 44.5814L42.8928 44.5083L42.8197 44.384L42.7036 44.1865L42.6305 44.0623L42.5062 44.1353L41.6994 44.6098L41.5425 44.3428L42.4124 43.8313L42.5367 43.7582L42.4636 43.6339L42.3468 43.4353L42.2738 43.311L42.1495 43.3841L40.9715 44.0768L40.9325 44.0997L40.8082 44.1728L40.6639 44.2576L40.362 44.4352L40.3105 44.4654L40.2955 44.5232L40.0381 45.5128L39.7235 44.9779L39.6505 44.8536L39.5262 44.9267L39.3035 45.0576L39.1792 45.1307L39.2523 45.255L40.2419 46.9381ZM41.8383 45.9244L41.8144 45.9142L40.6046 45.3962L40.8759 44.4205L40.901 44.3304L41.8383 45.9244ZM43.9099 44.7812L43.983 44.9055L44.1073 44.8324L44.33 44.7014L44.4543 44.6283L44.3812 44.5041L43.5814 43.1439L44.0139 42.8896L44.1382 42.8165L44.0651 42.6922L43.9483 42.4936L43.8753 42.3693L43.751 42.4424L42.4169 43.2268L42.2927 43.2999L42.3657 43.4242L42.4825 43.6228L42.5556 43.7471L42.6799 43.674L43.1101 43.421L43.9099 44.7812Z" fill="#FFFBEF" stroke="white" stroke-width="0.288344"/>
</g>
<path d="M34.0996 66.8677C33.0487 65.8102 31.2505 65.9351 30.0852 67.0932C30.0794 67.0989 30.0737 67.1046 30.0681 67.1103L28.135 65.1651C28.1407 65.1594 28.1464 65.1538 28.1522 65.1481C29.3175 63.99 29.4538 62.1927 28.4029 61.1352C27.3519 60.0777 25.5538 60.2026 24.3884 61.3607C24.3827 61.3664 24.377 61.3721 24.3713 61.3778L22.4383 59.4326L59.2564 22.8443L61.1994 24.7995C60.2333 25.954 60.177 27.5924 61.1604 28.582C62.1438 29.5716 63.7826 29.5256 64.9431 28.5667L66.8962 30.5321C65.9301 31.6865 65.8738 33.325 66.8572 34.3146C67.8406 35.3042 69.4794 35.2581 70.6399 34.2992L72.593 36.2647C71.6269 37.4191 71.5706 39.0576 72.554 40.0472C73.5374 41.0367 75.1762 40.9907 76.3366 40.0318L78.2797 41.9871L41.4616 78.5754L39.5285 76.6302C39.5343 76.6246 39.54 76.6189 39.5457 76.6132C40.7111 75.4551 40.8473 73.6578 39.7964 72.6003C38.7455 71.5428 36.9474 71.6677 35.782 72.8258C35.7763 72.8315 35.7706 72.8372 35.7649 72.8429L33.8317 70.8976C33.8374 70.8919 33.8432 70.8863 33.8489 70.8806C35.0142 69.7225 35.1505 67.9252 34.0996 66.8677Z" fill="#BDBDBD" stroke="white" stroke-width="0.288344"/>
<path d="M43.317 70.0158C43.5573 69.777 43.9458 69.7782 44.1846 70.0185C44.4234 70.2589 44.4222 70.6473 44.1819 70.8861C43.9416 71.125 43.5531 71.1237 43.3143 70.8834C43.0755 70.6431 43.0767 70.2546 43.317 70.0158Z" fill="#FFFBEF" stroke="white" stroke-width="0.288344"/>
<path d="M40.7067 67.3879C40.947 67.149 41.3354 67.1503 41.5743 67.3906C41.8131 67.6309 41.8119 68.0194 41.5715 68.2582C41.3312 68.497 40.9428 68.4958 40.7039 68.2555C40.4651 68.0151 40.4663 67.6267 40.7067 67.3879Z" fill="#FFFBEF" stroke="white" stroke-width="0.288344"/>
<path d="M38.0943 64.759C38.3347 64.5201 38.7231 64.5213 38.962 64.7617C39.2008 65.002 39.1996 65.3905 38.9592 65.6293C38.7189 65.8681 38.3305 65.8669 38.0916 65.6266C37.8528 65.3862 37.854 64.9978 38.0943 64.759Z" fill="#FFFBEF" stroke="white" stroke-width="0.288344"/>
<path d="M35.484 62.133C35.7243 61.8942 36.1128 61.8954 36.3516 62.1357C36.5904 62.376 36.5892 62.7645 36.3489 63.0033C36.1086 63.2421 35.7201 63.2409 35.4813 63.0006C35.2424 62.7603 35.2437 62.3718 35.484 62.133Z" fill="#FFFBEF" stroke="white" stroke-width="0.288344"/>
<path d="M32.8727 59.5051C33.113 59.2662 33.5014 59.2674 33.7403 59.5078C33.9791 59.7481 33.9779 60.1366 33.7376 60.3754C33.4972 60.6142 33.1088 60.613 32.8699 60.3727C32.6311 60.1323 32.6323 59.7439 32.8727 59.5051Z" fill="#FFFBEF" stroke="white" stroke-width="0.288344"/>
<path d="M30.2623 56.8781C30.5026 56.6393 30.8911 56.6405 31.1299 56.8808C31.3688 57.1212 31.3675 57.5096 31.1272 57.7484C30.8869 57.9873 30.4984 57.986 30.2596 57.7457C30.0208 57.5054 30.022 57.1169 30.2623 56.8781Z" fill="#FFFBEF" stroke="white" stroke-width="0.288344"/>
<path d="M69.9479 43.7883C70.1882 43.5494 70.5766 43.5506 70.8155 43.791C71.0543 44.0313 71.0531 44.4198 70.8128 44.6586C70.5724 44.8974 70.184 44.8962 69.9451 44.6559C69.7063 44.4155 69.7075 44.0271 69.9479 43.7883Z" fill="#FFFBEF" stroke="white" stroke-width="0.288344"/>
<path d="M67.3375 41.1603C67.5778 40.9215 67.9663 40.9227 68.2051 41.163C68.444 41.4034 68.4427 41.7918 68.2024 42.0307C67.9621 42.2695 67.5736 42.2683 67.3348 42.0279C67.096 41.7876 67.0972 41.3992 67.3375 41.1603Z" fill="#FFFBEF" stroke="white" stroke-width="0.288344"/>
<path d="M64.7252 38.5314C64.9655 38.2926 65.354 38.2938 65.5928 38.5341C65.8316 38.7745 65.8304 39.1629 65.5901 39.4018C65.3498 39.6406 64.9613 39.6394 64.7225 39.399C64.4837 39.1587 64.4849 38.7703 64.7252 38.5314Z" fill="#FFFBEF" stroke="white" stroke-width="0.288344"/>
<path d="M62.1149 35.9054C62.3552 35.6666 62.7436 35.6678 62.9825 35.9082C63.2213 36.1485 63.2201 36.5369 62.9797 36.7758C62.7394 37.0146 62.351 37.0134 62.1121 36.7731C61.8733 36.5327 61.8745 36.1443 62.1149 35.9054Z" fill="#FFFBEF" stroke="white" stroke-width="0.288344"/>
<path d="M59.5035 33.2775C59.7439 33.0387 60.1323 33.0399 60.3711 33.2802C60.61 33.5206 60.6088 33.909 60.3684 34.1478C60.1281 34.3867 59.7396 34.3855 59.5008 34.1451C59.262 33.9048 59.2632 33.5164 59.5035 33.2775Z" fill="#FFFBEF" stroke="white" stroke-width="0.288344"/>
<path d="M56.8932 30.6506C57.1335 30.4117 57.5219 30.4129 57.7608 30.6533C57.9996 30.8936 57.9984 31.2821 57.7581 31.5209C57.5177 31.7597 57.1293 31.7585 56.8905 31.5182C56.6516 31.2778 56.6528 30.8894 56.8932 30.6506Z" fill="#FFFBEF" stroke="white" stroke-width="0.288344"/>
<path fill-rule="evenodd" clip-rule="evenodd" d="M35.3424 53.5135C35.1527 53.3227 35.1537 53.0143 35.3445 52.8246L52.09 36.1837C52.2808 35.994 52.5892 35.995 52.7788 36.1858C52.9685 36.3766 52.9675 36.685 52.7767 36.8746L36.0312 53.5156C35.8404 53.7052 35.532 53.7043 35.3424 53.5135Z" fill="#FFFBEF" stroke="white" stroke-width="0.288344" stroke-linecap="round"/>
<path fill-rule="evenodd" clip-rule="evenodd" d="M37.9527 56.1414C37.7631 55.9506 37.7641 55.6422 37.9549 55.4526L54.7004 38.8116C54.8912 38.622 55.1996 38.6229 55.3892 38.8137C55.5788 39.0045 55.5778 39.3129 55.387 39.5026L38.6415 56.1435C38.4507 56.3332 38.1423 56.3322 37.9527 56.1414Z" fill="#FFFBEF" stroke="white" stroke-width="0.288344" stroke-linecap="round"/>
<path fill-rule="evenodd" clip-rule="evenodd" d="M40.564 58.7683C40.3744 58.5775 40.3754 58.2691 40.5662 58.0795L50.146 48.5595C50.3368 48.3699 50.6452 48.3708 50.8348 48.5616C51.0245 48.7525 51.0235 49.0609 50.8327 49.2505L41.2529 58.7705C41.0621 58.9601 40.7537 58.9592 40.564 58.7683Z" fill="#FFFBEF" stroke="white" stroke-width="0.288344" stroke-linecap="round"/>
<path d="M49.3267 65.5209L49.4283 65.6232L49.5306 65.5216L50.0542 65.0012L50.1565 64.8996L50.0549 64.7973L46.6883 61.4096L47.8951 60.2103L47.9974 60.1087L47.8957 60.0064L47.4317 59.5395L47.3301 59.4372L47.2278 59.5388L44.0914 62.6556L43.9891 62.7573L44.0908 62.8595L44.5548 63.3265L44.6564 63.4287L44.7587 63.3271L45.9601 62.1332L49.3267 65.5209ZM51.8989 62.9648L52.0005 63.0671L52.1028 62.9654L52.6264 62.4451L52.7287 62.3435L52.6271 62.2412L48.6948 58.2842L48.5932 58.182L48.4909 58.2836L47.9673 58.804L47.865 58.9056L47.9666 59.0079L51.8989 62.9648ZM54.9323 56.9958L54.8039 57.0719L54.8843 57.1976C55.1309 57.5828 55.229 57.9388 55.1976 58.2697C55.1659 58.6037 55.0189 58.9046 54.7467 59.1751C54.5241 59.3963 54.2616 59.5438 53.9566 59.619C53.6608 59.692 53.3545 59.6621 53.0327 59.5217C52.705 59.3751 52.3785 59.1409 52.0538 58.8142C51.8054 58.5643 51.6048 58.2832 51.4514 57.9705L51.4512 57.9702C51.3019 57.6675 51.2553 57.3599 51.3085 57.0433C51.3628 56.729 51.5273 56.4291 51.8146 56.1436C52.0617 55.898 52.3191 55.7637 52.5871 55.7267C52.8531 55.69 53.164 55.7556 53.5252 55.9437L53.6436 56.0053L53.7142 55.892L54.109 55.2583L54.1893 55.1294L54.0565 55.0559C53.5636 54.783 53.0625 54.678 52.5574 54.7497C52.0512 54.8215 51.5908 55.0689 51.1769 55.4803C50.8115 55.8434 50.5577 56.2626 50.4181 56.7367C50.2772 57.212 50.2858 57.6971 50.4415 58.1882L50.4416 58.1885C50.5973 58.6757 50.8897 59.1315 51.3121 59.5566C51.7004 59.9473 52.1369 60.2432 52.6215 60.4425L52.6221 60.4428C53.1127 60.6419 53.5953 60.6965 54.0663 60.6L54.0674 60.5998C54.542 60.4986 54.9987 60.2217 55.4384 59.7848C55.8702 59.3557 56.124 58.8683 56.1892 58.3242L56.1892 58.3241C56.2545 57.7754 56.1151 57.2189 55.785 56.6586L55.7117 56.5341L55.5873 56.6077L54.9323 56.9958ZM57.5426 57.3563L57.6442 57.4586L57.7465 57.357L58.2701 56.8366L58.3724 56.735L58.2708 56.6327L56.951 55.3047L56.9675 54.2593L60.2001 54.8324L60.2738 54.8455L60.3269 54.7927L61.0178 54.106L61.2201 53.905L60.9383 53.8613L56.9911 53.249L57.0552 50.1222L57.0625 49.7655L56.8095 50.017L56.0996 50.7224L56.0573 50.7645L56.057 50.8241L56.0434 54.3914L54.3385 52.6758L54.2369 52.5735L54.1346 52.6751L53.611 53.1955L53.5087 53.2971L53.6103 53.3994L57.5426 57.3563ZM61.3726 53.5503L61.4742 53.6525L61.5765 53.5509L64.5293 50.6165L64.6316 50.5148L64.53 50.4126L64.0659 49.9456L63.9643 49.8434L63.862 49.945L61.5351 52.2574L60.3999 51.1151L62.4866 49.0414L62.5889 48.9397L62.4872 48.8375L62.0259 48.3732L61.9243 48.271L61.822 48.3726L59.7352 50.4463L58.7341 49.4389L60.9693 47.2177L61.0716 47.116L60.97 47.0138L60.5059 46.5468L60.4043 46.4446L60.3021 46.5462L57.441 49.3894L57.3387 49.491L57.4403 49.5933L61.3726 53.5503ZM66.1661 48.7866L66.2678 48.8889L66.37 48.7872L66.8937 48.2669L66.9959 48.1652L66.8943 48.063L63.5277 44.6752L64.7345 43.476L64.8368 43.3743L64.7352 43.2721L64.2711 42.8051L64.1695 42.7029L64.0673 42.8045L60.9308 45.9213L60.8286 46.0229L60.9302 46.1252L61.3942 46.5922L61.4959 46.6944L61.5981 46.5928L62.7996 45.3989L66.1661 48.7866Z" fill="#FFFBEF" stroke="white" stroke-width="0.288344"/>
</svg>
