<?xml version="1.0" encoding="utf-8"?>
<!-- Generator: Adobe Illustrator 25.0.0, SVG Export Plug-In . SVG Version: 6.00 Build 0)  -->
<svg version="1.1" id="圖層_1" xmlns="http://www.w3.org/2000/svg" xmlns:xlink="http://www.w3.org/1999/xlink" x="0px" y="0px"
	 viewBox="0 0 1325 337" style="enable-background:new 0 0 1325 337;" xml:space="preserve">
<style type="text/css">
	.st0{fill:#66441C;}
	.st1{fill:#CCDA9C;}
	.st2{fill-rule:evenodd;clip-rule:evenodd;fill:#4EACB7;}
	.st3{fill:#707070;}
	.st4{fill:#A7D4D3;}
	.st5{fill:#FFFBEF;}
	.st6{fill:#4EACB7;}
	.st7{fill:#FDC251;}
	.st8{fill-rule:evenodd;clip-rule:evenodd;fill:#C4C4C4;}
	.st9{fill:#FDB52D;}
	.st10{fill-rule:evenodd;clip-rule:evenodd;fill:#FDC251;}
	.st11{fill:#C4C4C4;}
	.st12{fill-rule:evenodd;clip-rule:evenodd;fill:#FDB52D;}
	.st13{fill:#6C883E;}
	.st14{fill:#7CAA48;}
	.st15{fill-rule:evenodd;clip-rule:evenodd;fill:#8C8C8C;}
	.st16{fill-rule:evenodd;clip-rule:evenodd;fill:#C4C4C4;stroke:#C4C4C4;stroke-width:2;stroke-miterlimit:10;}
	.st17{fill:none;stroke:#C4C4C4;stroke-width:2;stroke-miterlimit:10;}
	.st18{fill-rule:evenodd;clip-rule:evenodd;fill:#FFFFFF;}
	.st19{fill:#FFFFFF;}
	.st20{fill-rule:evenodd;clip-rule:evenodd;fill:#707070;}
</style>
<g>
	<g>
		<path class="st0" d="M224.5,202.8h3.9l1.6,33.8h-7.5L224.5,202.8z"/>
		<path class="st1" d="M248,181.8c0,14.8-9.9,26.8-22,26.8s-22-12-22-26.8s9.9-26.8,22-26.8S248,167,248,181.8z"/>
	</g>
	<path class="st2" d="M1320.9,253.5L1027.1,147L14.2,253.5H0v1.5v81.5h1325V255v-1.5H1320.9z"/>
	<g>
		<path class="st3" d="M734,111h5v100h-5V111z"/>
		<path class="st3" d="M787,111h5v100h-5V111z"/>
		<path class="st3" d="M840,111h5v100h-5V111z"/>
		<path class="st4" d="M704.2,103.9H875l-6.4,6.9H709.4L704.2,103.9z"/>
		<path class="st4" d="M701.6,215.2c0-1.1,0.9-2,2-2h172.1c1.1,0,2,0.9,2,2v12.2c0,1.1-0.9,2-2,2H703.6c-1.1,0-2-0.9-2-2V215.2z"/>
		<path class="st5" d="M697,212.3c0-1.5,1.2-2.7,2.7-2.7h179.9c1.5,0,2.7,1.2,2.7,2.7s-1.2,2.7-2.7,2.7H699.7
			C698.2,214.9,697,213.8,697,212.3z"/>
		<path class="st6" d="M790.5,75.1l-41.4,28.6h-43.4L790.5,75.1z"/>
		<path class="st7" d="M790.5,75l41.4,28.8h43.4L790.5,75z"/>
		<path class="st7" d="M790.5,75.1v28.8h-41.6L790.5,75.1z"/>
		<path class="st6" d="M790.5,75.1v28.6h41.6L790.5,75.1z"/>
	</g>
	<g>
		<g>
			<path class="st8" d="M1177.2,77.6c0.1,0.1,0.2,0.2,0.3,0.2c0.2,0.2,0.2,0.5,0.1,0.7c-0.2,0.2-0.5,0.3-0.7,0.1l-0.1-0.1
				c0,0.1,0,0.1,0,0.2c-0.2,1.3-0.8,3.8-3.3,8.1c-2.4,4.1-5.8,8.3-9.5,11.3s-7.8,4.9-11.7,4.3c-0.3,0-0.5-0.3-0.4-0.6
				c0.1-0.3,0.3-0.5,0.6-0.4c3.4,0.6,7.3-1.1,10.9-4.1c3.6-2.9,6.9-7,9.2-11c2.5-4.2,3-6.6,3.2-7.7c0-0.1,0-0.3,0.1-0.4
				c0,0,0,0,0-0.1s0-0.2,0-0.2c0-0.1,0-0.2,0.1-0.3c0-0.1,0.1-0.3,0.3-0.4c0.2-0.1,0.4,0,0.5,0s0.2,0.1,0.2,0.2
				C1177.1,77.5,1177.1,77.5,1177.2,77.6L1177.2,77.6z"/>
			<path class="st9" d="M1188.3,79.4c-5,3.6-11.3,3.4-14.1-0.5c-2.8-3.9-1.1-10,3.9-13.6s11.3-3.4,14.2,0.5
				C1195.1,69.6,1193.3,75.7,1188.3,79.4z"/>
		</g>
		<g>
			<path class="st8" d="M1231.8,20.4c0.5,0,0.9,0.1,1.2,0.4c0.2,0.2,0.2,0.5,0.1,0.7c-0.2,0.2-0.5,0.3-0.7,0.1
				c-0.1-0.1-0.3-0.2-0.7-0.2c-0.3,0-0.8,0-1.3,0.1c-1,0.2-2.3,0.7-3.5,1.5c-2.5,1.5-5,4-5.9,7.1c0,0.1-0.1,0.2-0.1,0.3
				c-1.1,3.9-2.1,7.4-3.6,9.7c-0.8,1.2-1.7,2.1-3,2.7c-1.2,0.5-2.7,0.7-4.4,0.4c-0.3,0-0.5-0.3-0.4-0.6c0-0.3,0.3-0.5,0.6-0.4
				c1.6,0.3,2.8,0.1,3.9-0.3c1-0.4,1.8-1.2,2.5-2.3c1.4-2.2,2.4-5.5,3.5-9.5c0-0.1,0-0.1,0.1-0.2c1-3.5,3.7-6.1,6.4-7.7
				c1.3-0.8,2.7-1.3,3.8-1.6C1230.8,20.4,1231.3,20.4,1231.8,20.4z"/>
			<path class="st7" d="M1242.8,22.2c-4.6,3.3-10.3,3.1-12.9-0.4s-1-9.1,3.6-12.4s10.3-3.1,12.9,0.4
				C1248.9,13.4,1247.3,18.9,1242.8,22.2z"/>
		</g>
		<g>
			<path class="st8" d="M1228.8,55.9c0.9-0.5,1.8-0.8,2.6-0.5c0.2,0.1,0.4,0.4,0.3,0.7s-0.4,0.4-0.7,0.3c-0.3-0.1-0.9-0.1-1.7,0.4
				c-0.8,0.5-1.7,1.3-2.5,2.3c-1.7,2.1-3.1,5.2-3.2,8.7c-0.1,4.5-0.6,8.5-2.1,11.4c-1.5,3-3.9,4.9-7.7,5.2c-0.3,0-0.5-0.2-0.6-0.5
				c0-0.3,0.2-0.5,0.4-0.5c3.4-0.3,5.5-2,6.9-4.7s1.9-6.5,2-11c0.1-3.7,1.6-7.1,3.4-9.3C1227,57.3,1227.9,56.5,1228.8,55.9z"/>
			<path class="st7" d="M1241.8,54.2c-3.8,4.6-9.7,6-13.3,3c-3.6-2.9-3.4-9,0.3-13.6c3.8-4.6,9.7-6,13.3-3
				C1245.7,43.5,1245.6,49.6,1241.8,54.2z"/>
		</g>
	</g>
	<g>
		<path class="st10" d="M177,137v118h-2V137H177z"/>
		<path class="st10" d="M187.9,99.7v155.2h-2V99.7H187.9z"/>
		<path class="st10" d="M230.2,101.3v152.2h-2V101.3H230.2z"/>
		<path class="st10" d="M272.8,132.1v121.3h-2V132.1H272.8z"/>
		<path class="st10" d="M315.6,141.8v110.3h-2V141.8H315.6z"/>
		<path class="st10" d="M357.8,130.5v123.1h-2V130.5H357.8z"/>
		<path class="st10" d="M208.6,93.7v159.8h-2V93.7H208.6z"/>
		<path class="st10" d="M251.5,115.1v136.2h-2V115.1H251.5z"/>
		<path class="st10" d="M294.1,153.4v99h-2v-99H294.1z"/>
		<path class="st10" d="M336.4,137.1v114.4h-2V137.1H336.4z"/>
		<path class="st10" d="M379.2,132.1v120.3h-2V132.1H379.2z"/>
		<path class="st10" d="M198.6,95.7v159.2h-2V95.7H198.6z"/>
		<path class="st10" d="M240.8,107.7v145.8h-2V107.7H240.8z"/>
		<path class="st10" d="M283.4,141.7v111.8h-2V141.7H283.4z"/>
		<path class="st10" d="M325.7,140.5v111.7h-2V140.5H325.7z"/>
		<path class="st10" d="M368.6,132.1v121.3h-2V132.1H368.6z"/>
		<path class="st10" d="M219.6,98.1v155.4h-2V98.1H219.6z"/>
		<path class="st10" d="M262.1,123.6v128.8h-2V123.6H262.1z"/>
		<path class="st10" d="M304.9,145.8v106.3h-2V145.8H304.9z"/>
		<path class="st10" d="M347.1,134.5v117h-2v-117H347.1z"/>
		<path class="st10" d="M389.9,134.3v118.1h-2V134.3H389.9z"/>
		<path class="st10" d="M400.5,141.7v110.7h-2V141.7H400.5z"/>
		<path class="st11" d="M162.1,251.4h251.2V262H162.1V251.4z"/>
		<path class="st10" d="M400.5,196H177v-2h223.5V196z"/>
		<path class="st10" d="M400,210H175v-2h225V210z"/>
		<path class="st10" d="M267.5,129.8h-93.6v-2h93.6V129.8z"/>
		<path class="st12" d="M293,151.9c38.8,32.1,83.9,24.2,102,11.6c4.7-3.3,6.7-6.3,7.2-8.9c0.6-2.5-0.1-5.1-1.8-7.6
			c-3.4-5.3-10.3-9.6-14.5-11.3c-15-6-31.8-3.4-53.1,3.1c-7.2,2.2-14.9,4.8-23.2,7.6C304.4,148.1,298.8,150,293,151.9z M289,147.6
			c-9.5-10.3-23.5-23.9-38.1-35.1c-8.3-6.4-17-12.1-25.3-16c-8.2-3.9-16.4-6.2-23.6-5.3c-5.5,0.6-13.7,1.7-20.4,6.6
			c-6.9,5.1-11.8,13.9-11.8,29c0,7.7,5.5,20.7,18.8,29.8c13.5,9.2,34.8,14.2,66.5,6.4c11.5-2.8,22.2-6,32.2-9.2
			c0.4,0.5,0.9,1,1.3,1.5l0.1,0.1l0.2,0.1c40.9,34.4,89.1,26.3,109.2,12.4c5.4-3.7,8.4-7.8,9.4-12.1s-0.3-8.3-2.5-11.7
			c-4.2-6.5-12.2-11.4-17-13.4c-16.9-6.8-35.2-3.6-56.6,2.9c-7.5,2.3-15.3,4.9-23.7,7.7C301.7,143.4,295.5,145.5,289,147.6z
			 M283.4,149.4c-9.3-9.9-22.2-22.3-35.7-32.7c-8.2-6.3-16.5-11.7-24.3-15.4c-7.9-3.7-14.9-5.5-20.7-4.8c-5.6,0.6-12.4,1.6-17.8,5.6
			c-5.2,3.8-9.6,10.9-9.6,24.7c0,5.7,4.4,17.1,16.5,25.3c11.9,8.1,31.6,13.2,62.2,5.6C264.4,155.1,274.2,152.3,283.4,149.4z"/>
	</g>
	<g>
		<g>
			<path class="st0" d="M1246.6,234.6h4.8l2,42.1h-9.4L1246.6,234.6z"/>
			<path class="st13" d="M1275.9,208.4c0,18.5-12.3,33.4-27.5,33.4s-27.5-15-27.5-33.4s12.3-33.4,27.5-33.4S1275.9,190,1275.9,208.4
				z"/>
		</g>
		<g>
			<path class="st0" d="M1187.9,198h4.1l1.7,36.1h-8L1187.9,198z"/>
			<path class="st14" d="M1213,175.6c0,15.8-10.5,28.6-23.5,28.6s-23.5-12.8-23.5-28.6s10.5-28.6,23.5-28.6S1213,159.8,1213,175.6z"
				/>
		</g>
		<g>
			<path class="st0" d="M525.3,194.5h3.9l1.6,33.9h-7.5L525.3,194.5z"/>
			<path class="st1" d="M549,173.4c0,14.9-9.9,26.9-22.1,26.9c-12.2,0-22.1-12-22.1-26.9s9.9-26.9,22.1-26.9
				C539.1,146.5,549,158.6,549,173.4z"/>
		</g>
		<g>
			<path class="st0" d="M904.9,157.4h3.2l1.3,27.9h-6.2L904.9,157.4z"/>
			<path class="st1" d="M924.3,140.1c0,12.2-8.1,22.1-18.2,22.1c-10,0-18.2-9.9-18.2-22.1c0-12.2,8.1-22.1,18.2-22.1
				C916.2,118,924.3,127.9,924.3,140.1z"/>
		</g>
		<g>
			<path class="st0" d="M1093.8,162.5h2.8l1.1,24.4h-5.4L1093.8,162.5z"/>
			<path class="st1" d="M1110.8,147.4c0,10.7-7.1,19.4-15.9,19.4s-15.9-8.7-15.9-19.4s7.1-19.4,15.9-19.4
				C1103.7,128,1110.8,136.7,1110.8,147.4z"/>
		</g>
		<g>
			<path class="st0" d="M956,134.7h3.8l1.5,33H954L956,134.7z"/>
			<path class="st1" d="M979,114.2c0,14.5-9.6,26.2-21.5,26.2S936,128.6,936,114.2c0-14.5,9.6-26.2,21.5-26.2S979,99.7,979,114.2z"
				/>
		</g>
		<g>
			<path class="st0" d="M624.5,181.3h3.8l1.6,34h-7.4L624.5,181.3z"/>
			<path class="st1" d="M647.7,160.1c0,14.9-9.7,26.9-21.8,26.9c-12,0-21.8-12.1-21.8-26.9c0-14.9,9.7-26.9,21.8-26.9
				C638,133.2,647.7,145.3,647.7,160.1z"/>
		</g>
		<g>
			<path class="st0" d="M692.8,173.4h2.8l1.1,24.6h-5.5L692.8,173.4z"/>
			<path class="st1" d="M710,158.1c0,10.8-7.2,19.5-16.1,19.5c-8.9,0-16.1-8.7-16.1-19.5s7.2-19.5,16.1-19.5
				C702.8,138.5,710,147.3,710,158.1z"/>
		</g>
		<g>
			<path class="st0" d="M497.8,223.4h4.2l1.7,36.8h-8.2L497.8,223.4z"/>
			<path class="st14" d="M523.4,200.5c0,16.1-10.7,29.2-24,29.2c-13.2,0-24-13.1-24-29.2s10.7-29.2,24-29.2
				C512.7,171.4,523.4,184.4,523.4,200.5z"/>
		</g>
		<g>
			<path class="st0" d="M649.3,212.3h3.8l1.6,34h-7.4L649.3,212.3z"/>
			<path class="st14" d="M672.6,191.2c0,14.9-9.7,26.9-21.8,26.9c-12,0-21.8-12.1-21.8-26.9s9.7-26.9,21.8-26.9
				C662.9,164.3,672.6,176.3,672.6,191.2z"/>
		</g>
		<g>
			<path class="st0" d="M589.6,174.3h5.1l2.1,44.8h-10L589.6,174.3z"/>
			<path class="st13" d="M620.8,146.5c0,19.6-13.1,35.5-29.2,35.5c-16.1,0-29.2-15.9-29.2-35.5s13.1-35.5,29.2-35.5
				C607.8,111,620.8,126.9,620.8,146.5z"/>
		</g>
		<g>
			<path class="st0" d="M872.9,205.8h4l1.6,34.5h-7.7L872.9,205.8z"/>
			<path class="st13" d="M897,184.4c0,15.1-10.1,27.4-22.5,27.4S852,199.5,852,184.4s10.1-27.4,22.5-27.4S897,169.3,897,184.4z"/>
		</g>
		<g>
			<path class="st0" d="M129,252.4h3.5l1.4,30.4h-6.8L129,252.4z"/>
			<path class="st1" d="M150.2,233.5c0,13.3-8.9,24.1-19.8,24.1s-19.8-10.8-19.8-24.1s8.9-24.1,19.8-24.1
				C141.4,209.4,150.2,220.1,150.2,233.5z"/>
		</g>
		<g>
			<path class="st0" d="M164.8,275.1h3.8l1.5,33h-7.3L164.8,275.1z"/>
			<path class="st14" d="M187.8,254.6c0,14.4-9.6,26.1-21.5,26.1s-21.5-11.7-21.5-26.1s9.6-26.1,21.5-26.1S187.8,240.2,187.8,254.6z
				"/>
		</g>
		<g>
			<path class="st0" d="M72.3,241.7h6.3l2.6,55H69L72.3,241.7z"/>
			<path class="st13" d="M110.6,207.6c0,24.1-16,43.6-35.8,43.6C55,251.1,39,231.6,39,207.6c0-24.1,16-43.6,35.8-43.6
				S110.6,183.5,110.6,207.6z"/>
		</g>
		<g>
			<path class="st0" d="M1140.7,203.6h5.8l2.4,50.7h-11.2L1140.7,203.6z"/>
			<path class="st1" d="M1176,172.2c0,22.2-14.8,40.2-33,40.2s-33-18-33-40.2s14.8-40.2,33-40.2S1176,150,1176,172.2z"/>
		</g>
	</g>
	<g>
		<path class="st15" d="M1021.5,101l-26.8,54.8h53.7L1021.5,101z M1021.5,105.5l-23.6,48.2h47.3L1021.5,105.5z"/>
		<path class="st3" d="M993,157c0-1.7,1.3-3,3-3h51c1.7,0,3,1.3,3,3s-1.3,3-3,3h-51C994.3,160,993,158.7,993,157z"/>
	</g>
	<g>
		<path class="st15" d="M1021.2,138.1c25.6,0,46.4-20.8,46.4-46.4s-20.8-46.4-46.4-46.4s-46.4,20.8-46.4,46.4
			C974.9,117.4,995.6,138.1,1021.2,138.1z M1021.2,141.1c27.3,0,49.4-22.1,49.4-49.4s-22.1-49.4-49.4-49.4
			c-27.3,0-49.4,22.1-49.4,49.4C971.9,119,994,141.1,1021.2,141.1z"/>
		<g>
			<path class="st16" d="M1021,140.7V42h1v98.7H1021z"/>
			<path class="st16" d="M986.3,126.6l69.8-69.8l0.7,0.7L987,127.3L986.3,126.6z"/>
			<path class="st16" d="M1070.6,91.8h-98.7v-1h98.7V91.8z"/>
			<path class="st16" d="M1056.1,126.6l-69.8-69.8l0.7-0.7l69.8,69.8L1056.1,126.6z"/>
		</g>
		<circle class="st17" cx="1021" cy="91.8" r="32.5"/>
	</g>
	<g>
		<g>
			<path class="st6" d="M997.7,58.7c0,6.1-5.3,11-11.8,11s-11.8-4.9-11.8-11s5.3-11,11.8-11C992.4,47.7,997.7,52.6,997.7,58.7z"/>
			<path class="st18" d="M993.9,57.7c0-0.1,0-0.2,0-0.3c0-4.1-3.6-7.5-8-7.5s-8,3.3-8,7.5c0,0.1,0,0.2,0,0.3H993.9z"/>
		</g>
		<g>
			<path class="st6" d="M997.7,127c0,6.1-5.3,11-11.8,11s-11.8-4.9-11.8-11c0-6.1,5.3-11,11.8-11S997.7,120.9,997.7,127z"/>
			<path class="st18" d="M993.9,126c0-0.1,0-0.2,0-0.3c0-4.1-3.6-7.5-8-7.5s-8,3.3-8,7.5c0,0.1,0,0.2,0,0.3H993.9z"/>
		</g>
		<g>
			<path class="st6" d="M1068.5,58.7c0,6.1-5.3,11-11.8,11s-11.8-4.9-11.8-11s5.3-11,11.8-11S1068.5,52.6,1068.5,58.7z"/>
			<path class="st18" d="M1064.7,57.7c0-0.1,0-0.2,0-0.3c0-4.1-3.6-7.5-8-7.5s-8,3.3-8,7.5c0,0.1,0,0.2,0,0.3H1064.7z"/>
		</g>
		<g>
			<path class="st6" d="M1068.5,127c0,6.1-5.3,11-11.8,11s-11.8-4.9-11.8-11c0-6.1,5.3-11,11.8-11S1068.5,120.9,1068.5,127z"/>
			<path class="st18" d="M1064.7,126c0-0.1,0-0.2,0-0.3c0-4.1-3.6-7.5-8-7.5s-8,3.3-8,7.5c0,0.1,0,0.2,0,0.3H1064.7z"/>
		</g>
		<g>
			<path class="st4" d="M1033.5,43c0,6.1-5.3,11-11.8,11s-11.8-4.9-11.8-11s5.3-11,11.8-11C1028.2,32,1033.5,36.9,1033.5,43z"/>
			<path class="st18" d="M1029.7,42c0-0.1,0-0.2,0-0.3c0-4.1-3.6-7.5-8-7.5s-8,3.3-8,7.5c0,0.1,0,0.2,0,0.3H1029.7z"/>
		</g>
		<g>
			<path class="st4" d="M1033.5,141c0,6.1-5.3,11-11.8,11s-11.8-4.9-11.8-11s5.3-11,11.8-11C1028.2,130,1033.5,134.9,1033.5,141z"/>
			<path class="st18" d="M1029.7,140c0-0.1,0-0.2,0-0.3c0-4.1-3.6-7.5-8-7.5s-8,3.3-8,7.5c0,0.1,0,0.2,0,0.3H1029.7z"/>
		</g>
		<g>
			<path class="st4" d="M981.5,91c0,6.1-5.3,11-11.8,11s-11.8-4.9-11.8-11s5.3-11,11.8-11C976.3,80,981.5,84.9,981.5,91z"/>
			<path class="st18" d="M977.7,90c0-0.1,0-0.2,0-0.3c0-4.1-3.6-7.5-8-7.5s-8,3.3-8,7.5c0,0.1,0,0.2,0,0.3H977.7z"/>
		</g>
		<g>
			<path class="st4" d="M1082.5,91c0,6.1-5.3,11-11.8,11s-11.8-4.9-11.8-11s5.3-11,11.8-11S1082.5,84.9,1082.5,91z"/>
			<path class="st18" d="M1078.7,90c0-0.1,0-0.2,0-0.3c0-4.1-3.6-7.5-8-7.5s-8,3.3-8,7.5c0,0.1,0,0.2,0,0.3H1078.7z"/>
		</g>
	</g>
	<g>
		<path class="st19" d="M1034.1,90.5c0,6.9-5.6,12.5-12.5,12.5s-12.5-5.6-12.5-12.5s5.6-12.5,12.5-12.5
			C1028.4,78,1034.1,83.6,1034.1,90.5z"/>
		<path class="st20" d="M1021.5,100.1c5.3,0,9.5-4.3,9.5-9.5s-4.3-9.5-9.5-9.5c-5.3,0-9.5,4.3-9.5,9.5S1016.3,100.1,1021.5,100.1z
			 M1021.5,103.1c6.9,0,12.5-5.6,12.5-12.5s-5.6-12.5-12.5-12.5s-12.5,5.6-12.5,12.5S1014.6,103.1,1021.5,103.1z"/>
	</g>
	<g>
		<path class="st0" d="M430.9,200h5.9l2.4,51h-11.3L430.9,200z"/>
		<path class="st13" d="M466.5,168.3c0,22.3-14.9,40.5-33.2,40.5c-18.4,0-33.2-18.1-33.2-40.5s14.9-40.5,33.2-40.5
			C451.6,127.9,466.5,146,466.5,168.3z"/>
	</g>
	<g>
		<path class="st0" d="M1049.8,182.6h3.4l1.4,29.4h-6.5L1049.8,182.6z"/>
		<path class="st13" d="M1070.3,164.3c0,12.9-8.6,23.3-19.2,23.3s-19.2-10.4-19.2-23.3c0-12.9,8.6-23.3,19.2-23.3
			C1061.7,141,1070.3,151.4,1070.3,164.3z"/>
	</g>
</g>
</svg>
