<svg width="125" height="121" viewBox="0 0 125 121" fill="none" xmlns="http://www.w3.org/2000/svg">
<path fill-rule="evenodd" clip-rule="evenodd" d="M63.2406 106.127C88.8484 106.127 109.608 85.3674 109.608 59.7596C109.608 34.1518 88.8484 13.3926 63.2406 13.3926C37.6328 13.3926 16.8735 34.1518 16.8735 59.7596C16.8735 85.3674 37.6328 106.127 63.2406 106.127ZM63.2406 109.127C90.5052 109.127 112.608 87.0243 112.608 59.7596C112.608 32.495 90.5052 10.3926 63.2406 10.3926C35.9759 10.3926 13.8735 32.495 13.8735 59.7596C13.8735 87.0243 35.9759 109.127 63.2406 109.127Z" fill="#8C8C8C"/>
<path fill-rule="evenodd" clip-rule="evenodd" d="M63 108.734L63 10L64 10L64 108.734L63 108.734Z" fill="#C4C4C4"/>
<path fill-rule="evenodd" clip-rule="evenodd" d="M28.3041 94.6381L98.1193 24.8223L98.8264 25.5294L29.0112 95.3453L28.3041 94.6381Z" fill="#C4C4C4"/>
<path fill-rule="evenodd" clip-rule="evenodd" d="M112.608 59.7598H13.8735V58.7598H112.608V59.7598Z" fill="#C4C4C4"/>
<path fill-rule="evenodd" clip-rule="evenodd" d="M98.1191 94.6382L28.3039 24.8223L29.011 24.1152L98.8262 93.9311L98.1191 94.6382Z" fill="#C4C4C4"/>
<path d="M39.6964 26.7216C39.6964 32.8038 34.4258 37.7343 27.9242 37.7343C21.4227 37.7343 16.1521 32.8038 16.1521 26.7216C16.1521 20.6395 21.4227 15.709 27.9242 15.709C34.4258 15.709 39.6964 20.6395 39.6964 26.7216Z" fill="#4EACB7"/>
<path fill-rule="evenodd" clip-rule="evenodd" d="M35.8942 25.7168C35.8973 25.6316 35.8988 25.5461 35.8988 25.4602C35.8988 21.34 32.3284 18 27.9241 18C23.5198 18 19.9495 21.34 19.9495 25.4602C19.9495 25.5461 19.951 25.6316 19.9541 25.7168H35.8942Z" fill="white"/>
<path d="M39.6964 95.0126C39.6964 101.095 34.4258 106.025 27.9242 106.025C21.4227 106.025 16.1521 101.095 16.1521 95.0126C16.1521 88.9305 21.4227 84 27.9242 84C34.4258 84 39.6964 88.9305 39.6964 95.0126Z" fill="#4EACB7"/>
<path fill-rule="evenodd" clip-rule="evenodd" d="M35.8942 94.0078C35.8973 93.9226 35.8988 93.8371 35.8988 93.7512C35.8988 89.631 32.3284 86.291 27.9241 86.291C23.5198 86.291 19.9495 89.631 19.9495 93.7512C19.9495 93.8371 19.951 93.9226 19.9541 94.0078H35.8942Z" fill="white"/>
<path d="M110.544 26.7216C110.544 32.8038 105.274 37.7343 98.7721 37.7343C92.2706 37.7343 87 32.8038 87 26.7216C87 20.6395 92.2706 15.709 98.7721 15.709C105.274 15.709 110.544 20.6395 110.544 26.7216Z" fill="#4EACB7"/>
<path fill-rule="evenodd" clip-rule="evenodd" d="M106.742 25.7168C106.745 25.6316 106.747 25.5461 106.747 25.4602C106.747 21.34 103.176 18 98.772 18C94.3677 18 90.7974 21.34 90.7974 25.4602C90.7974 25.5461 90.7989 25.6316 90.802 25.7168H106.742Z" fill="white"/>
<path d="M110.544 95.0126C110.544 101.095 105.274 106.025 98.7721 106.025C92.2706 106.025 87 101.095 87 95.0126C87 88.9305 92.2706 84 98.7721 84C105.274 84 110.544 88.9305 110.544 95.0126Z" fill="#4EACB7"/>
<path fill-rule="evenodd" clip-rule="evenodd" d="M106.742 94.0078C106.745 93.9226 106.747 93.8371 106.747 93.7512C106.747 89.631 103.176 86.291 98.772 86.291C94.3677 86.291 90.7974 89.631 90.7974 93.7512C90.7974 93.8371 90.7989 93.9226 90.802 94.0078H106.742Z" fill="white"/>
<path d="M75.5443 11.0126C75.5443 17.0948 70.2737 22.0253 63.7721 22.0253C57.2706 22.0253 52 17.0948 52 11.0126C52 4.93053 57.2706 0 63.7721 0C70.2737 0 75.5443 4.93053 75.5443 11.0126Z" fill="#A7D4D3"/>
<path fill-rule="evenodd" clip-rule="evenodd" d="M71.7421 10.0078C71.7452 9.92261 71.7467 9.8371 71.7467 9.75122C71.7467 5.63104 68.1763 2.29102 63.772 2.29102C59.3677 2.29102 55.7974 5.63104 55.7974 9.75122C55.7974 9.8371 55.7989 9.92261 55.802 10.0078H71.7421Z" fill="white"/>
<path d="M75.5443 109.013C75.5443 115.095 70.2737 120.025 63.7721 120.025C57.2706 120.025 52 115.095 52 109.013C52 102.931 57.2706 98 63.7721 98C70.2737 98 75.5443 102.931 75.5443 109.013Z" fill="#A7D4D3"/>
<path fill-rule="evenodd" clip-rule="evenodd" d="M71.7421 108.008C71.7452 107.923 71.7467 107.837 71.7467 107.751C71.7467 103.631 68.1763 100.291 63.772 100.291C59.3677 100.291 55.7974 103.631 55.7974 107.751C55.7974 107.837 55.7989 107.923 55.802 108.008H71.7421Z" fill="white"/>
<path d="M23.5443 59.0126C23.5443 65.0948 18.2737 70.0253 11.7721 70.0253C5.27057 70.0253 0 65.0948 0 59.0126C0 52.9305 5.27057 48 11.7721 48C18.2737 48 23.5443 52.9305 23.5443 59.0126Z" fill="#A7D4D3"/>
<path fill-rule="evenodd" clip-rule="evenodd" d="M19.7421 58.0078C19.7452 57.9226 19.7467 57.8371 19.7467 57.7512C19.7467 53.631 16.1763 50.291 11.772 50.291C7.36775 50.291 3.79736 53.631 3.79736 57.7512C3.79736 57.8371 3.79891 57.9226 3.80199 58.0078H19.7421Z" fill="white"/>
<path d="M124.544 59.0126C124.544 65.0948 119.274 70.0253 112.772 70.0253C106.271 70.0253 101 65.0948 101 59.0126C101 52.9305 106.271 48 112.772 48C119.274 48 124.544 52.9305 124.544 59.0126Z" fill="#A7D4D3"/>
<path fill-rule="evenodd" clip-rule="evenodd" d="M120.742 58.0078C120.745 57.9226 120.747 57.8371 120.747 57.7512C120.747 53.631 117.176 50.291 112.772 50.291C108.368 50.291 104.797 53.631 104.797 57.7512C104.797 57.8371 104.799 57.9226 104.802 58.0078H120.742Z" fill="white"/>
<path d="M76.0633 58.5316C76.0633 65.4527 70.4527 71.0633 63.5316 71.0633C56.6106 71.0633 51 65.4527 51 58.5316C51 51.6106 56.6106 46 63.5316 46C70.4527 46 76.0633 51.6106 76.0633 58.5316Z" fill="white"/>
<path fill-rule="evenodd" clip-rule="evenodd" d="M63.5316 68.0633C68.7958 68.0633 73.0633 63.7958 73.0633 58.5316C73.0633 53.2675 68.7958 49 63.5316 49C58.2675 49 54 53.2675 54 58.5316C54 63.7958 58.2675 68.0633 63.5316 68.0633ZM63.5316 71.0633C70.4527 71.0633 76.0633 65.4527 76.0633 58.5316C76.0633 51.6106 70.4527 46 63.5316 46C56.6106 46 51 51.6106 51 58.5316C51 65.4527 56.6106 71.0633 63.5316 71.0633Z" fill="#707070"/>
</svg>
