<svg xmlns="http://www.w3.org/2000/svg" viewBox="0 0 855.8 423.6"><defs><style>.cls-1{isolation:isolate;}.cls-2{fill:#33160d;}.cls-3,.cls-4{fill:none;stroke-linecap:round;stroke-linejoin:round;stroke-width:5px;}.cls-3{stroke:#33160d;}.cls-4{stroke:#5e2818;}.cls-5{fill:#fefcdd;}.cls-6{fill:#ea785b;}.cls-7{opacity:0.2;mix-blend-mode:multiply;}.cls-8{fill:#a34c34;}.cls-9{fill:#5e2818;}.cls-10,.cls-11{fill:#fff;}.cls-10{opacity:0.15;}</style></defs><g class="cls-1"><g id="圖層_4" data-name="圖層 4"><path class="cls-2" d="M252,391.1c-.3,2.7-12.7,3.5-27.5,1.7s-26.7-5.4-26.3-8.1,12.6-3.4,27.5-1.7S252.3,388.4,252,391.1Z" transform="translate(-124.1 -69.7)"/><path class="cls-3" d="M198.2,384.7c.3-2.7,12.6-3.4,27.5-1.7s26.6,5.4,26.3,8.1" transform="translate(-124.1 -69.7)"/><line class="cls-4" x1="73.5" y1="273.2" x2="79.2" y2="318.6"/><line class="cls-4" x1="95.1" y1="275.8" x2="93" y2="323.8"/><line class="cls-4" x1="138.2" y1="280.9" x2="121.9" y2="323.7"/><line class="cls-4" x1="116.6" y1="278.4" x2="107.3" y2="325.5"/><path class="cls-5" d="M263,71.1c84.6,10.1,129.1,66.5,107.4,146-15.8,57.8-67.7,68.9-104.3,132.1a6.8,6.8,0,0,1-6.7,3.4L229.7,349l-29.6-3.5a7,7,0,0,1-5.8-4.9c-20.6-70.1-68.4-93.1-70.1-153C121.9,105.3,178.4,61,263,71.1Z" transform="translate(-124.1 -69.7)"/><path class="cls-6" d="M247.5,69.8c-12.4,5.4-22.7,23.5-28.9,75.1-8.7,72.3-6,182.9,13.4,185.2s48.1-104.5,56.8-176.8c6.1-51.6.4-71.7-10.4-79.8-5-1-10.1-1.8-15.4-2.4S252.5,70,247.5,69.8Z" transform="translate(-124.1 -69.7)"/><path class="cls-6" d="M187.8,79c-13.6,20.6-23.1,50-23,81.2.4,100.2,39.3,177.4,40.9,162.1,2.5-22.9-12.1-50.6-8.1-166,1.5-44.5,12.1-70.3,21.5-85.3A121.8,121.8,0,0,0,187.8,79Z" transform="translate(-124.1 -69.7)"/><path class="cls-6" d="M131.8,136.4a200.3,200.3,0,0,0-1.9,47.3,233.4,233.4,0,0,0,15.2,65.7C159.3,272,177.5,294,189.8,327c5.2,6.5,8.6,10,8.6,10-7.2-22.6-35.9-46.8-46.1-161.9-3.4-38.8,5.5-66.5,14.6-84.9C150.9,101.4,139,117,131.8,136.4Z" transform="translate(-124.1 -69.7)"/><path class="cls-6" d="M334.3,96.5c8.3,23.2,10.6,54,3.1,84.4-24,97.3-80,163.1-78,147.9,3-23,23.7-46.4,47.1-159.5,9-43.6,4.9-71.1-.8-87.9A123.1,123.1,0,0,1,334.3,96.5Z" transform="translate(-124.1 -69.7)"/><path class="cls-6" d="M375.1,165.5a204,204,0,0,1-9.3,46.5c-7.4,22.8-18.4,42.9-30.3,60.2-19.1,18.6-42,35.7-61.8,64.9-6.6,5.1-10.6,7.7-10.6,7.7,12.3-20.3,45.9-37,82.9-146.5,12.5-36.9,10.4-65.9,5.9-85.9C364.8,127,372.7,145,375.1,165.5Z" transform="translate(-124.1 -69.7)"/><path class="cls-7" d="M266.1,349.2c36.6-63.2,88.5-74.3,104.3-132.1a6.4,6.4,0,0,1,.2-.7c-9.5,15.9-23.2,36.8-35.1,46.7-22.2,18.8-28.3,23.2-50.1,33.8-25.7,12.4-86.5-.2-105.4-16.7-15.6-13.7-42-43.1-49.9-60.8l.6,1.8h0c9.1,24.5,26.1,44,41.4,69.5h.1l4.1,7.1c0,.1.1.2.1.3l1.1,2,.3.5,1.1,2.1.2.3,2.5,4.9.3.6.9,1.9.3.7.9,2,.3.6,1.2,2.6h0c.4.8.7,1.7,1.1,2.5l.3.8c.3.6.5,1.3.8,1.9a3.6,3.6,0,0,0,.4.9l.7,1.9.3.8c.4.9.7,1.9,1.1,2.8h0l1,2.7.3.9c.2.6.4,1.3.7,2l.3,1c.2.6.4,1.3.7,2s.1.6.2.9.7,2,.9,3l.4,1a5.8,5.8,0,0,0,1.8,2.3,7.2,7.2,0,0,0,2.6,1.4l1,.2,29.6,3.5,29.7,3.6h1a6.4,6.4,0,0,0,2.8-.7,6,6,0,0,0,2.3-1.9l.6-.8Z" transform="translate(-124.1 -69.7)"/><path class="cls-8" d="M233.7,315.9c-16.6-2-36.6-2.5-48.8-.9a195.6,195.6,0,0,1,9.4,25.6,7.4,7.4,0,0,0,3.9,4.4c4.6,2.2,16.7,5.1,31.2,6.9s27,1.7,31.9.6a6.9,6.9,0,0,0,4.8-3.3,203.8,203.8,0,0,1,15.3-22.7C268.3,321.2,250.3,317.9,233.7,315.9Z" transform="translate(-124.1 -69.7)"/><path class="cls-7" d="M229.4,351.9c14.5,1.7,27,1.7,31.9.6a6.9,6.9,0,0,0,4.8-3.3c2.6-4.6,5.4-8.8,8.1-12.9-37.5,15.2-67.7-.2-89.3-21.1a197.9,197.9,0,0,1,9.4,25.4,7.4,7.4,0,0,0,3.9,4.4C202.8,347.2,214.9,350.1,229.4,351.9Z" transform="translate(-124.1 -69.7)"/><path class="cls-8" d="M224.5,392.6s14.3,1.8,27.5-1.5c0,0,.7,15.1-13.7,35.8a9.5,9.5,0,0,1-2.6,2.7,22.3,22.3,0,0,1-30.8-3.7,11.8,11.8,0,0,1-1.9-3.2c-9.1-23.6-4.8-38-4.8-38C210.2,391,224.5,392.6,224.5,392.6Z" transform="translate(-124.1 -69.7)"/><path class="cls-9" d="M199.1,387.7l-1.8,3.1a61,61,0,0,0,1.3,16.9,5.4,5.4,0,0,0,3.6-4.1c.4-2.2-1.1-11.6-1.8-15.6A.7.7,0,0,0,199.1,387.7Z" transform="translate(-124.1 -69.7)"/><path class="cls-9" d="M249.4,392.7a.7.7,0,0,0-1.3-.1c-1.9,3.6-6.3,12-6.6,14.3a5.4,5.4,0,0,0,4.7,6h.2a69.2,69.2,0,0,0,4.5-13.3C250.4,397,249.8,394.4,249.4,392.7Z" transform="translate(-124.1 -69.7)"/><path class="cls-9" d="M226,407.7a5.3,5.3,0,1,0,10.5,2c.5-2.2-1.1-11.6-1.8-15.6a.7.7,0,0,0-1.3-.2C231.3,397.3,226.4,405.5,226,407.7Z" transform="translate(-124.1 -69.7)"/><path class="cls-9" d="M209,389.1l-2.6-.9,1.8,41.1a21.1,21.1,0,0,0,2.7,1.8Z" transform="translate(-124.1 -69.7)"/><path class="cls-9" d="M243.1,392.6l-2.7.3-11.7,40.3a18.2,18.2,0,0,0,3-1.1Z" transform="translate(-124.1 -69.7)"/><path class="cls-9" d="M220.8,434.1l5-41.3-1.3-.2h-1.3l-4.9,41.3A10.7,10.7,0,0,0,220.8,434.1Z" transform="translate(-124.1 -69.7)"/><path class="cls-10" d="M124.2,187.6a95.3,95.3,0,0,0,1.1,12.3A104.2,104.2,0,1,0,289.4,76.1a190.1,190.1,0,0,0-26.4-5C178.4,61,121.9,105.3,124.2,187.6Z" transform="translate(-124.1 -69.7)"/><circle class="cls-10" cx="93.6" cy="82.2" r="61.9"/><path class="cls-9" d="M220.2,409.1a5.4,5.4,0,0,1-10.8-.7c.2-2.3,4.1-11,5.8-14.7a.7.7,0,0,1,1.3.1C217.7,397.7,220.3,406.8,220.2,409.1Z" transform="translate(-124.1 -69.7)"/><path class="cls-4" d="M198.2,384.7c12,6.3,26.3,7.9,26.3,7.9s14.3,1.8,27.5-1.5" transform="translate(-124.1 -69.7)"/><path class="cls-9" d="M222.4,410c-.3-.1-13.3-1.7-24.6-7.2a25.1,25.1,0,0,0,.4,2.7c11.1,5.1,23,6.6,23.9,6.8h.1a91.6,91.6,0,0,0,24.8-.9c.4-.9.8-1.7,1.1-2.6-12.3,2.7-25.4,1.2-25.7,1.2Z" transform="translate(-124.1 -69.7)"/><path class="cls-9" d="M236.1,429.3a102.5,102.5,0,0,1-16-.2h0a87,87,0,0,1-15.5-3.6l.3.4a26.8,26.8,0,0,0,2.8,3,93.2,93.2,0,0,0,12.1,2.5h.1a87.5,87.5,0,0,0,12.3.4,18.6,18.6,0,0,0,3.5-2.2Z" transform="translate(-124.1 -69.7)"/><path class="cls-9" d="M197.2,394.9c11.7,6,25.1,7.7,26.1,7.8h0c1,.1,14.4,1.6,27.2-1.4l.6-2.4h-.5c-12.7,3.2-26.7,1.5-27,1.5h0c-.4,0-14.4-1.8-26-7.8h-.4Z" transform="translate(-124.1 -69.7)"/><path class="cls-9" d="M221,421.8a90.5,90.5,0,0,0,20.8-.2l1.4-2.5a86.3,86.3,0,0,1-21.9.4h0a86.8,86.8,0,0,1-21.2-5.6c.2.9.5,1.9.8,2.8a93.5,93.5,0,0,0,20.1,5.1Z" transform="translate(-124.1 -69.7)"/><path class="cls-5" d="M198.1,402.5a5.3,5.3,0,0,1-7,2.9,5.4,5.4,0,0,1-3-7c.9-2.1,7.3-9.1,10.1-12.1a.8.8,0,0,1,1.3.5C199.3,390.9,199,400.4,198.1,402.5Z" transform="translate(-124.1 -69.7)"/><path class="cls-5" d="M217.1,408a5.2,5.2,0,0,1-6.4,4,5.3,5.3,0,0,1-4-6.4c.5-2.3,5.7-10.2,7.9-13.6a.7.7,0,0,1,1.3.3C216.5,396.3,217.7,405.7,217.1,408Z" transform="translate(-124.1 -69.7)"/><path class="cls-5" d="M229.3,408.8a5.4,5.4,0,0,0,5.4,5.4,5.4,5.4,0,0,0,5.4-5.3c0-2.3-3.1-11.3-4.5-15.1a.8.8,0,0,0-1.4,0C232.8,397.6,229.4,406.4,229.3,408.8Z" transform="translate(-124.1 -69.7)"/><path class="cls-5" d="M246.5,408.2a5.5,5.5,0,0,0,6,4.7,5.5,5.5,0,0,0,4.7-6c-.3-2.3-4.6-10.7-6.5-14.3a.7.7,0,0,0-1.3.1C248.4,396.7,246.2,405.9,246.5,408.2Z" transform="translate(-124.1 -69.7)"/></g><g id="DESIGNED_BY_FREEPIK" data-name="DESIGNED BY FREEPIK"><path class="cls-11" d="M181.1,481.8a.7.7,0,0,0-.6.3,1.5,1.5,0,0,0-.2.8v2.3l-.9-.7-1.2-.2a2.8,2.8,0,0,0-2,.8,4.3,4.3,0,0,0-.7,2.4,5.1,5.1,0,0,0,.2,1.3,3.7,3.7,0,0,0,.5,1.1l.9.7a2,2,0,0,0,1.1.2h.8l.7-.3.6-.6h0a1.4,1.4,0,0,0,.2.7.7.7,0,0,0,.6.2c.2,0,.4,0,.5-.2a.8.8,0,0,0,.3-.7v-7.1a1.2,1.2,0,0,0-.2-.7A.9.9,0,0,0,181.1,481.8Zm-1.1,6.9a1.8,1.8,0,0,1-.5.7l-.8.2-.8-.2-.6-.7a3.7,3.7,0,0,1-.2-1.2,4.3,4.3,0,0,1,.2-1.1,2,2,0,0,1,.6-.7l.8-.2.8.2a1.8,1.8,0,0,1,.5.7,2,2,0,0,1,.2,1.1A2.2,2.2,0,0,1,180,488.7Z" transform="translate(-124.1 -69.7)"/><path class="cls-11" d="M188.5,487.8a1,1,0,0,0,.3-.8,2.8,2.8,0,0,0-.3-1.3,3.8,3.8,0,0,0-1.1-1.1,3.8,3.8,0,0,0-1.6-.4,2.8,2.8,0,0,0-1.3.3,2.3,2.3,0,0,0-1,.7,1.7,1.7,0,0,0-.6,1,3.1,3.1,0,0,0-.3,1.3,3.3,3.3,0,0,0,.9,2.5,3.6,3.6,0,0,0,2.4.8h1.2l.9-.5c.2-.2.4-.3.5-.5a1.4,1.4,0,0,0,.2-.6c0-.1,0-.3-.1-.3l-.5-.2h-.3l-.5.5-.4.3-.5.2h-.5l-.8-.2-.6-.7a2.9,2.9,0,0,1-.2-.9h3.2Zm-4.2-.8a2.2,2.2,0,0,1,.5-1.2,1.2,1.2,0,0,1,1-.4,1.3,1.3,0,0,1,1,.4,2.1,2.1,0,0,1,.4,1.2Z" transform="translate(-124.1 -69.7)"/><path class="cls-11" d="M193.9,487.3l-1.3-.4-.9-.3a.8.8,0,0,1-.6-.2c-.2-.1-.2-.3-.2-.5a.5.5,0,0,1,.3-.4l.7-.2h.7l.4.4c.1.2.3.3.4.4a.5.5,0,0,0,.4.2l.5-.2c.2-.1.2-.3.2-.5a1.1,1.1,0,0,0-.1-.5l-.6-.5-.8-.3h-1.1a3,3,0,0,0-1.4.2c-.4.2-.7.4-.8.7a1.6,1.6,0,0,0-.3.9,1.2,1.2,0,0,0,.3.9,2.7,2.7,0,0,0,.8.7l1.4.4a1.9,1.9,0,0,1,1,.4.5.5,0,0,1,.4.6c0,.2-.1.3-.3.5l-.8.2-1-.2-.6-.7-.2-.3H190c-.2,0-.4,0-.5.2a.5.5,0,0,0-.2.4,1.3,1.3,0,0,0,.3.8,2.2,2.2,0,0,0,.9.7,3.4,3.4,0,0,0,1.5.2,4.1,4.1,0,0,0,1.6-.2,2.2,2.2,0,0,0,.9-.7,2.1,2.1,0,0,0,.3-1.2,1.2,1.2,0,0,0-.2-.8Z" transform="translate(-124.1 -69.7)"/><path class="cls-11" d="M196.5,484.3c-.3,0-.4,0-.6.2a1.4,1.4,0,0,0-.2.7v4.7a1.4,1.4,0,0,0,.2.7c.2.2.3.2.6.2a.7.7,0,0,0,.6-.2,1.4,1.4,0,0,0,.2-.7v-4.7a1.4,1.4,0,0,0-.2-.7A.7.7,0,0,0,196.5,484.3Z" transform="translate(-124.1 -69.7)"/><path class="cls-11" d="M196.5,481.9l-.6.2a1.4,1.4,0,0,0-.2.6.8.8,0,0,0,.2.6l.6.2.6-.2a.8.8,0,0,0,.2-.6,1.4,1.4,0,0,0-.2-.6Z" transform="translate(-124.1 -69.7)"/><path class="cls-11" d="M203.6,484.3c-.2,0-.4,0-.5.2a1.1,1.1,0,0,0-.2.6v.3a2.8,2.8,0,0,0-1-.9l-1.1-.2a2,2,0,0,0-1.1.2,2.4,2.4,0,0,0-.9.6,3.1,3.1,0,0,0-.5,1,2.7,2.7,0,0,0-.2,1.3,4.7,4.7,0,0,0,.3,1.7,2.7,2.7,0,0,0,.9,1.2,2.4,2.4,0,0,0,1.5.4,2,2,0,0,0,1.1-.3,2.3,2.3,0,0,0,.9-.8v1.2a6.4,6.4,0,0,0-.2.7,1,1,0,0,1-.5.4c-.2.2-.5.2-1,.2h-.5l-.4-.2-.3-.3-.3-.3a.9.9,0,0,0-.6-.3c-.2,0-.4,0-.5.2a.5.5,0,0,0-.2.4,1.1,1.1,0,0,0,.3.8,2,2,0,0,0,1.1.6,3.3,3.3,0,0,0,1.5.3l1.5-.2a3.3,3.3,0,0,0,1-.6,3.1,3.1,0,0,0,.5-1,4.4,4.4,0,0,0,.2-1.3v-4.8a1.1,1.1,0,0,0-.2-.8A.6.6,0,0,0,203.6,484.3Zm-1,4.3a2,2,0,0,1-.6.7l-.7.2a1.7,1.7,0,0,1-1.2-.5,2.7,2.7,0,0,1-.4-1.5,2.2,2.2,0,0,1,.4-1.5,1.3,1.3,0,0,1,1.1-.5,1.7,1.7,0,0,1,1.2.5,2.5,2.5,0,0,1,.4,1.6A3,3,0,0,1,202.6,488.6Z" transform="translate(-124.1 -69.7)"/><path class="cls-11" d="M211,485.3a2,2,0,0,0-.8-.8l-1.1-.2a2.3,2.3,0,0,0-1.2.2,3.8,3.8,0,0,0-.9.9v-.2a4.3,4.3,0,0,0-.1-.5q-.2-.3-.3-.3h-.4c-.2,0-.4,0-.5.2s-.2.4-.2.7v4.7a.8.8,0,0,0,.2.7c.1.2.3.2.6.2a.7.7,0,0,0,.6-.2,1.4,1.4,0,0,0,.2-.7v-2.1a4.2,4.2,0,0,1,.1-1.3,1.3,1.3,0,0,1,.5-.7,1.3,1.3,0,0,1,.8-.3,1.1,1.1,0,0,1,.9.4,3.9,3.9,0,0,1,.2,1.3v2.7a1.4,1.4,0,0,0,.2.7.7.7,0,0,0,.6.2c.3,0,.5,0,.6-.2a.8.8,0,0,0,.2-.7V486A1.4,1.4,0,0,0,211,485.3Z" transform="translate(-124.1 -69.7)"/><path class="cls-11" d="M217.8,487.8a.8.8,0,0,0,.4-.8,2,2,0,0,0-.4-1.3,2.6,2.6,0,0,0-1-1.1,3.8,3.8,0,0,0-1.6-.4,2.8,2.8,0,0,0-1.3.3,2.6,2.6,0,0,0-1.1.7,4.4,4.4,0,0,0-.6,1,5.9,5.9,0,0,0-.2,1.3,3.3,3.3,0,0,0,.9,2.5,3.6,3.6,0,0,0,2.4.8h1.2l.9-.5c.2-.2.4-.3.5-.5a1.4,1.4,0,0,0,.2-.6c0-.1-.1-.3-.2-.3l-.4-.2h-.3l-.5.5-.4.3-.5.2h-.5l-.8-.2a1.3,1.3,0,0,1-.6-.7,1.5,1.5,0,0,1-.2-.9h3.1A2.2,2.2,0,0,0,217.8,487.8Zm-4.1-.8a2.1,2.1,0,0,1,.4-1.2,1.3,1.3,0,0,1,1-.4,1.4,1.4,0,0,1,1.1.4,2.1,2.1,0,0,1,.4,1.2Z" transform="translate(-124.1 -69.7)"/><path class="cls-11" d="M224.2,481.8a.9.9,0,0,0-.6.3,1.5,1.5,0,0,0-.2.8v2.3l-.9-.7-1.2-.2a2.6,2.6,0,0,0-1.9.8,3.6,3.6,0,0,0-.8,2.4,5.1,5.1,0,0,0,.2,1.3,2.4,2.4,0,0,0,.6,1.1,2.7,2.7,0,0,0,.8.7,2.2,2.2,0,0,0,1.1.2h.8l.7-.3.6-.6h0a.9.9,0,0,0,.3.7c.1.2.3.2.5.2a.7.7,0,0,0,.6-.2,1.2,1.2,0,0,0,.2-.7v-7.1a1.2,1.2,0,0,0-.2-.7A.7.7,0,0,0,224.2,481.8Zm-1.1,6.9a1.8,1.8,0,0,1-.5.7l-.8.2-.8-.2a1.8,1.8,0,0,1-.5-.7,2.2,2.2,0,0,1-.2-1.2,4.1,4.1,0,0,1,.1-1.1l.6-.7.8-.2.8.2a1.8,1.8,0,0,1,.5.7,2,2,0,0,1,.3,1.1A2.1,2.1,0,0,1,223.1,488.7Z" transform="translate(-124.1 -69.7)"/><path class="cls-11" d="M233.6,484.7a2.3,2.3,0,0,0-1.4-.4l-1.2.2-.9.7v-2.4a1.4,1.4,0,0,0-.2-.7.9.9,0,0,0-.6-.3.7.7,0,0,0-.6.3,1.4,1.4,0,0,0-.2.7v7.1a1.2,1.2,0,0,0,.2.7.7.7,0,0,0,.6.2c.2,0,.4,0,.5-.2a.8.8,0,0,0,.3-.7h0c.1.2.3.3.4.4l.4.3.5.3h.8a2.2,2.2,0,0,0,1.1-.2,2.7,2.7,0,0,0,.8-.7,2.4,2.4,0,0,0,.6-1.1,5.1,5.1,0,0,0,.2-1.3,2.9,2.9,0,0,0-.4-1.7A2,2,0,0,0,233.6,484.7Zm-.8,4.4a1.4,1.4,0,0,1-1.1.5,1.6,1.6,0,0,1-1.1-.5,2.5,2.5,0,0,1-.5-1.5,3.1,3.1,0,0,1,.2-1.1,2.8,2.8,0,0,1,.6-.8l.8-.2.8.2a2,2,0,0,1,.6.7,3.7,3.7,0,0,1,.1,1.1A2.5,2.5,0,0,1,232.8,489.1Z" transform="translate(-124.1 -69.7)"/><path class="cls-11" d="M240.5,484.4h-.7l-.3.4-.3.7-1.3,3.7-1.3-4a1.6,1.6,0,0,0-.3-.6c-.2-.2-.3-.2-.6-.2h-.4q-.2,0-.3.3c0,.1-.1.2-.1.3a2.5,2.5,0,0,0,.2.7l2,5v.3a1.6,1.6,0,0,1-.3.6q-.1.3-.3.3h-1l-.5.2c-.1.1-.1.2-.1.4a.6.6,0,0,0,.3.6l1.1.2a1.8,1.8,0,0,0,1.1-.3,1.1,1.1,0,0,0,.7-.6,6.7,6.7,0,0,0,.6-1.2l2.1-5.5v-.4a1,1,0,0,1,.1-.3c0-.2,0-.3-.1-.4Z" transform="translate(-124.1 -69.7)"/><path class="cls-11" d="M262.9,481.8l-1.2.2a1.6,1.6,0,0,0-.7.7,3.7,3.7,0,0,0-.2,1.2v.5h-.4c-.5,0-.8.2-.8.6a.5.5,0,0,0,.2.4,1.1,1.1,0,0,0,.6.2h.4v4.3a.9.9,0,0,0,.3.7c.1.2.3.2.5.2s.5,0,.6-.2a.8.8,0,0,0,.2-.7v-4.3h1.1a.5.5,0,0,0,.3-.5c0-.4-.3-.6-1-.6h-.4V484a1.2,1.2,0,0,1,.2-.7.5.5,0,0,1,.5-.3h.8l.3-.2c.1-.1.1-.2.1-.4S263.9,481.8,262.9,481.8Z" transform="translate(-124.1 -69.7)"/><path class="cls-11" d="M268.1,484.5a1.8,1.8,0,0,0-1-.2,1.1,1.1,0,0,0-.8.2,2.8,2.8,0,0,0-.6.8,1.5,1.5,0,0,0-.2-.8c-.1-.2-.3-.2-.6-.2s-.8.3-.8,1v4.6a1.4,1.4,0,0,0,.2.7.7.7,0,0,0,.6.2c.3,0,.5,0,.6-.2a.8.8,0,0,0,.2-.7v-1.4c0-.5.1-.9.1-1.2a2,2,0,0,1,.2-.9c0-.3.2-.4.3-.6h1.6l.5-.2a.8.8,0,0,0,.2-.5C268.6,484.9,268.4,484.7,268.1,484.5Z" transform="translate(-124.1 -69.7)"/><path class="cls-11" d="M274.2,487.8a1,1,0,0,0,.3-.8,2.8,2.8,0,0,0-.3-1.3,3.5,3.5,0,0,0-1-1.1,4.3,4.3,0,0,0-1.7-.4,3.1,3.1,0,0,0-1.3.3,2.3,2.3,0,0,0-1,.7,1.7,1.7,0,0,0-.6,1,3,3,0,0,0-.2,1.3,2.9,2.9,0,0,0,3.3,3.3h1.2l.8-.5.6-.5a1.3,1.3,0,0,0,.1-.6c0-.1,0-.3-.1-.3l-.4-.2h-.4c-.2.2-.3.4-.5.5l-.4.3-.5.2h-.5l-.8-.2-.6-.7a3,3,0,0,1-.2-1h4.2ZM270,487a2.2,2.2,0,0,1,.5-1.2,1.3,1.3,0,0,1,1-.4,1.2,1.2,0,0,1,1,.4,2.2,2.2,0,0,1,.5,1.2Z" transform="translate(-124.1 -69.7)"/><path class="cls-11" d="M280.9,487.8a1,1,0,0,0,.4-.8,2,2,0,0,0-.4-1.3,2.6,2.6,0,0,0-1-1.1,3.8,3.8,0,0,0-1.6-.4,2.5,2.5,0,0,0-1.3.3,2.1,2.1,0,0,0-1.1.7,4.4,4.4,0,0,0-.6,1,5.9,5.9,0,0,0-.2,1.3,3.3,3.3,0,0,0,.9,2.5,3.5,3.5,0,0,0,2.4.8h1.2l.9-.5.5-.5a1.4,1.4,0,0,0,.2-.6c0-.1-.1-.3-.2-.3a.5.5,0,0,0-.4-.2h-.3l-.5.5-.5.3-.4.2h-.5l-.8-.2a1.3,1.3,0,0,1-.6-.7,1.6,1.6,0,0,1-.2-1h4.1Zm-4.1-.8a2.1,2.1,0,0,1,.4-1.2,1.3,1.3,0,0,1,1-.4,1.4,1.4,0,0,1,1.1.4,2.1,2.1,0,0,1,.4,1.2Z" transform="translate(-124.1 -69.7)"/><path class="cls-11" d="M286.9,484.7a2.3,2.3,0,0,0-1.4-.4l-1.1.2-.9.9v-.2a1.2,1.2,0,0,0-.2-.7.7.7,0,0,0-.6-.2c-.2,0-.4,0-.5.2s-.2.4-.2.7v7a1.9,1.9,0,0,0,.1.8.6.6,0,0,0,.6.3c.5,0,.8-.4.8-1.1v-2.5a3.8,3.8,0,0,0,.9.9,3.1,3.1,0,0,0,2.2,0c.4-.1.6-.4.9-.6l.6-1.1a5.9,5.9,0,0,0,.2-1.4,3.3,3.3,0,0,0-.4-1.7A2.2,2.2,0,0,0,286.9,484.7Zm-.4,4-.6.7-.7.2a1.7,1.7,0,0,1-1.2-.5,2.4,2.4,0,0,1-.4-1.5,2.4,2.4,0,0,1,.4-1.6,1.3,1.3,0,0,1,1.2-.5l.7.2.6.7a3.6,3.6,0,0,1,.2,1.1A4.3,4.3,0,0,1,286.5,488.7Z" transform="translate(-124.1 -69.7)"/><path class="cls-11" d="M289.9,484.3a.7.7,0,0,0-.6.2,1.4,1.4,0,0,0-.2.7v4.7a1.4,1.4,0,0,0,.2.7,1,1,0,0,0,1.2,0,1.4,1.4,0,0,0,.2-.7v-4.7a1.4,1.4,0,0,0-.2-.7A.7.7,0,0,0,289.9,484.3Z" transform="translate(-124.1 -69.7)"/><path class="cls-11" d="M289.9,481.9l-.6.2a1.4,1.4,0,0,0-.2.6.8.8,0,0,0,.2.6l.6.2.6-.2a.8.8,0,0,0,.2-.6,1.1,1.1,0,0,0-.2-.6Z" transform="translate(-124.1 -69.7)"/><path class="cls-11" d="M297.3,489.3l-1.7-2.6.9-.8c.4-.4.6-.7.6-1s-.1-.3-.2-.5H296l-.5.5-1.9,1.9v-3.9c0-.4,0-.6-.2-.8a.6.6,0,0,0-.6-.3.9.9,0,0,0-.6.3,1.9,1.9,0,0,0-.2.8v7a1.4,1.4,0,0,0,.2.7,1,1,0,0,0,1.2,0,.8.8,0,0,0,.2-.7v-1.3l.9-.8,1.4,2.3.5.6h.4c.3,0,.5,0,.6-.2a.8.8,0,0,0,.2-.6.4.4,0,0,0-.1-.3Z" transform="translate(-124.1 -69.7)"/><path class="cls-11" d="M299.4,489.1a.7.7,0,0,0-.8.8,1.2,1.2,0,0,0,.2.7.8.8,0,0,0,.7.2.7.7,0,0,0,.6-.2.9.9,0,0,0,.3-.7.9.9,0,0,0-.3-.6A.8.8,0,0,0,299.4,489.1Z" transform="translate(-124.1 -69.7)"/><path class="cls-11" d="M306.8,488.1l-.4.2-.3.4a2.2,2.2,0,0,1-.6.7,1.3,1.3,0,0,1-.9.2H304a1,1,0,0,1-.5-.4,1.6,1.6,0,0,1-.4-.7c0-.2-.1-.5-.1-.8a2.1,2.1,0,0,1,.5-1.5,1.3,1.3,0,0,1,1.1-.6,1.5,1.5,0,0,1,.8.2,2.3,2.3,0,0,1,.7.7l.3.3h.3c.2,0,.4,0,.5-.2s.2-.3.2-.5a.7.7,0,0,0-.2-.6l-.5-.6-.9-.5-1.2-.2a3.4,3.4,0,0,0-1.7.5,2,2,0,0,0-1.1,1.1,3.1,3.1,0,0,0,2.8,5,2.7,2.7,0,0,0,1.3-.2l.9-.5.5-.6a1,1,0,0,0,.2-.7.4.4,0,0,0-.2-.4A.5.5,0,0,0,306.8,488.1Z" transform="translate(-124.1 -69.7)"/><path class="cls-11" d="M313.6,485.2a2.6,2.6,0,0,0-1-.7,4.3,4.3,0,0,0-2.6,0,2.6,2.6,0,0,0-1.1.7,2.4,2.4,0,0,0-.6,1,3.2,3.2,0,0,0-.2,1.4,3,3,0,0,0,.2,1.3,3.3,3.3,0,0,0,.6,1,2.6,2.6,0,0,0,1.1.7,4.3,4.3,0,0,0,2.6,0,1.8,1.8,0,0,0,1-.7,3.6,3.6,0,0,0,.7-1,4.7,4.7,0,0,0,0-2.7A3.6,3.6,0,0,0,313.6,485.2Zm-1.1,3.9a1.3,1.3,0,0,1-1.2.5,1.5,1.5,0,0,1-.9-.2,1.8,1.8,0,0,1-.5-.7,4.3,4.3,0,0,1-.2-1.1,3.7,3.7,0,0,1,.2-1.2,1.8,1.8,0,0,1,.5-.7,1.5,1.5,0,0,1,.9-.2,1.3,1.3,0,0,1,1.2.5,3.4,3.4,0,0,1,.4,1.6A3.3,3.3,0,0,1,312.5,489.1Z" transform="translate(-124.1 -69.7)"/><path class="cls-11" d="M323.6,484.5l-1.2-.2a1.6,1.6,0,0,0-1,.2l-.9.7a2.3,2.3,0,0,0-.7-.7,2,2,0,0,0-1.1-.2,1.6,1.6,0,0,0-1,.2,2.2,2.2,0,0,0-.9.7h0a.6.6,0,0,0-.3-.6c-.1-.2-.3-.2-.5-.2a.7.7,0,0,0-.6.2,1.4,1.4,0,0,0-.2.7v4.6a1.5,1.5,0,0,0,.2.8.8.8,0,0,0,.7.2.7.7,0,0,0,.6-.2,1.5,1.5,0,0,0,.2-.8v-2.2a5.4,5.4,0,0,1,.2-1.5,1.1,1.1,0,0,1,1.1-.6l.6.2a1.4,1.4,0,0,1,.2.6v3.5a1,1,0,0,0,.3.8c.1.2.3.2.6.2a.7.7,0,0,0,.6-.2,1.5,1.5,0,0,0,.2-.8v-2.1a4.9,4.9,0,0,1,.2-1.5,1,1,0,0,1,.4-.5l.6-.2.6.2c.2.2.2.4.3.6v3.5a1.5,1.5,0,0,0,.2.8.8.8,0,0,0,.7.2.7.7,0,0,0,.6-.2,1.5,1.5,0,0,0,.2-.8v-3.1a4.1,4.1,0,0,0-.2-1.4A2.7,2.7,0,0,0,323.6,484.5Z" transform="translate(-124.1 -69.7)"/><path class="cls-11" d="M245.3,487.2h0Z" transform="translate(-124.1 -69.7)"/><path class="cls-11" d="M245.4,487.7h0a.9.9,0,0,1-.1-.5A.9.9,0,0,0,245.4,487.7Z" transform="translate(-124.1 -69.7)"/><path class="cls-11" d="M245.9,489.2Z" transform="translate(-124.1 -69.7)"/><path class="cls-11" d="M245.8,489.1h0Z" transform="translate(-124.1 -69.7)"/><path class="cls-11" d="M245.5,488.3l.3.7-.3-.7Z" transform="translate(-124.1 -69.7)"/><path class="cls-11" d="M250.7,480.4v-.3a.6.6,0,0,0,.5-.6.7.7,0,0,0-.7-.7.7.7,0,0,0-.6.7.6.6,0,0,0,.5.6v.3a7.8,7.8,0,0,0-1.9.6l.2.4,1.6-.4h2v-.5A5,5,0,0,0,250.7,480.4Z" transform="translate(-124.1 -69.7)"/><path class="cls-11" d="M245.5,482.9a3.4,3.4,0,0,0-.9,1.3h-.1l-.5-.2h-.2v-.2c0-.3-.2-.4-.5-.4a.4.4,0,0,0-.4.4.4.4,0,0,0,.4.4h.1l.6.2c.1,0,.2,0,.2.1a.4.4,0,0,1,.1.3h0a6.9,6.9,0,0,0-.2,1.6h.7a6.8,6.8,0,0,1,.2-1.4,11.1,11.1,0,0,1,.8-1.5h.1l-.2-.2Z" transform="translate(-124.1 -69.7)"/><path class="cls-11" d="M257.3,481.5a.4.4,0,0,0-.4.4h0a.8.8,0,0,0-.2.5c0,.2-.1.2-.1.3h-.2a4.8,4.8,0,0,0-1.1-1.1l-.5.5a4.3,4.3,0,0,1,1.1,1.2,5.4,5.4,0,0,1,.7,1.3l.7-.3-.7-1.4h.2a.7.7,0,0,0,.1-.5c0-.1.1-.2.1-.3h.3a.4.4,0,0,0,.4-.4A.4.4,0,0,0,257.3,481.5Z" transform="translate(-124.1 -69.7)"/><path class="cls-11" d="M255.6,487.3a15.5,15.5,0,0,1-4.2,1.2l-2.1.2-2.3-.2-1.5-.2.3.7h.1a3.1,3.1,0,0,0,.7.9,3.8,3.8,0,0,0,1.8,1.2h0a6.5,6.5,0,0,0,2.1.3,8.5,8.5,0,0,0,3.5-.8,6.1,6.1,0,0,0,2.1-1.6,4.7,4.7,0,0,0,.6-1.5,3.4,3.4,0,0,0,.1-1.1Z" transform="translate(-124.1 -69.7)"/><path class="cls-11" d="M252.3,481.4h-1.8l-1.6.3a6.7,6.7,0,0,0-2.2,1.3h-.1c0,.1-.2.3-.4.6s-.4.5-.7,1.4a4,4,0,0,0-.3,1.5h0a1.3,1.3,0,0,0,.1.6h0a.9.9,0,0,0,.1.5,16.9,16.9,0,0,0,5.9.3,15.8,15.8,0,0,0,4.1-1.2l1.3-.8a9.5,9.5,0,0,0-1.1-2.3A4.8,4.8,0,0,0,252.3,481.4Zm-3.6,5.2a1.8,1.8,0,0,1-1.8-1.7,1.8,1.8,0,0,1,1.8-1.8,1.7,1.7,0,0,1,1.7,1.8A1.7,1.7,0,0,1,248.7,486.6Zm5.1-1.3a1.1,1.1,0,0,1-1.1-1.1,1.1,1.1,0,0,1,2.2,0A1.1,1.1,0,0,1,253.8,485.3Z" transform="translate(-124.1 -69.7)"/><path class="cls-11" d="M836.6,479.8a.6.6,0,0,0-.6.3,1.5,1.5,0,0,0-.2.8v2.3l-.9-.7-1.2-.2a2.8,2.8,0,0,0-2,.8,3.6,3.6,0,0,0-.7,2.4,2.7,2.7,0,0,0,.2,1.3,3.7,3.7,0,0,0,.5,1.1,3.1,3.1,0,0,0,.9.7,1.8,1.8,0,0,0,1,.2h.9l.6-.3.7-.6h0a1.4,1.4,0,0,0,.2.7c.1.2.3.2.6.2s.4,0,.5-.2a1.2,1.2,0,0,0,.2-.7v-7.1c0-.3,0-.6-.2-.7A.5.5,0,0,0,836.6,479.8Zm-1.1,6.9a2,2,0,0,1-.6.7l-.8.2-.7-.2a1.3,1.3,0,0,1-.6-.7,3.7,3.7,0,0,1-.2-1.2,4.3,4.3,0,0,1,.2-1.1,1.8,1.8,0,0,1,.5-.7l.8-.2.8.2a2,2,0,0,1,.6.7,3.6,3.6,0,0,1,.2,1.1A3.7,3.7,0,0,1,835.5,486.7Z" transform="translate(-124.1 -69.7)"/><path class="cls-11" d="M843.9,485.8a.8.8,0,0,0,.4-.8,2,2,0,0,0-.4-1.3,2.6,2.6,0,0,0-1-1.1,3.8,3.8,0,0,0-1.6-.4,2.8,2.8,0,0,0-1.3.3,2.6,2.6,0,0,0-1.1.7,4.4,4.4,0,0,0-.6,1,5.9,5.9,0,0,0-.2,1.3,3.3,3.3,0,0,0,.9,2.5,3.6,3.6,0,0,0,2.4.8h1.2l.9-.5.5-.5a1.4,1.4,0,0,0,.2-.6c0-.1-.1-.3-.2-.3l-.4-.2h-.3l-.5.5-.4.3-.5.2h-.5l-.8-.2a1.3,1.3,0,0,1-.6-.7,1.5,1.5,0,0,1-.2-.9h3.1A2.2,2.2,0,0,0,843.9,485.8Zm-4.1-.8a2.1,2.1,0,0,1,.4-1.2,1.3,1.3,0,0,1,1-.4,1.4,1.4,0,0,1,1.1.4,2.1,2.1,0,0,1,.4,1.2Z" transform="translate(-124.1 -69.7)"/><path class="cls-11" d="M849.3,485.3l-1.2-.4-1-.3-.6-.2a.8.8,0,0,1-.2-.5.5.5,0,0,1,.3-.4l.7-.2h.7l.5.4.4.4.4.2.5-.2a.8.8,0,0,0,.2-.5l-.2-.5c-.1-.2-.3-.3-.5-.5l-.8-.3h-1.2a2.7,2.7,0,0,0-1.3.2,2.2,2.2,0,0,0-.9.7,1.6,1.6,0,0,0-.3.9,1.2,1.2,0,0,0,.3.9,1.8,1.8,0,0,0,.9.6l1.3.5a2.3,2.3,0,0,1,1.1.4.6.6,0,0,1,.3.6c0,.2-.1.3-.3.5l-.8.2-.9-.2a1.3,1.3,0,0,1-.6-.7l-.3-.3h-.4c-.2,0-.3,0-.4.2s-.2.2-.2.4a1.3,1.3,0,0,0,.3.8,2.2,2.2,0,0,0,.9.7,5.7,5.7,0,0,0,3,0,2,2,0,0,0,1-.7,2.1,2.1,0,0,0,.3-1.2,2.4,2.4,0,0,0-.2-.8A2.8,2.8,0,0,0,849.3,485.3Z" transform="translate(-124.1 -69.7)"/><path class="cls-11" d="M852,482.3c-.3,0-.5,0-.6.2a.8.8,0,0,0-.2.7v4.7a.8.8,0,0,0,.2.7c.1.2.3.2.6.2s.4,0,.5-.2a.9.9,0,0,0,.3-.7v-4.7a.9.9,0,0,0-.3-.7C852.4,482.3,852.2,482.3,852,482.3Z" transform="translate(-124.1 -69.7)"/><path class="cls-11" d="M852,479.9l-.6.2a.7.7,0,0,0-.2.6c0,.3,0,.5.2.6l.6.2.5-.2a.6.6,0,0,0,.3-.6.9.9,0,0,0-.3-.6Z" transform="translate(-124.1 -69.7)"/><path class="cls-11" d="M859.1,482.3c-.2,0-.4,0-.5.2s-.2.4-.2.6v.3a4.1,4.1,0,0,0-1-.9l-1.2-.2a1.6,1.6,0,0,0-1,.2,1.8,1.8,0,0,0-.9.6l-.6,1a5.1,5.1,0,0,0-.2,1.3,4.7,4.7,0,0,0,.4,1.7,2.7,2.7,0,0,0,.9,1.2,2.3,2.3,0,0,0,1.4.4,2.1,2.1,0,0,0,1.2-.3,3.2,3.2,0,0,0,.9-.8c0,.6-.1.9-.1,1.2a2,2,0,0,1-.1.7,1,1,0,0,1-.5.4,1.6,1.6,0,0,1-1,.2h-.5l-.5-.2-.3-.3-.2-.3a.9.9,0,0,0-.7-.3.4.4,0,0,0-.4.2c-.2.1-.2.2-.2.4a1.1,1.1,0,0,0,.3.8,2.1,2.1,0,0,0,1,.6,4,4,0,0,0,1.5.3l1.6-.2a2,2,0,0,0,.9-.6,2.1,2.1,0,0,0,.6-1,4.4,4.4,0,0,0,.2-1.3v-4.8a1.9,1.9,0,0,0-.2-.8A.6.6,0,0,0,859.1,482.3Zm-1,4.3-.6.7-.8.2a1.6,1.6,0,0,1-1.1-.5,2.1,2.1,0,0,1-.4-1.5,2.2,2.2,0,0,1,.4-1.5,1.2,1.2,0,0,1,1.1-.5,1.7,1.7,0,0,1,1.2.5,3.4,3.4,0,0,1,.4,1.6A3,3,0,0,1,858.1,486.6Z" transform="translate(-124.1 -69.7)"/><path class="cls-11" d="M866.4,483.3a1.8,1.8,0,0,0-.7-.8l-1.2-.2a2,2,0,0,0-1.1.2,2.8,2.8,0,0,0-1,.9v-.2a.7.7,0,0,0-.1-.5c0-.2-.1-.3-.2-.3h-.4c-.3,0-.4,0-.6.2a1.2,1.2,0,0,0-.2.7v4.7a.9.9,0,0,0,.3.7c.1.2.3.2.5.2s.5,0,.6-.2a.8.8,0,0,0,.2-.7v-2.1a3.5,3.5,0,0,1,.2-1.3c.1-.3.2-.6.5-.7a1.1,1.1,0,0,1,.8-.3,1.3,1.3,0,0,1,.9.4,3.9,3.9,0,0,1,.2,1.3v2.7a1.4,1.4,0,0,0,.2.7,1,1,0,0,0,1.2,0,1.4,1.4,0,0,0,.2-.7V484C866.6,483.7,866.6,483.5,866.4,483.3Z" transform="translate(-124.1 -69.7)"/><path class="cls-11" d="M873.3,485.8a1,1,0,0,0,.3-.8,2.8,2.8,0,0,0-.3-1.3,3.5,3.5,0,0,0-1-1.1,4.2,4.2,0,0,0-1.6-.4,3.2,3.2,0,0,0-1.4.3,2.3,2.3,0,0,0-1,.7,1.7,1.7,0,0,0-.6,1,3,3,0,0,0-.2,1.3,2.9,2.9,0,0,0,3.3,3.3H872l.9-.5.5-.5a1.3,1.3,0,0,0,.1-.6c0-.1,0-.3-.1-.3a.5.5,0,0,0-.4-.2h-.4l-.5.5-.4.3-.4.2h-.6l-.8-.2a1.8,1.8,0,0,1-.5-.7,1.6,1.6,0,0,1-.3-.9h3.2Zm-4.2-.8a2.2,2.2,0,0,1,.5-1.2,1.3,1.3,0,0,1,1-.4,1.2,1.2,0,0,1,1,.4,2.2,2.2,0,0,1,.5,1.2Z" transform="translate(-124.1 -69.7)"/><path class="cls-11" d="M879.7,479.8a.6.6,0,0,0-.6.3,1.5,1.5,0,0,0-.2.8v2.3l-.9-.7-1.2-.2a2.8,2.8,0,0,0-2,.8,3.6,3.6,0,0,0-.7,2.4,5.1,5.1,0,0,0,.2,1.3,3.7,3.7,0,0,0,.5,1.1l.9.7a2,2,0,0,0,1.1.2h.8l.7-.3.6-.6h0a1.4,1.4,0,0,0,.2.7.7.7,0,0,0,.6.2c.2,0,.4,0,.5-.2s.2-.4.2-.7v-7.1c0-.3,0-.6-.2-.7A.5.5,0,0,0,879.7,479.8Zm-1.1,6.9a1.3,1.3,0,0,1-.6.7l-.7.2-.8-.2a2,2,0,0,1-.6-.7,3.7,3.7,0,0,1-.2-1.2,4.3,4.3,0,0,1,.2-1.1,1.3,1.3,0,0,1,.6-.7l.8-.2.7.2a1.3,1.3,0,0,1,.6.7,3.6,3.6,0,0,1,.2,1.1A3.7,3.7,0,0,1,878.6,486.7Z" transform="translate(-124.1 -69.7)"/><path class="cls-11" d="M889.1,482.7a2.6,2.6,0,0,0-1.5-.4l-1.1.2-1,.7v-2.4a.8.8,0,0,0-.2-.7.5.5,0,0,0-.5-.3.6.6,0,0,0-.6.3,1.4,1.4,0,0,0-.2.7v7.1a1.2,1.2,0,0,0,.2.7c.1.2.3.2.6.2s.4,0,.5-.2.2-.4.2-.7h0l.5.4.4.3.5.3h.7a2,2,0,0,0,1.1-.2,2.2,2.2,0,0,0,.9-.7,3.7,3.7,0,0,0,.5-1.1,2.7,2.7,0,0,0,.2-1.3,4,4,0,0,0-.3-1.7A2,2,0,0,0,889.1,482.7Zm-.8,4.4a1.6,1.6,0,0,1-1.1.5,1.7,1.7,0,0,1-1.2-.5,3.3,3.3,0,0,1-.4-1.5,3.1,3.1,0,0,1,.2-1.1,1.7,1.7,0,0,1,.6-.8l.8-.2.8.2a1.8,1.8,0,0,1,.5.7,3.6,3.6,0,0,1,.2,1.1A2.5,2.5,0,0,1,888.3,487.1Z" transform="translate(-124.1 -69.7)"/><path class="cls-11" d="M896,482.4h-.8l-.2.4-.3.7-1.3,3.7-1.4-4-.3-.6c-.1-.2-.3-.2-.5-.2h-.4l-.3.3a.4.4,0,0,0-.1.3,2.5,2.5,0,0,0,.2.7l2,5-.2.3a1.6,1.6,0,0,1-.3.6c0,.2-.1.3-.2.3h-1l-.5.2a.5.5,0,0,0-.2.4.5.5,0,0,0,.4.6l1,.2a2.1,2.1,0,0,0,1.2-.3,1.3,1.3,0,0,0,.7-.6,7.3,7.3,0,0,0,.5-1.2l2.1-5.5c.1-.1.1-.3.2-.4s0-.3.1-.3-.1-.3-.1-.4Z" transform="translate(-124.1 -69.7)"/><path class="cls-11" d="M918.4,479.8l-1.3.2a1.3,1.3,0,0,0-.6.7,3.7,3.7,0,0,0-.2,1.2v.5h-.4c-.5,0-.8.2-.8.6a.5.5,0,0,0,.2.4l.5.2h.5v4.3a1.4,1.4,0,0,0,.2.7,1,1,0,0,0,1.2,0,1.4,1.4,0,0,0,.2-.7v-4.3H919c.2-.1.2-.3.2-.5s-.3-.6-.9-.6h-.4V482a5.6,5.6,0,0,1,.1-.7.6.6,0,0,1,.6-.3h.7a.5.5,0,0,0,.4-.2c.1-.1.1-.2.1-.4S919.3,479.8,918.4,479.8Z" transform="translate(-124.1 -69.7)"/><path class="cls-11" d="M923.6,482.5a2,2,0,0,0-1-.2,1.3,1.3,0,0,0-.9.2,1.6,1.6,0,0,0-.5.8,4.5,4.5,0,0,0-.2-.8.7.7,0,0,0-.6-.2c-.6,0-.8.3-.8,1v4.6a1.4,1.4,0,0,0,.2.7,1,1,0,0,0,1.2,0,1.4,1.4,0,0,0,.2-.7v-1.4a4.1,4.1,0,0,1,.1-1.2,2.2,2.2,0,0,1,.1-.9,1.3,1.3,0,0,1,.4-.6h1.6a.5.5,0,0,0,.4-.2c.2-.1.2-.3.2-.5A.8.8,0,0,0,923.6,482.5Z" transform="translate(-124.1 -69.7)"/><path class="cls-11" d="M929.6,485.8a.8.8,0,0,0,.4-.8,2.8,2.8,0,0,0-.3-1.3,3.8,3.8,0,0,0-1.1-1.1,3.8,3.8,0,0,0-1.6-.4,2.8,2.8,0,0,0-1.3.3,1.8,1.8,0,0,0-1,.7,2.6,2.6,0,0,0-.7,1,5.9,5.9,0,0,0-.2,1.3,3.3,3.3,0,0,0,.9,2.5,3.6,3.6,0,0,0,2.4.8h1.2l.9-.5.5-.5a1.4,1.4,0,0,0,.2-.6c0-.1-.1-.3-.2-.3a.5.5,0,0,0-.4-.2H929l-.5.5-.4.3-.5.2h-.5l-.8-.2a2,2,0,0,1-.6-.7,3,3,0,0,1-.2-1h4.1Zm-4.1-.8a1.7,1.7,0,0,1,.5-1.2,1.2,1.2,0,0,1,1-.4,1.3,1.3,0,0,1,1,.4,2.1,2.1,0,0,1,.4,1.2Z" transform="translate(-124.1 -69.7)"/><path class="cls-11" d="M936.4,485.8a1,1,0,0,0,.3-.8,2.8,2.8,0,0,0-.3-1.3,3.5,3.5,0,0,0-1-1.1,4.3,4.3,0,0,0-1.7-.4,3.1,3.1,0,0,0-1.3.3,2.3,2.3,0,0,0-1,.7,1.7,1.7,0,0,0-.6,1,3,3,0,0,0-.2,1.3,2.9,2.9,0,0,0,3.3,3.3h1.2l.8-.5c.3-.2.5-.3.6-.5a1.3,1.3,0,0,0,.1-.6c0-.1,0-.3-.1-.3l-.4-.2h-.4l-.5.5-.4.3-.5.2h-.5l-.8-.2a1.8,1.8,0,0,1-.5-.7,1.7,1.7,0,0,1-.3-1h4.2Zm-4.2-.8a2.2,2.2,0,0,1,.5-1.2,1.3,1.3,0,0,1,1-.4,1.2,1.2,0,0,1,1,.4,2.2,2.2,0,0,1,.5,1.2Z" transform="translate(-124.1 -69.7)"/><path class="cls-11" d="M942.4,482.7a2.3,2.3,0,0,0-1.4-.4l-1.1.2-1,.9v-.2c0-.3,0-.6-.2-.7s-.3-.2-.5-.2-.4,0-.6.2a1.2,1.2,0,0,0-.2.7v7a1.9,1.9,0,0,0,.2.8.6.6,0,0,0,.6.3c.5,0,.7-.4.7-1.1v-2.5l.9.9a2.5,2.5,0,0,0,1.2.2,2,2,0,0,0,1.1-.2l.9-.6a3.7,3.7,0,0,0,.5-1.1,3.2,3.2,0,0,0,.3-1.4,4.7,4.7,0,0,0-.4-1.7A2.7,2.7,0,0,0,942.4,482.7Zm-.5,4a1.8,1.8,0,0,1-.5.7l-.8.2a1.6,1.6,0,0,1-1.1-.5,2.5,2.5,0,0,1-.5-1.5,2.3,2.3,0,0,1,.5-1.6,1.3,1.3,0,0,1,1.1-.5l.8.2a1.8,1.8,0,0,1,.5.7,2,2,0,0,1,.2,1.1A2.3,2.3,0,0,1,941.9,486.7Z" transform="translate(-124.1 -69.7)"/><path class="cls-11" d="M945.4,482.3c-.3,0-.5,0-.6.2a.8.8,0,0,0-.2.7v4.7a.8.8,0,0,0,.2.7c.1.2.3.2.6.2a.7.7,0,0,0,.6-.2,1.4,1.4,0,0,0,.2-.7v-4.7a1.4,1.4,0,0,0-.2-.7A.7.7,0,0,0,945.4,482.3Z" transform="translate(-124.1 -69.7)"/><path class="cls-11" d="M945.4,479.9l-.6.2a.7.7,0,0,0-.2.6c0,.3,0,.5.2.6l.6.2.6-.2a.8.8,0,0,0,.2-.6.7.7,0,0,0-.3-.6Z" transform="translate(-124.1 -69.7)"/><path class="cls-11" d="M952.7,487.3l-1.6-2.6.8-.8c.5-.4.7-.7.7-1s-.1-.3-.2-.5h-1l-.5.5-1.8,1.9v-3.9a1.5,1.5,0,0,0-.2-.8.9.9,0,0,0-.6-.3.6.6,0,0,0-.6.3,1.9,1.9,0,0,0-.2.8v7a1.4,1.4,0,0,0,.2.7c.1.2.3.2.6.2a.7.7,0,0,0,.6-.2,1.4,1.4,0,0,0,.2-.7v-1.3l.9-.8,1.4,2.3.4.6h.5a.7.7,0,0,0,.6-.2.8.8,0,0,0,.2-.6c0-.1-.1-.2-.1-.3Z" transform="translate(-124.1 -69.7)"/><path class="cls-11" d="M954.9,487.1a.7.7,0,0,0-.6.2.9.9,0,0,0-.3.6.8.8,0,0,0,.3.7.7.7,0,0,0,.6.2.8.8,0,0,0,.7-.2,1.4,1.4,0,0,0,.2-.7,1.4,1.4,0,0,0-.2-.6A.8.8,0,0,0,954.9,487.1Z" transform="translate(-124.1 -69.7)"/><path class="cls-11" d="M962.3,486.1l-.4.2-.3.4a1.6,1.6,0,0,1-.7.7,1.1,1.1,0,0,1-.8.2h-.7l-.5-.4-.3-.7a1.9,1.9,0,0,1-.1-.8,2.1,2.1,0,0,1,.4-1.5,1.4,1.4,0,0,1,1.2-.6l.8.2.6.7.3.3h.4a.6.6,0,0,0,.5-.2.8.8,0,0,0,.2-.5,1.4,1.4,0,0,0-.2-.6l-.5-.6-.9-.5-1.2-.2a3.1,3.1,0,0,0-1.7.5,2,2,0,0,0-1.1,1.1,3.7,3.7,0,0,0-.4,1.8,3.2,3.2,0,0,0,.8,2.4,3.5,3.5,0,0,0,2.4.8,2.5,2.5,0,0,0,1.2-.2,3.1,3.1,0,0,0,1-.5l.5-.6a1.9,1.9,0,0,0,.2-.7.8.8,0,0,0-.2-.4A.5.5,0,0,0,962.3,486.1Z" transform="translate(-124.1 -69.7)"/><path class="cls-11" d="M969.1,483.2l-1-.7a3,3,0,0,0-1.3-.2,3.2,3.2,0,0,0-1.4.2,2.3,2.3,0,0,0-1,.7,1.7,1.7,0,0,0-.6,1,3.2,3.2,0,0,0-.3,1.4,3.1,3.1,0,0,0,.3,1.3,2.1,2.1,0,0,0,.6,1,2.3,2.3,0,0,0,1,.7,3.2,3.2,0,0,0,1.4.2,3,3,0,0,0,1.3-.2,2.3,2.3,0,0,0,1-.7,3.6,3.6,0,0,0,.7-1,4.7,4.7,0,0,0,0-2.7A3.6,3.6,0,0,0,969.1,483.2Zm-1.2,3.9a1.3,1.3,0,0,1-1.1.5c-.4,0-.7,0-.9-.2a1.8,1.8,0,0,1-.5-.7,3.4,3.4,0,0,1,0-2.3,1.8,1.8,0,0,1,.5-.7,1.3,1.3,0,0,1,.9-.2,1.3,1.3,0,0,1,1.1.5,2.5,2.5,0,0,1,.5,1.6A2.5,2.5,0,0,1,967.9,487.1Z" transform="translate(-124.1 -69.7)"/><path class="cls-11" d="M979,482.5l-1.1-.2a1.6,1.6,0,0,0-1,.2,2.2,2.2,0,0,0-.9.7,2.7,2.7,0,0,0-.8-.7,1.5,1.5,0,0,0-1-.2,2,2,0,0,0-1.1.2l-.9.7h0c0-.3,0-.5-.2-.6s-.3-.2-.6-.2-.4,0-.5.2a1.4,1.4,0,0,0-.2.7v4.6a1.5,1.5,0,0,0,.2.8.7.7,0,0,0,.6.2c.3,0,.5,0,.6-.2s.2-.4.2-.8v-2.2a3.1,3.1,0,0,1,.3-1.5,1,1,0,0,1,1-.6l.6.2c.2.2.2.4.3.6v3.5a1.5,1.5,0,0,0,.2.8.7.7,0,0,0,.6.2c.3,0,.5,0,.6-.2a1,1,0,0,0,.3-.8v-2.1a5.8,5.8,0,0,1,.1-1.5l.5-.5.6-.2a.8.8,0,0,1,.6.2,1.4,1.4,0,0,1,.2.6,1.7,1.7,0,0,1,.1.8v2.7a1.5,1.5,0,0,0,.2.8.7.7,0,0,0,.6.2c.3,0,.5,0,.6-.2a1,1,0,0,0,.3-.8v-3.1a4.1,4.1,0,0,0-.2-1.4A2,2,0,0,0,979,482.5Z" transform="translate(-124.1 -69.7)"/><path class="cls-11" d="M900.7,485.2h0Z" transform="translate(-124.1 -69.7)"/><path class="cls-11" d="M900.8,485.7h0v0Z" transform="translate(-124.1 -69.7)"/><path class="cls-11" d="M901.4,487.2h0Z" transform="translate(-124.1 -69.7)"/><path class="cls-11" d="M901.3,487.1h0Z" transform="translate(-124.1 -69.7)"/><path class="cls-11" d="M901,486.3a3.6,3.6,0,0,0,.3.7,3.6,3.6,0,0,1-.3-.7Z" transform="translate(-124.1 -69.7)"/><path class="cls-11" d="M906.2,478.4v-.3a.6.6,0,0,0,.6-.6.7.7,0,0,0-1.4,0,.6.6,0,0,0,.6.6v.3a8,8,0,0,0-1.8.6v.4l1.7-.4h1.9v-.5A5,5,0,0,0,906.2,478.4Z" transform="translate(-124.1 -69.7)"/><path class="cls-11" d="M900.9,480.9a5.5,5.5,0,0,0-.9,1.3h0l-.5-.2h-.3c.1,0,.1-.1.1-.2a.4.4,0,0,0-.8,0,.4.4,0,0,0,.4.4h.1l.5.2h.3a.4.4,0,0,1,.1.3h0a3.7,3.7,0,0,0-.2,1.6h.7a3.4,3.4,0,0,1,.2-1.4,6.9,6.9,0,0,1,.7-1.5h.1l-.2-.2Z" transform="translate(-124.1 -69.7)"/><path class="cls-11" d="M912.8,479.5a.5.5,0,0,0-.5.4c0,.1,0,.1.1.1a.5.5,0,0,0-.3.5v.3h-.2a4.8,4.8,0,0,0-1.1-1.1l-.5.5a6.5,6.5,0,0,1,1.1,1.2c.2.4.5.8.7,1.3l.6-.3-.7-1.4c.1,0,.2,0,.2-.1s.2-.3.2-.5.1-.2.1-.3h.3a.4.4,0,0,0,.4-.4A.4.4,0,0,0,912.8,479.5Z" transform="translate(-124.1 -69.7)"/><path class="cls-11" d="M911.1,485.3a16.8,16.8,0,0,1-4.2,1.2l-2.2.2-2.2-.2-1.5-.2a3.6,3.6,0,0,0,.3.7h.1a2.8,2.8,0,0,0,.6.9,3.9,3.9,0,0,0,1.9,1.2h0a6.2,6.2,0,0,0,2,.3,8.6,8.6,0,0,0,3.6-.8,6.7,6.7,0,0,0,2-1.6,10.1,10.1,0,0,0,.7-1.5c0-.2.1-.7.1-1.1Z" transform="translate(-124.1 -69.7)"/><path class="cls-11" d="M907.8,479.4h-1.9l-1.6.3a8,8,0,0,0-2.2,1.3h0l-.5.6a4.9,4.9,0,0,0-.7,1.4,5.8,5.8,0,0,0-.2,1.5h0v.6h.1v.5a17.9,17.9,0,0,0,6,.3,17.1,17.1,0,0,0,4.1-1.2l1.3-.8a15.8,15.8,0,0,0-1.1-2.3A5,5,0,0,0,907.8,479.4Zm-3.7,5.2a1.8,1.8,0,0,1-1.7-1.7,1.8,1.8,0,0,1,1.7-1.8,1.8,1.8,0,0,1,1.8,1.8A1.8,1.8,0,0,1,904.1,484.6Zm5.2-1.3a1.1,1.1,0,0,1-1.1-1.1,1.1,1.1,0,0,1,2.2,0A1.1,1.1,0,0,1,909.3,483.3Z" transform="translate(-124.1 -69.7)"/></g></g></svg>