<svg width="1267" height="917" viewBox="0 0 1267 917" fill="none" xmlns="http://www.w3.org/2000/svg">
<g clip-path="url(#clip0_2072_18738)">
<path fill-rule="evenodd" clip-rule="evenodd" d="M0.0911636 -17.5579L-25.3177 139.486C-35.6739 313.016 -12.8923 426.91 27.3472 504.358C33.9174 579.163 133.28 645.543 285.377 689.081C456.171 744.904 634.978 752.846 792.504 740.69C979.452 732.645 1143.22 697.44 1252.47 646.353C1262.27 642.928 1267.47 640.942 1267.47 640.942V844.442H591.733H-84V-17.5579H0.0911636Z" fill="#FDC251"/>
<path fill-rule="evenodd" clip-rule="evenodd" d="M0.0622253 -47V268.942C0.0622253 401.736 19.8463 486.495 50.7755 543.509C59.5948 566.13 76.8208 587.759 101.258 607.959C129.363 633.045 161.034 648.964 193.167 663.001C201.732 666.878 210.612 670.659 219.793 674.337C224.206 676.197 228.611 678.059 233 679.942C256.661 690.094 283.178 698.376 311.941 705.023C424.4 736.049 564.333 754.442 716 754.442C944.015 754.442 1145.51 712.87 1267 649.302V868.442H591.5H-84V-47H0.0622253Z" fill="#4EACB7"/>
<rect x="-2" y="868" width="1269" height="168" fill="#4EACB7"/>
</g>
<defs>
<clipPath id="clip0_2072_18738">
<rect width="1267" height="917" fill="white"/>
</clipPath>
</defs>
</svg>
