<svg width="1267" height="821" viewBox="0 0 1267 821" fill="none" xmlns="http://www.w3.org/2000/svg">
<g clip-path="url(#clip0_2072_18738)">
<path fill-rule="evenodd" clip-rule="evenodd" d="M0.0911636 31L-25.3177 188.044C-35.6739 361.574 -12.8923 475.467 27.3472 552.916C33.9174 627.721 133.28 694.101 285.377 737.638C456.171 793.462 634.978 801.404 792.504 789.248C979.452 781.203 1143.22 745.998 1252.47 694.911C1262.27 691.486 1267.47 689.5 1267.47 689.5V893H591.733H-84V31H0.0911636Z" fill="#FDC251"/>
<path fill-rule="evenodd" clip-rule="evenodd" d="M0.0622253 1.55786V317.5C0.0622253 450.293 19.8463 535.053 50.7755 592.067C59.5948 614.688 76.8208 636.317 101.258 656.517C129.363 681.603 161.034 697.522 193.167 711.559C201.732 715.436 210.612 719.217 219.793 722.895C224.206 724.755 228.611 726.617 233 728.5C256.661 738.651 283.178 746.934 311.941 753.581C424.4 784.607 564.333 803 716 803C944.015 803 1145.51 761.428 1267 697.86V917H591.5H-84V1.55786H0.0622253Z" fill="#4EACB7"/>
</g>
<defs>
<clipPath id="clip0_2072_18738">
<rect width="1267" height="821" fill="white"/>
</clipPath>
</defs>
</svg>
