<svg width="62" height="21" viewBox="0 0 62 21" fill="none" xmlns="http://www.w3.org/2000/svg">
<mask id="path-1-inside-1_2230_21833" fill="white">
<path fill-rule="evenodd" clip-rule="evenodd" d="M6 0C4.89543 0 4 0.89543 4 2V7.9208L0 11L4 14.0792V19C4 20.1046 4.89543 21 6 21H60C61.1046 21 62 20.1046 62 19V2C62 0.895431 61.1046 0 60 0H6Z"/>
</mask>
<path fill-rule="evenodd" clip-rule="evenodd" d="M6 0C4.89543 0 4 0.89543 4 2V7.9208L0 11L4 14.0792V19C4 20.1046 4.89543 21 6 21H60C61.1046 21 62 20.1046 62 19V2C62 0.895431 61.1046 0 60 0H6Z" fill="white"/>
<path d="M4 7.9208L4.60999 8.71321L5 8.41298V7.9208H4ZM0 11L-0.609994 10.2076L-1.63936 11L-0.609994 11.7924L0 11ZM4 14.0792H5V13.587L4.60999 13.2868L4 14.0792ZM5 2C5 1.44772 5.44772 1 6 1V-1C4.34315 -1 3 0.343146 3 2H5ZM5 7.9208V2H3V7.9208H5ZM0.609994 11.7924L4.60999 8.71321L3.39001 7.12839L-0.609994 10.2076L0.609994 11.7924ZM4.60999 13.2868L0.609994 10.2076L-0.609994 11.7924L3.39001 14.8716L4.60999 13.2868ZM5 19V14.0792H3V19H5ZM6 20C5.44772 20 5 19.5523 5 19H3C3 20.6569 4.34315 22 6 22V20ZM60 20H6V22H60V20ZM61 19C61 19.5523 60.5523 20 60 20V22C61.6569 22 63 20.6569 63 19H61ZM61 2V19H63V2H61ZM60 1C60.5523 1 61 1.44772 61 2H63C63 0.343146 61.6569 -1 60 -1V1ZM6 1H60V-1H6V1Z" fill="#245D68" mask="url(#path-1-inside-1_2230_21833)"/>
</svg>
