<svg id="tree" xmlns="http://www.w3.org/2000/svg" viewBox="0 0 977.66 611.58"><defs><style>.cls-1{fill:#66441c;}.cls-2{fill:#6c883e;}.cls-3{fill:#7caa48;}.cls-4{fill:#ccda9c;}</style></defs><path class="cls-1" d="M1046.49,284.35h3.76l1.57,33h-7.37Z" transform="translate(-91.77 -5.25)"/><path class="cls-2" d="M1069.44,263.83c0,14.49-9.64,26.16-21.54,26.16s-21.54-11.75-21.54-26.16,9.64-26.16,21.54-26.16S1069.44,249.42,1069.44,263.83Z" transform="translate(-91.77 -5.25)"/><path class="cls-1" d="M1025.11,324.1h3.21l1.33,28.27h-6.26Z" transform="translate(-91.77 -5.25)"/><path class="cls-3" d="M1044.77,306.56c0,12.37-8.23,22.39-18.41,22.39s-18.4-10-18.4-22.39,8.22-22.4,18.4-22.4S1044.77,294.18,1044.77,306.56Z" transform="translate(-91.77 -5.25)"/><path class="cls-1" d="M915.23,404.08h3.21l1.33,28.28h-6.26Z" transform="translate(-91.77 -5.25)"/><path class="cls-3" d="M934.89,386.54c0,12.37-8.22,22.4-18.41,22.4s-18.4-10-18.4-22.4,8.22-22.4,18.4-22.4S934.89,374.17,934.89,386.54Z" transform="translate(-91.77 -5.25)"/><path class="cls-1" d="M885,455.48h3.22l1.33,28.27h-6.27Z" transform="translate(-91.77 -5.25)"/><path class="cls-3" d="M904.62,437.93c0,12.38-8.22,22.4-18.4,22.4s-18.41-10-18.41-22.4,8.23-22.4,18.41-22.4S904.62,425.56,904.62,437.93Z" transform="translate(-91.77 -5.25)"/><path class="cls-1" d="M293.45,92.61h2.36l1,20.5h-4.53Z" transform="translate(-91.77 -5.25)"/><path class="cls-4" d="M307.78,79.85c0,9-6,16.27-13.37,16.27s-13.36-7.26-13.36-16.27,6-16.26,13.36-16.26S307.78,70.9,307.78,79.85Z" transform="translate(-91.77 -5.25)"/><path class="cls-1" d="M950.25,59.65h2.8l1.1,24.4h-5.4Z" transform="translate(-91.77 -5.25)"/><path class="cls-4" d="M967.25,44.55c0,10.7-7.1,19.4-15.9,19.4s-15.9-8.7-15.9-19.4,7.1-19.4,15.9-19.4S967.25,33.85,967.25,44.55Z" transform="translate(-91.77 -5.25)"/><path class="cls-1" d="M1011,160.89h3.8l1.5,33H1009Z" transform="translate(-91.77 -5.25)"/><path class="cls-4" d="M1034,140.39c0,14.5-9.6,26.2-21.5,26.2s-21.5-11.8-21.5-26.2,9.6-26.2,21.5-26.2S1034,125.89,1034,140.39Z" transform="translate(-91.77 -5.25)"/><path class="cls-1" d="M213,581.54h3.8l1.6,34H211Z" transform="translate(-91.77 -5.25)"/><path class="cls-4" d="M236.24,560.34c0,14.9-9.7,26.9-21.8,26.9s-21.8-12.1-21.8-26.9,9.7-26.9,21.8-26.9S236.24,545.54,236.24,560.34Z" transform="translate(-91.77 -5.25)"/><path class="cls-1" d="M712,113.15h2.8l1.1,24.6h-5.5Z" transform="translate(-91.77 -5.25)"/><path class="cls-4" d="M729.23,97.85c0,10.8-7.2,19.5-16.1,19.5s-16.1-8.7-16.1-19.5,7.2-19.5,16.1-19.5S729.23,87.05,729.23,97.85Z" transform="translate(-91.77 -5.25)"/><path class="cls-1" d="M264,105.53h2.71l1.1,23.79h-5.3Z" transform="translate(-91.77 -5.25)"/><path class="cls-3" d="M280.57,90.73c0,10.41-6.91,18.88-15.51,18.88s-15.52-8.47-15.52-18.88,6.92-18.88,15.52-18.88S280.57,80.32,280.57,90.73Z" transform="translate(-91.77 -5.25)"/><path class="cls-1" d="M344.75,55.73h2.17l.88,19h-4.24Z" transform="translate(-91.77 -5.25)"/><path class="cls-3" d="M358,43.9c0,8.32-5.53,15.09-12.4,15.09s-12.4-6.77-12.4-15.09,5.53-15.08,12.4-15.08S358,35.58,358,43.9Z" transform="translate(-91.77 -5.25)"/><path class="cls-1" d="M413.25,62H416l1.1,23.79h-5.3Z" transform="translate(-91.77 -5.25)"/><path class="cls-3" d="M429.8,47.15c0,10.41-6.91,18.87-15.51,18.87s-15.52-8.46-15.52-18.87,6.92-18.88,15.52-18.88S429.8,36.74,429.8,47.15Z" transform="translate(-91.77 -5.25)"/><path class="cls-1" d="M484.85,41.94h2.71l1.1,23.79h-5.3Z" transform="translate(-91.77 -5.25)"/><path class="cls-3" d="M501.4,27.13c0,10.41-6.92,18.88-15.52,18.88s-15.51-8.47-15.51-18.88,6.91-18.87,15.51-18.87S501.4,16.72,501.4,27.13Z" transform="translate(-91.77 -5.25)"/><path class="cls-1" d="M449.55,38.93h2.71l1.1,23.78h-5.3Z" transform="translate(-91.77 -5.25)"/><path class="cls-3" d="M466.1,24.12c0,10.41-6.92,18.88-15.52,18.88s-15.51-8.47-15.51-18.88S442,5.25,450.58,5.25,466.1,13.71,466.1,24.12Z" transform="translate(-91.77 -5.25)"/><path class="cls-1" d="M161.17,556.89H165l1.6,34h-7.4Z" transform="translate(-91.77 -5.25)"/><path class="cls-3" d="M184.47,535.79c0,14.9-9.7,26.9-21.8,26.9s-21.8-12.1-21.8-26.9,9.7-26.9,21.8-26.9S184.47,520.89,184.47,535.79Z" transform="translate(-91.77 -5.25)"/><path class="cls-1" d="M119,560.38h5.1l2.1,44.8h-10Z" transform="translate(-91.77 -5.25)"/><path class="cls-2" d="M150.17,532.58c0,19.6-13.1,35.5-29.2,35.5s-29.2-15.9-29.2-35.5,13.1-35.5,29.2-35.5S150.17,513,150.17,532.58Z" transform="translate(-91.77 -5.25)"/><path class="cls-1" d="M433.81,560.71h4l1.6,34.5h-7.7Z" transform="translate(-91.77 -5.25)"/><path class="cls-2" d="M457.91,539.31c0,15.1-10.1,27.4-22.5,27.4s-22.5-12.3-22.5-27.4,10.1-27.4,22.5-27.4S457.91,524.21,457.91,539.31Z" transform="translate(-91.77 -5.25)"/><path class="cls-1" d="M983.85,76.77h4l1.6,34.5h-7.7Z" transform="translate(-91.77 -5.25)"/><path class="cls-2" d="M1008,55.37c0,15.1-10.1,27.4-22.5,27.4S963,70.47,963,55.37,973.05,28,985.45,28,1008,40.27,1008,55.37Z" transform="translate(-91.77 -5.25)"/><path class="cls-1" d="M665.77,451.48h3.5l1.4,30.4h-6.8Z" transform="translate(-91.77 -5.25)"/><path class="cls-4" d="M687,432.58c0,13.3-8.9,24.1-19.8,24.1s-19.8-10.8-19.8-24.1,8.9-24.1,19.8-24.1S687,419.18,687,432.58Z" transform="translate(-91.77 -5.25)"/><path class="cls-1" d="M565,292.36h2.91L569,317.62h-5.65Z" transform="translate(-91.77 -5.25)"/><path class="cls-4" d="M582.57,276.66c0,11-7.39,20-16.45,20s-16.45-9-16.45-20,7.39-20,16.45-20S582.57,265.52,582.57,276.66Z" transform="translate(-91.77 -5.25)"/><path class="cls-1" d="M695.53,469.88h3.8l1.5,33h-7.3Z" transform="translate(-91.77 -5.25)"/><path class="cls-3" d="M718.53,449.38c0,14.4-9.6,26.1-21.5,26.1s-21.5-11.7-21.5-26.1,9.6-26.1,21.5-26.1S718.53,435,718.53,449.38Z" transform="translate(-91.77 -5.25)"/><path class="cls-1" d="M851.87,513.77h3.33l1.31,28.91h-6.39Z" transform="translate(-91.77 -5.25)"/><path class="cls-3" d="M872,495.82c0,12.61-8.41,22.86-18.83,22.86s-18.84-10.25-18.84-22.86S842.76,473,853.19,473,872,483.21,872,495.82Z" transform="translate(-91.77 -5.25)"/><path class="cls-1" d="M532.81,291.79h3.33l1.31,28.9h-6.39Z" transform="translate(-91.77 -5.25)"/><path class="cls-3" d="M553,273.83c0,12.61-8.41,22.86-18.83,22.86s-18.84-10.25-18.84-22.86S523.7,251,534.13,251,553,261.22,553,273.83Z" transform="translate(-91.77 -5.25)"/><path class="cls-1" d="M622.91,214h3.33l1.31,28.91h-6.39Z" transform="translate(-91.77 -5.25)"/><path class="cls-3" d="M643.06,196c0,12.61-8.41,22.86-18.83,22.86S605.39,208.64,605.39,196s8.41-22.86,18.84-22.86S643.06,183.42,643.06,196Z" transform="translate(-91.77 -5.25)"/><path class="cls-1" d="M179.34,576.42H184l1.91,40.41h-9Z" transform="translate(-91.77 -5.25)"/><path class="cls-2" d="M207.48,551.36c0,17.71-11.76,32-26.31,32s-26.3-14.4-26.3-32,11.76-32,26.3-32S207.48,533.66,207.48,551.36Z" transform="translate(-91.77 -5.25)"/><path class="cls-1" d="M797.28,526h6.3l2.6,55H794Z" transform="translate(-91.77 -5.25)"/><path class="cls-2" d="M835.58,491.85c0,24.1-16,43.6-35.8,43.6s-35.8-19.6-35.8-43.6,16-43.6,35.8-43.6S835.58,467.75,835.58,491.85Z" transform="translate(-91.77 -5.25)"/><path class="cls-1" d="M992.88,355h2.82l1.16,24.61h-5.43Z" transform="translate(-91.77 -5.25)"/><path class="cls-4" d="M1010,339.79c0,10.78-7.18,19.52-16,19.52s-16-8.74-16-19.52,7.18-19.52,16-19.52S1010,329,1010,339.79Z" transform="translate(-91.77 -5.25)"/><path class="cls-1" d="M957.72,384.15h2.81l1.17,24.62h-5.44Z" transform="translate(-91.77 -5.25)"/><path class="cls-4" d="M974.86,368.91c0,10.78-7.19,19.52-16,19.52s-16-8.74-16-19.52,7.19-19.52,16-19.52S974.86,358.13,974.86,368.91Z" transform="translate(-91.77 -5.25)"/><path class="cls-1" d="M990.6,96.67h3.2l1.3,27.9h-6.2Z" transform="translate(-91.77 -5.25)"/><path class="cls-4" d="M1010,79.37c0,12.2-8.1,22.1-18.2,22.1s-18.2-9.9-18.2-22.1,8.1-22.1,18.2-22.1S1010,67.17,1010,79.37Z" transform="translate(-91.77 -5.25)"/><path class="cls-1" d="M980.15,131.89h4l1.6,34.5h-7.7Z" transform="translate(-91.77 -5.25)"/><path class="cls-2" d="M1004.25,110.49c0,15.1-10.1,27.4-22.5,27.4s-22.5-12.3-22.5-27.4,10.1-27.4,22.5-27.4S1004.25,95.39,1004.25,110.49Z" transform="translate(-91.77 -5.25)"/><path class="cls-1" d="M434.59,58.54H437l1,20.5h-4.53Z" transform="translate(-91.77 -5.25)"/><path class="cls-4" d="M448.92,45.78c0,9-6,16.26-13.36,16.26s-13.37-7.25-13.37-16.26,6-16.27,13.37-16.27S448.92,36.83,448.92,45.78Z" transform="translate(-91.77 -5.25)"/></svg>