<svg width="49" height="49" viewBox="0 0 49 49" fill="none" xmlns="http://www.w3.org/2000/svg">
<path d="M13.3533 21.9758C16.2333 27.6358 20.8733 32.2558 26.5333 35.1558L30.9333 30.7558C31.4733 30.2158 32.2733 30.0358 32.9733 30.2758C35.2133 31.0158 37.6333 31.4158 40.1133 31.4158C41.2133 31.4158 42.1133 32.3158 42.1133 33.4158V40.3958C42.1133 41.4958 41.2133 42.3958 40.1133 42.3958C21.3333 42.3958 6.11328 27.1758 6.11328 8.39575C6.11328 7.29575 7.01328 6.39575 8.11328 6.39575H15.1133C16.2133 6.39575 17.1133 7.29575 17.1133 8.39575C17.1133 10.8958 17.5133 13.2958 18.2533 15.5358C18.4733 16.2358 18.3133 17.0158 17.7533 17.5758L13.3533 21.9758Z" fill="#FFFBEF"/>
</svg>
