<svg width="44" height="44" viewBox="0 0 44 44" fill="none" xmlns="http://www.w3.org/2000/svg">
<path d="M32.4711 41.5863H35.4453C36.9503 41.5863 38.1865 40.4396 38.3657 38.9704L41.3219 9.44375H32.3636V2.1875H28.834V9.44375H19.9294L20.4669 13.6363C23.5307 14.4783 26.3974 16.0013 28.1174 17.6854C30.6974 20.2296 32.4711 22.8633 32.4711 27.1633V41.5863ZM1.90527 39.7946V38.0208H28.834V39.7946C28.834 40.78 28.0278 41.5863 27.0244 41.5863H3.71486C2.71152 41.5863 1.90527 40.78 1.90527 39.7946ZM28.834 27.2529C28.834 12.9196 1.90527 12.9196 1.90527 27.2529H28.834ZM1.94111 30.8542H28.8161V34.4375H1.94111V30.8542Z" fill="#FFFBEF"/>
</svg>
