<svg width="162" height="169" viewBox="0 0 162 169" fill="none" xmlns="http://www.w3.org/2000/svg">
<g opacity="0.8">
<path fill-rule="evenodd" clip-rule="evenodd" d="M14.8279 92.2613C18.325 90.2049 22.6309 91.0393 24.4453 94.125C26.2597 97.2106 24.8957 101.379 21.3986 103.435C21.2736 103.509 21.1476 103.579 21.0206 103.645L24.9741 110.368C25.0936 110.29 25.2159 110.213 25.3409 110.14C28.838 108.083 33.1438 108.918 34.9583 112.004C36.7727 115.089 35.4087 119.258 31.9116 121.314C31.7866 121.387 31.6606 121.457 31.5336 121.523L35.4817 128.238L150.948 60.3406L147 53.6266C143.576 55.4109 139.51 54.5287 137.761 51.5534C136.011 48.578 137.217 44.5959 140.441 42.4714L136.487 35.748C133.063 37.5323 128.997 36.6501 127.248 33.6748C125.498 30.6995 126.704 26.7174 129.928 24.5928L125.974 17.8691C122.55 19.6535 118.484 18.7714 116.734 15.796C114.985 12.8206 116.191 8.83845 119.414 6.71394L115.466 0.000128092L6.79021e-05 67.8971L3.94797 74.6109C4.06746 74.5322 4.18972 74.456 4.3147 74.3825C7.81178 72.3261 12.1176 73.1605 13.9321 76.2462C15.7465 79.3319 14.3825 83.5003 10.8854 85.5567C10.7604 85.6302 10.6344 85.7 10.5075 85.7661L14.4611 92.4897C14.5807 92.411 14.7029 92.3348 14.8279 92.2613Z" fill="#FDC251"/>
<path d="M45.4857 107.317C46.4114 106.772 47.6031 107.082 48.1474 108.007C48.6917 108.933 48.3826 110.125 47.4569 110.669C46.5312 111.213 45.3395 110.904 44.7952 109.978C44.2508 109.053 44.56 107.861 45.4857 107.317Z" fill="#FFFBEF"/>
<path d="M40.6673 99.1224C41.593 98.578 42.7847 98.8872 43.3291 99.8129C43.8734 100.739 43.5642 101.93 42.6385 102.475C41.7128 103.019 40.5211 102.71 39.9768 101.784C39.4325 100.858 39.7416 99.6667 40.6673 99.1224Z" fill="#FFFBEF"/>
<path d="M35.849 90.928C36.7747 90.3837 37.9664 90.6928 38.5107 91.6185C39.055 92.5442 38.7459 93.7359 37.8202 94.2803C36.8945 94.8246 35.7028 94.5154 35.1584 93.5897C34.6141 92.664 34.9233 91.4724 35.849 90.928Z" fill="#FFFBEF"/>
<path d="M31.0301 82.7334C31.9558 82.1891 33.1475 82.4983 33.6918 83.424C34.2362 84.3497 33.927 85.5414 33.0013 86.0857C32.0756 86.63 30.8839 86.3209 30.3396 85.3952C29.7953 84.4695 30.1044 83.2778 31.0301 82.7334Z" fill="#FFFBEF"/>
<path d="M26.2118 74.5391C27.1375 73.9948 28.3292 74.3039 28.8735 75.2296C29.4178 76.1553 29.1087 77.347 28.183 77.8914C27.2573 78.4357 26.0656 78.1265 25.5212 77.2008C24.9769 76.2751 25.2861 75.0834 26.2118 74.5391Z" fill="#FFFBEF"/>
<path d="M21.3934 66.3448C22.3191 65.8004 23.5108 66.1096 24.0551 67.0353C24.5995 67.961 24.2903 69.1527 23.3646 69.697C22.4389 70.2413 21.2472 69.9322 20.7029 69.0065C20.1585 68.0808 20.4677 66.8891 21.3934 66.3448Z" fill="#FFFBEF"/>
<path d="M128.394 59.0662C129.319 58.5219 130.511 58.831 131.055 59.7567C131.6 60.6824 131.291 61.8741 130.365 62.4185C129.439 62.9628 128.247 62.6536 127.703 61.7279C127.159 60.8022 127.468 59.6105 128.394 59.0662Z" fill="#FFFBEF"/>
<path d="M123.575 50.8721C124.501 50.3278 125.693 50.6369 126.237 51.5626C126.781 52.4883 126.472 53.68 125.546 54.2244C124.621 54.7687 123.429 54.4595 122.885 53.5338C122.34 52.6081 122.65 51.4164 123.575 50.8721Z" fill="#FFFBEF"/>
<path d="M118.757 42.6778C119.683 42.1334 120.874 42.4426 121.419 43.3683C121.963 44.294 121.654 45.4857 120.728 46.03C119.802 46.5744 118.611 46.2652 118.066 45.3395C117.522 44.4138 117.831 43.2221 118.757 42.6778Z" fill="#FFFBEF"/>
<path d="M113.938 34.4829C114.864 33.9386 116.055 34.2478 116.6 35.1735C117.144 36.0992 116.835 37.2909 115.909 37.8352C114.984 38.3795 113.792 38.0704 113.248 37.1447C112.703 36.219 113.012 35.0273 113.938 34.4829Z" fill="#FFFBEF"/>
<path d="M109.12 26.2886C110.045 25.7443 111.237 26.0534 111.781 26.9791C112.326 27.9048 112.017 29.0965 111.091 29.6409C110.165 30.1852 108.974 29.876 108.429 28.9503C107.885 28.0246 108.194 26.8329 109.12 26.2886Z" fill="#FFFBEF"/>
<path d="M104.301 18.0943C105.227 17.5499 106.419 17.8591 106.963 18.7848C107.507 19.7105 107.198 20.9022 106.273 21.4465C105.347 21.9909 104.155 21.6817 103.611 20.756C103.067 19.8303 103.376 18.6386 104.301 18.0943Z" fill="#FFFBEF"/>
<path d="M54.8088 91.4597L52.5686 87.6501L51.1455 88.4869L50.8458 87.9772L54.2694 85.964L54.5692 86.4738L53.1402 87.314L55.3803 91.1236L54.8088 91.4597Z" fill="#FFFBEF"/>
<path d="M57.6165 89.8087L55.0766 85.4894L55.6482 85.1533L58.1881 89.4726L57.6165 89.8087Z" fill="#FFFBEF"/>
<path d="M61.5107 85.4808L62.1672 85.289C62.3234 85.8289 62.3182 86.3145 62.1514 86.7456C61.9854 87.1736 61.6775 87.5199 61.2277 87.7844C60.7622 88.0581 60.3276 88.1868 59.9241 88.1703C59.5214 88.1507 59.1377 88.0062 58.7731 87.7369C58.4105 87.4663 58.1079 87.1248 57.8654 86.7124C57.6009 86.2625 57.4559 85.8204 57.4304 85.386C57.4058 84.9485 57.5007 84.5503 57.7153 84.1915C57.9308 83.8296 58.229 83.5366 58.61 83.3125C59.0422 83.0584 59.4702 82.9548 59.8942 83.0015C60.3182 83.0482 60.7054 83.2369 61.0558 83.5675L60.571 84.031C60.286 83.7756 60.0061 83.6323 59.7312 83.6009C59.4564 83.5696 59.1746 83.6388 58.8859 83.8086C58.5539 84.0038 58.3227 84.2467 58.1924 84.5375C58.064 84.8271 58.0337 85.1331 58.1016 85.4553C58.1683 85.7756 58.2854 86.0781 58.4529 86.3629C58.6689 86.7302 58.9108 87.0202 59.1785 87.2328C59.4471 87.4423 59.7342 87.5484 60.0398 87.5511C60.3454 87.5538 60.6298 87.4778 60.893 87.323C61.2131 87.1347 61.4299 86.883 61.5433 86.5679C61.6567 86.2527 61.6458 85.8904 61.5107 85.4808Z" fill="#FFFBEF"/>
<path d="M63.777 86.1862L61.2372 81.8669L61.8088 81.5307L63.0683 83.6727L63.9537 80.2695L64.7286 79.8138L63.9457 82.6294L67.348 84.0864L66.5937 84.5299L63.7702 83.2481L63.4685 84.3533L64.3486 85.8501L63.777 86.1862Z" fill="#FFFBEF"/>
<path d="M67.9578 83.7278L65.4179 79.4085L68.541 77.572L68.8408 78.0817L66.2892 79.5821L67.0671 80.905L69.4566 79.4999L69.7546 80.0067L67.3651 81.4118L68.2296 82.882L70.8813 81.3227L71.1811 81.8324L67.9578 83.7278Z" fill="#FFFBEF"/>
<path d="M73.1904 80.6509L70.9502 76.8413L69.5271 77.6781L69.2274 77.1684L72.6511 75.1552L72.9508 75.6649L71.5218 76.5052L73.7619 80.3148L73.1904 80.6509Z" fill="#FFFBEF"/>
</g>
<path fill-rule="evenodd" clip-rule="evenodd" d="M37.6526 138.357C40.5302 135.497 44.9085 135.237 47.4317 137.776C49.9549 140.315 49.6676 144.692 46.79 147.551C46.6871 147.654 46.5824 147.752 46.4758 147.848L51.974 153.381C52.0702 153.275 52.1698 153.171 52.2727 153.068C55.1503 150.209 59.5285 149.949 62.0518 152.488C64.575 155.027 64.2877 159.403 61.4101 162.263C61.3072 162.365 61.2024 162.464 61.0958 162.56L66.5859 168.084L161.599 73.6648L156.108 68.1402C153.234 70.7181 149.077 70.8722 146.644 68.4239C144.211 65.9756 144.391 61.8189 146.987 58.9611L141.489 53.4285C138.615 56.0064 134.457 56.1604 132.024 53.7122C129.591 51.2639 129.771 47.1072 132.367 44.2494L126.869 38.7168C123.995 41.2947 119.837 41.4488 117.404 39.0005C114.971 36.5522 115.151 32.3955 117.747 29.5376L112.257 24.013L17.2441 118.433L22.7342 123.957C22.8305 123.851 22.9301 123.747 23.033 123.645C25.9106 120.785 30.2888 120.525 32.812 123.064C35.3352 125.604 35.048 129.98 32.1703 132.84C32.0675 132.942 31.9626 133.041 31.8561 133.136L37.354 138.669C37.4502 138.563 37.5498 138.459 37.6526 138.357Z" fill="#FDB52D"/>
<path d="M71.0875 145.336C71.8492 144.579 73.0803 144.583 73.8373 145.344C74.5943 146.106 74.5904 147.337 73.8287 148.094C73.067 148.851 71.8358 148.847 71.0789 148.086C70.3219 147.324 70.3257 146.093 71.0875 145.336Z" fill="#FFFBEF"/>
<path d="M64.3868 138.593C65.1485 137.836 66.3796 137.84 67.1366 138.601C67.8936 139.363 67.8897 140.594 67.128 141.351C66.3663 142.108 65.1351 142.104 64.3782 141.343C63.6212 140.581 63.6251 139.35 64.3868 138.593Z" fill="#FFFBEF"/>
<path d="M57.6859 131.85C58.4476 131.093 59.6787 131.097 60.4357 131.859C61.1926 132.62 61.1888 133.851 60.4271 134.608C59.6653 135.365 58.4342 135.362 57.6772 134.6C56.9203 133.838 56.9241 132.607 57.6859 131.85Z" fill="#FFFBEF"/>
<path d="M50.9852 125.107C51.7469 124.35 52.978 124.354 53.735 125.116C54.492 125.878 54.4881 127.109 53.7264 127.866C52.9647 128.623 51.7335 128.619 50.9766 127.857C50.2196 127.095 50.2234 125.864 50.9852 125.107Z" fill="#FFFBEF"/>
<path d="M44.2845 118.364C45.0462 117.607 46.2773 117.611 47.0343 118.373C47.7913 119.135 47.7874 120.366 47.0257 121.123C46.264 121.88 45.0328 121.876 44.2759 121.114C43.5189 120.352 43.5228 119.121 44.2845 118.364Z" fill="#FFFBEF"/>
<path d="M37.584 111.622C38.3458 110.865 39.5769 110.869 40.3339 111.63C41.0908 112.392 41.087 113.623 40.3253 114.38C39.5635 115.137 38.3324 115.133 37.5754 114.372C36.8185 113.61 36.8223 112.379 37.584 111.622Z" fill="#FFFBEF"/>
<path d="M139.433 78.0257C140.195 77.2688 141.426 77.2726 142.183 78.0344C142.94 78.7961 142.936 80.0272 142.175 80.7842C141.413 81.5411 140.182 81.5373 139.425 80.7756C138.668 80.0138 138.672 78.7827 139.433 78.0257Z" fill="#FFFBEF"/>
<path d="M132.733 71.2831C133.495 70.5261 134.726 70.53 135.483 71.2917C136.24 72.0534 136.236 73.2845 135.474 74.0415C134.712 74.7985 133.481 74.7946 132.724 74.0329C131.967 73.2712 131.971 72.04 132.733 71.2831Z" fill="#FFFBEF"/>
<path d="M126.032 64.5401C126.794 63.7832 128.025 63.787 128.782 64.5488C129.539 65.3105 129.535 66.5416 128.773 67.2986C128.012 68.0555 126.78 68.0517 126.023 67.29C125.266 66.5283 125.27 65.2971 126.032 64.5401Z" fill="#FFFBEF"/>
<path d="M119.331 57.7972C120.093 57.0403 121.324 57.0441 122.081 57.8058C122.838 58.5676 122.834 59.7987 122.073 60.5557C121.311 61.3126 120.08 61.3088 119.323 60.5471C118.566 59.7853 118.57 58.5542 119.331 57.7972Z" fill="#FFFBEF"/>
<path d="M112.631 51.0546C113.392 50.2976 114.624 50.3014 115.381 51.0632C116.137 51.8249 116.134 53.056 115.372 53.813C114.61 54.57 113.379 54.5661 112.622 53.8044C111.865 53.0427 111.869 51.8115 112.631 51.0546Z" fill="#FFFBEF"/>
<path d="M105.93 44.3119C106.692 43.5549 107.923 43.5588 108.68 44.3205C109.437 45.0822 109.433 46.3133 108.671 47.0703C107.909 47.8273 106.678 47.8234 105.921 47.0617C105.164 46.3 105.168 45.0688 105.93 44.3119Z" fill="#FFFBEF"/>
<path fill-rule="evenodd" clip-rule="evenodd" d="M50.8826 103.243C50.396 102.753 50.3984 101.962 50.8881 101.475L93.8627 58.7687C94.3524 58.2821 95.1439 58.2846 95.6305 58.7742C96.1171 59.2639 96.1146 60.0554 95.6249 60.542L52.6503 103.248C52.1607 103.735 51.3692 103.733 50.8826 103.243Z" fill="#FFFBEF"/>
<path fill-rule="evenodd" clip-rule="evenodd" d="M57.5833 109.986C57.0966 109.496 57.0991 108.704 57.5888 108.218L100.563 65.5114C101.053 65.0248 101.845 65.0272 102.331 65.5169C102.818 66.0066 102.815 66.798 102.326 67.2847L59.351 109.991C58.8613 110.478 58.0699 110.475 57.5833 109.986Z" fill="#FFFBEF"/>
<path fill-rule="evenodd" clip-rule="evenodd" d="M64.2842 116.728C63.7976 116.239 63.8 115.447 64.2897 114.961L88.8748 90.5291C89.3645 90.0424 90.1559 90.0449 90.6425 90.5346C91.1292 91.0243 91.1267 91.8157 90.637 92.3024L66.0519 116.734C65.5623 117.221 64.7708 117.218 64.2842 116.728Z" fill="#FFFBEF"/>
<path d="M87.0346 133.798L78.134 124.841L74.7883 128.166L73.5974 126.968L81.6465 118.969L82.8373 120.167L79.4778 123.506L88.3784 132.462L87.0346 133.798Z" fill="#FFFBEF"/>
<path d="M93.6357 127.238L83.5442 117.083L84.888 115.747L94.9795 125.902L93.6357 127.238Z" fill="#FFFBEF"/>
<path d="M101.346 112.499L103.028 111.502C103.843 112.886 104.172 114.234 104.016 115.545C103.86 116.848 103.253 118.024 102.196 119.075C101.102 120.163 99.99 120.827 98.8614 121.067C97.7327 121.298 96.5684 121.171 95.3684 120.683C94.173 120.192 93.0935 119.461 92.1298 118.491C91.0789 117.434 90.3642 116.313 89.9858 115.128C89.6075 113.935 89.5881 112.766 89.9277 111.62C90.2674 110.466 90.8852 109.444 91.7811 108.553C92.797 107.544 93.9083 106.953 95.115 106.782C96.3217 106.611 97.5271 106.859 98.7311 107.525L97.7178 109.152C96.7481 108.647 95.8717 108.449 95.0887 108.557C94.3058 108.665 93.5749 109.056 92.8961 109.731C92.1156 110.506 91.6481 111.343 91.4933 112.24C91.3432 113.132 91.4763 114.001 91.8926 114.844C92.3043 115.683 92.8428 116.438 93.5083 117.107C94.3664 117.971 95.2414 118.602 96.1333 119.001C97.0252 119.39 97.895 119.481 98.7427 119.271C99.5904 119.062 100.324 118.65 100.942 118.035C101.695 117.287 102.117 116.437 102.207 115.484C102.298 114.532 102.011 113.536 101.346 112.499Z" fill="#FFFBEF"/>
<path d="M108.119 112.845L98.0278 102.69L99.3716 101.354L104.376 106.39L104.414 96.3429L106.236 94.5325L106.065 102.881L116.515 104.502L114.741 106.264L106.018 104.717L105.966 107.99L109.463 111.509L108.119 112.845Z" fill="#FFFBEF"/>
<path d="M117.948 103.077L107.857 92.922L115.199 85.6253L116.39 86.8236L110.392 92.7849L113.482 95.8951L119.1 90.3124L120.284 91.5039L114.666 97.0865L118.101 100.543L124.336 94.3477L125.526 95.5461L117.948 103.077Z" fill="#FFFBEF"/>
<path d="M130.25 90.8517L121.35 81.8952L118.004 85.22L116.813 84.0217L124.862 76.0228L126.053 77.2212L122.693 80.5598L131.594 89.5163L130.25 90.8517Z" fill="#FFFBEF"/>
</svg>
