<svg width="220" height="122" viewBox="0 0 220 122" fill="none" xmlns="http://www.w3.org/2000/svg">
<g clip-path="url(#clip0_459_69804)">
<g opacity="0.8">
<path fill-rule="evenodd" clip-rule="evenodd" d="M54.4569 67.1047C56.6766 63.709 60.905 62.544 63.9012 64.5026C66.8975 66.4612 67.5269 70.8018 65.3072 74.1975C65.2278 74.3189 65.1459 74.4374 65.0616 74.553L71.5901 78.8207C71.6622 78.697 71.7379 78.5745 71.8172 78.4531C74.0369 75.0574 78.2653 73.8924 81.2616 75.851C84.2578 77.8096 84.8872 82.1501 82.6675 85.5458C82.5881 85.6672 82.5062 85.7857 82.4219 85.9013L88.9414 90.1631L162.233 -21.9566L155.714 -26.2183C153.439 -23.0988 149.404 -22.0831 146.515 -23.9717C143.626 -25.8603 142.937 -29.9636 144.882 -33.2989L138.353 -37.5666C136.078 -34.4472 132.044 -33.4315 129.154 -35.3201C126.265 -37.2086 125.577 -41.3119 127.521 -44.6473L120.992 -48.9151C118.718 -45.7955 114.683 -44.7797 111.794 -46.6684C108.904 -48.557 108.216 -52.6604 110.161 -55.9958L103.641 -60.2573L30.3498 51.8623L36.8691 56.1239C36.9411 56.0003 37.0168 55.8778 37.0961 55.7565C39.3158 52.3608 43.5442 51.1957 46.5405 53.1543C49.5367 55.1129 50.1662 59.4535 47.9464 62.8492C47.8671 62.9705 47.7852 63.089 47.7009 63.2045L54.2297 67.4724C54.3018 67.3487 54.3775 67.2261 54.4569 67.1047Z" fill="#FDC251"/>
<circle cx="90.2391" cy="68.0397" r="1.94443" transform="rotate(-146.828 90.2391 68.0397)" fill="#FFFBEF"/>
<circle cx="82.2821" cy="62.8383" r="1.94443" transform="rotate(-146.828 82.2821 62.8383)" fill="#FFFBEF"/>
<circle cx="74.325" cy="57.6369" r="1.94443" transform="rotate(-146.828 74.325 57.6369)" fill="#FFFBEF"/>
<circle cx="66.368" cy="52.4357" r="1.94443" transform="rotate(-146.828 66.368 52.4357)" fill="#FFFBEF"/>
<circle cx="58.411" cy="47.2343" r="1.94443" transform="rotate(-146.828 58.411 47.2343)" fill="#FFFBEF"/>
<circle cx="50.4539" cy="42.0329" r="1.94443" transform="rotate(-146.828 50.4539 42.0329)" fill="#FFFBEF"/>
<path d="M89.9215 48.6278L86.2223 46.2097L85.319 47.5915L84.8241 47.268L86.9972 43.9436L87.4921 44.2671L86.5851 45.6547L90.2843 48.0728L89.9215 48.6278ZM91.7037 45.9015L87.5095 43.1598L87.8723 42.6047L92.0665 45.3464L91.7037 45.9015ZM93.2702 40.2941L93.7732 39.8307C94.153 40.2451 94.3639 40.6824 94.406 41.1428C94.4474 41.6 94.3254 42.0469 94.0399 42.4837C93.7444 42.9357 93.4122 43.244 93.0433 43.4085C92.6738 43.5698 92.2659 43.6108 91.8196 43.5314C91.3746 43.4501 90.9518 43.2786 90.5513 43.0167C90.1145 42.7312 89.7882 42.3995 89.5725 42.0216C89.356 41.6406 89.2643 41.2417 89.2972 40.8249C89.3294 40.4049 89.4664 40.01 89.7083 39.6399C89.9826 39.2203 90.3201 38.9373 90.7207 38.7909C91.1213 38.6444 91.552 38.6415 92.0128 38.782L91.7843 39.4126C91.4155 39.3104 91.1011 39.3063 90.8409 39.4003C90.5807 39.4943 90.359 39.6815 90.1758 39.9618C89.965 40.2842 89.8659 40.6045 89.8782 40.923C89.8918 41.2395 90.0006 41.527 90.2046 41.7856C90.4066 42.0429 90.6459 42.2619 90.9225 42.4427C91.2791 42.6758 91.6246 42.8282 91.959 42.8997C92.2927 42.9681 92.597 42.9357 92.872 42.8024C93.147 42.6691 93.368 42.4746 93.535 42.219C93.7383 41.9082 93.8207 41.5863 93.7823 41.2536C93.7439 40.9209 93.5732 40.6011 93.2702 40.2941ZM95.614 39.9194L91.4199 37.1778L91.7827 36.6227L93.8626 37.9824L93.1442 34.54L93.636 33.7875L94.1853 36.6579L97.8807 36.452L97.4019 37.1844L94.3029 37.2901L94.5235 38.4144L95.9768 39.3644L95.614 39.9194ZM98.2677 35.8599L94.0736 33.1182L96.056 30.0856L96.5509 30.4091L94.9313 32.8867L96.2159 33.7264L97.7326 31.4062L98.2247 31.7279L96.708 34.0481L98.1356 34.9813L99.8187 32.4065L100.314 32.73L98.2677 35.8599ZM101.589 30.779L97.8899 28.3608L96.9866 29.7427L96.4916 29.4191L98.6648 26.0947L99.1597 26.4182L98.2527 27.8058L101.952 30.2239L101.589 30.779Z" fill="#FFFBEF"/>
</g>
<path fill-rule="evenodd" clip-rule="evenodd" d="M95.3808 98.2648C96.6887 94.4245 100.496 92.2469 103.884 93.401C107.273 94.5551 108.959 98.6038 107.651 102.444C107.605 102.581 107.555 102.716 107.502 102.849L114.885 105.364C114.924 105.226 114.967 105.089 115.014 104.952C116.322 101.111 120.129 98.9337 123.518 100.088C126.906 101.242 128.593 105.291 127.285 109.131C127.238 109.268 127.188 109.403 127.135 109.536L134.508 112.047L177.693 -14.7497L170.32 -17.2608C168.891 -13.6745 165.234 -11.6897 161.967 -12.8025C158.699 -13.9153 157.014 -17.7194 158.071 -21.4329L150.687 -23.9476C149.257 -20.3614 145.601 -18.3765 142.333 -19.4893C139.066 -20.6021 137.381 -24.4062 138.438 -28.1197L131.054 -30.6344C129.624 -27.0481 125.968 -25.0633 122.7 -26.1761C119.433 -27.2889 117.748 -31.093 118.804 -34.8065L111.432 -37.3176L68.2461 89.4795L75.6189 91.9906C75.6581 91.8529 75.701 91.7153 75.7478 91.578C77.0558 87.7377 80.8629 85.5602 84.2514 86.7142C87.6398 87.8683 89.3264 91.917 88.0185 95.7572C87.9717 95.8945 87.9218 96.0297 87.8687 96.1627L95.2519 98.6773C95.2911 98.5396 95.334 98.4021 95.3808 98.2648Z" fill="#FDB52D"/>
<circle r="1.94443" transform="matrix(-0.9466 -0.322411 0.32239 -0.946607 130.277 90.2935)" fill="#FFFBEF"/>
<circle cx="121.278" cy="87.2286" r="1.94443" transform="rotate(-161.192 121.278 87.2286)" fill="#FFFBEF"/>
<circle r="1.94443" transform="matrix(-0.9466 -0.322411 0.32239 -0.946607 112.278 84.1638)" fill="#FFFBEF"/>
<circle cx="103.28" cy="81.0992" r="1.94443" transform="rotate(-161.192 103.28 81.0992)" fill="#FFFBEF"/>
<circle cx="94.2824" cy="78.0345" r="1.94443" transform="rotate(-161.192 94.2824 78.0345)" fill="#FFFBEF"/>
<circle cx="85.2843" cy="74.9695" r="1.94443" transform="rotate(-161.192 85.2843 74.9695)" fill="#FFFBEF"/>
<circle cx="161.612" cy="-0.370076" r="1.94443" transform="rotate(-161.192 161.612 -0.370076)" fill="#FFFBEF"/>
<line x1="92.0401" y1="59.7453" x2="111.573" y2="2.39446" stroke="#FFFBEF" stroke-width="2.5" stroke-linecap="round"/>
<line x1="101.038" y1="62.8102" x2="120.571" y2="5.45941" stroke="#FFFBEF" stroke-width="2.5" stroke-linecap="round"/>
<line x1="110.036" y1="65.8749" x2="121.211" y2="33.0655" stroke="#FFFBEF" stroke-width="2.5" stroke-linecap="round"/>
<path d="M137.599 72.2459L125.647 68.1749L124.126 72.6399L122.527 72.0952L126.185 61.3535L127.784 61.8981L126.257 66.3816L138.21 70.4525L137.599 72.2459ZM140.6 63.4366L127.048 58.8209L127.659 57.0276L141.21 61.6432L140.6 63.4366ZM140.961 46.8061L142.025 45.167C143.37 46.0446 144.264 47.1055 144.706 48.3499C145.145 49.586 145.124 50.9097 144.643 52.3209C144.146 53.7815 143.445 54.8702 142.541 55.5869C141.632 56.2954 140.532 56.698 139.241 56.7946C137.951 56.885 136.66 56.7098 135.365 56.269C133.954 55.7884 132.816 55.1015 131.951 54.2085C131.082 53.3073 130.545 52.2682 130.341 51.0913C130.132 49.9061 130.232 48.7157 130.639 47.5202C131.1 46.1644 131.834 45.1418 132.839 44.4524C133.844 43.7631 135.034 43.4497 136.409 43.5122L136.224 45.4195C135.13 45.398 134.257 45.6095 133.604 46.054C132.95 46.4986 132.469 47.1739 132.161 48.0798C131.806 49.1213 131.759 50.0783 132.018 50.9509C132.28 51.8173 132.785 52.536 133.533 53.1071C134.275 53.676 135.092 54.1127 135.986 54.417C137.138 54.8095 138.203 54.9863 139.179 54.9474C140.151 54.9002 140.97 54.5947 141.637 54.0308C142.303 53.4669 142.777 52.772 143.059 51.9462C143.401 50.9417 143.401 49.9926 143.059 49.0989C142.716 48.2052 142.017 47.4409 140.961 46.8061ZM147.183 44.1077L133.631 39.4921L134.242 37.6987L140.962 39.9877L136.534 30.969L137.362 28.5378L140.917 36.0931L150.999 32.9038L150.193 35.2703L141.69 37.7596L143.098 40.7149L147.794 42.3144L147.183 44.1077ZM151.65 30.9906L138.098 26.375L141.436 16.5762L143.035 17.1209L140.308 25.1263L144.459 26.54L147.012 19.0429L148.602 19.5845L146.049 27.0815L150.662 28.6526L153.496 20.3328L155.095 20.8775L151.65 30.9906ZM157.242 14.5733L145.289 10.5024L143.768 14.9673L142.169 14.4226L145.828 3.68092L147.427 4.2256L145.9 8.70902L157.853 12.78L157.242 14.5733Z" fill="#FFFBEF"/>
</g>
<defs>
<clipPath id="clip0_459_69804">
<rect width="161.599" height="168.084" fill="white" transform="translate(0.191406 -8.96899) rotate(-26.3712)"/>
</clipPath>
</defs>
</svg>
