<svg width="234" height="122" viewBox="0 0 234 122" fill="none" xmlns="http://www.w3.org/2000/svg">
<g clip-path="url(#clip0_2072_18722)">
<g clip-path="url(#clip1_2072_18722)">
<g opacity="0.8">
<path fill-rule="evenodd" clip-rule="evenodd" d="M68.4578 67.1047C70.6776 63.709 74.906 62.544 77.9022 64.5026C80.8984 66.4612 81.5279 70.8018 79.3081 74.1975C79.2288 74.3189 79.1469 74.4374 79.0625 74.553L85.591 78.8207C85.6631 78.697 85.7388 78.5745 85.8182 78.4531C88.0379 75.0574 92.2663 73.8924 95.2625 75.851C98.2588 77.8096 98.8882 82.1501 96.6685 85.5458C96.5891 85.6672 96.5072 85.7857 96.4229 85.9013L102.942 90.1631L176.234 -21.9566L169.715 -26.2183C167.44 -23.0988 163.405 -22.0831 160.516 -23.9717C157.627 -25.8603 156.938 -29.9636 158.883 -33.2989L152.354 -37.5666C150.079 -34.4472 146.045 -33.4315 143.155 -35.3201C140.266 -37.2086 139.578 -41.3119 141.522 -44.6473L134.993 -48.9151C132.719 -45.7955 128.684 -44.7797 125.794 -46.6684C122.905 -48.557 122.217 -52.6604 124.162 -55.9958L117.642 -60.2573L44.3508 51.8623L50.87 56.1239C50.9421 56.0003 51.0178 55.8778 51.0971 55.7565C53.3168 52.3608 57.5452 51.1957 60.5414 53.1543C63.5377 55.1129 64.1671 59.4534 61.9474 62.8492C61.8681 62.9705 61.7862 63.089 61.7019 63.2045L68.2307 67.4724C68.3028 67.3487 68.3785 67.2261 68.4578 67.1047Z" fill="#FDC251"/>
<circle cx="104.24" cy="68.0397" r="1.94443" transform="rotate(-146.828 104.24 68.0397)" fill="#FFFBEF"/>
<circle cx="96.2831" cy="62.8383" r="1.94443" transform="rotate(-146.828 96.2831 62.8383)" fill="#FFFBEF"/>
<circle cx="88.327" cy="57.6369" r="1.94443" transform="rotate(-146.828 88.327 57.6369)" fill="#FFFBEF"/>
<circle cx="80.369" cy="52.4357" r="1.94443" transform="rotate(-146.828 80.369 52.4357)" fill="#FFFBEF"/>
<circle cx="72.4129" cy="47.2343" r="1.94443" transform="rotate(-146.828 72.4129 47.2343)" fill="#FFFBEF"/>
<circle cx="64.4559" cy="42.0329" r="1.94443" transform="rotate(-146.828 64.4559 42.0329)" fill="#FFFBEF"/>
<path d="M103.922 48.6278L100.223 46.2097L99.32 47.5915L98.825 47.268L100.998 43.9436L101.493 44.2671L100.586 45.6547L104.285 48.0728L103.922 48.6278ZM105.705 45.9015L101.511 43.1598L101.873 42.6047L106.067 45.3464L105.705 45.9015ZM107.271 40.2941L107.774 39.8307C108.154 40.2451 108.365 40.6824 108.407 41.1428C108.448 41.6 108.326 42.0469 108.041 42.4837C107.745 42.9357 107.413 43.244 107.044 43.4085C106.675 43.5698 106.267 43.6108 105.821 43.5314C105.376 43.4501 104.953 43.2786 104.552 43.0167C104.115 42.7312 103.789 42.3995 103.573 42.0216C103.357 41.6406 103.265 41.2417 103.298 40.8249C103.33 40.4049 103.467 40.01 103.709 39.6399C103.984 39.2203 104.321 38.9373 104.722 38.7909C105.122 38.6444 105.553 38.6415 106.014 38.782L105.785 39.4126C105.417 39.3104 105.102 39.3063 104.842 39.4003C104.582 39.4943 104.36 39.6815 104.177 39.9618C103.966 40.2842 103.867 40.6045 103.879 40.923C103.893 41.2395 104.002 41.527 104.206 41.7856C104.408 42.0429 104.647 42.2619 104.923 42.4427C105.28 42.6758 105.626 42.8282 105.96 42.8997C106.294 42.9681 106.598 42.9357 106.873 42.8024C107.148 42.6691 107.369 42.4746 107.536 42.219C107.739 41.9082 107.822 41.5863 107.783 41.2536C107.745 40.9209 107.574 40.6011 107.271 40.2941ZM109.615 39.9194L105.421 37.1778L105.784 36.6227L107.864 37.9824L107.145 34.54L107.637 33.7875L108.186 36.6579L111.882 36.452L111.403 37.1844L108.304 37.2901L108.524 38.4144L109.978 39.3644L109.615 39.9194ZM112.269 35.8599L108.075 33.1182L110.057 30.0856L110.552 30.4091L108.932 32.8867L110.217 33.7264L111.734 31.4062L112.226 31.7279L110.709 34.0481L112.137 34.9813L113.82 32.4065L114.315 32.73L112.269 35.8599ZM115.59 30.779L111.891 28.3608L110.988 29.7427L110.493 29.4191L112.666 26.0947L113.161 26.4182L112.254 27.8058L115.953 30.2239L115.59 30.779Z" fill="#FFFBEF"/>
</g>
<path fill-rule="evenodd" clip-rule="evenodd" d="M109.382 98.2648C110.69 94.4245 114.497 92.2469 117.885 93.401C121.274 94.5551 122.96 98.6038 121.652 102.444C121.606 102.581 121.556 102.716 121.503 102.849L128.886 105.364C128.925 105.226 128.968 105.089 129.015 104.952C130.323 101.111 134.13 98.9337 137.519 100.088C140.907 101.242 142.594 105.291 141.286 109.131C141.239 109.268 141.189 109.403 141.136 109.536L148.509 112.047L191.694 -14.7497L184.321 -17.2608C182.892 -13.6745 179.235 -11.6897 175.968 -12.8025C172.7 -13.9153 171.015 -17.7194 172.072 -21.4329L164.688 -23.9476C163.258 -20.3614 159.602 -18.3765 156.334 -19.4893C153.067 -20.6021 151.382 -24.4062 152.438 -28.1197L145.055 -30.6344C143.625 -27.0481 139.969 -25.0633 136.701 -26.1761C133.434 -27.2889 131.749 -31.093 132.805 -34.8065L125.433 -37.3176L82.2471 89.4795L89.6199 91.9906C89.6591 91.8529 89.702 91.7153 89.7488 91.578C91.0567 87.7377 94.8639 85.5602 98.2524 86.7142C101.641 87.8683 103.327 91.917 102.019 95.7572C101.973 95.8945 101.923 96.0297 101.87 96.1627L109.253 98.6773C109.292 98.5396 109.335 98.4021 109.382 98.2648Z" fill="#FDB52D"/>
<circle r="1.94443" transform="matrix(-0.9466 -0.322411 0.32239 -0.946607 144.277 90.2935)" fill="#FFFBEF"/>
<circle cx="135.279" cy="87.2286" r="1.94443" transform="rotate(-161.192 135.279 87.2286)" fill="#FFFBEF"/>
<circle r="1.94443" transform="matrix(-0.9466 -0.322411 0.32239 -0.946607 126.28 84.1638)" fill="#FFFBEF"/>
<circle cx="117.281" cy="81.0992" r="1.94443" transform="rotate(-161.192 117.281 81.0992)" fill="#FFFBEF"/>
<circle cx="108.283" cy="78.0345" r="1.94443" transform="rotate(-161.192 108.283 78.0345)" fill="#FFFBEF"/>
<circle cx="99.2853" cy="74.9695" r="1.94443" transform="rotate(-161.192 99.2853 74.9695)" fill="#FFFBEF"/>
<circle cx="175.613" cy="-0.370076" r="1.94443" transform="rotate(-161.192 175.613 -0.370076)" fill="#FFFBEF"/>
<line x1="106.041" y1="59.7453" x2="125.574" y2="2.39446" stroke="#FFFBEF" stroke-width="2.5" stroke-linecap="round"/>
<line x1="115.039" y1="62.8102" x2="134.572" y2="5.45941" stroke="#FFFBEF" stroke-width="2.5" stroke-linecap="round"/>
<line x1="124.038" y1="65.8749" x2="135.213" y2="33.0655" stroke="#FFFBEF" stroke-width="2.5" stroke-linecap="round"/>
<path d="M139.663 61.0154C140.747 60.4149 142.219 59.7848 143.134 59.6295L142.571 57.6958C141.65 57.921 140.216 58.5998 139.158 59.2273L139.663 61.0154ZM139.211 72.6246L141.045 73.2494L145.994 58.7181L144.16 58.0932L139.211 72.6246ZM143.661 74.4814L145.772 74.6618C146.061 72.4434 146.451 69.4515 146.792 66.6582L144.989 66.2056C144.545 69.1972 144.034 72.4356 143.661 74.4814ZM137.661 68.6846L148.507 72.3787C148.781 72.4719 148.829 72.5958 148.73 72.8855C148.647 73.1806 148.329 74.114 147.969 75.0148C148.615 74.9115 149.593 74.8856 150.168 74.9915C150.617 73.6719 150.876 72.7005 150.79 71.9527C150.709 71.1888 150.249 70.7987 149.203 70.4425L138.324 66.7374L137.661 68.6846ZM136.902 64.7444C136.901 66.5938 136.545 69.2741 136.078 71.6472C136.589 71.5699 137.395 71.5752 137.879 71.6321C138.416 69.211 138.919 66.3112 138.987 64L136.902 64.7444ZM137.471 63.1784C144.713 65.591 152.962 66.9995 154.096 63.6684C154.595 62.204 154.095 61.3513 151.351 60.0754C150.966 60.5191 150.291 61.0255 149.703 61.2743C151.585 62.0231 152.314 62.4687 152.199 62.8066C151.7 64.271 144.609 63.4722 138.162 61.1507L137.471 63.1784ZM145.769 61.1197C147.937 63.4562 149.232 66.8246 149.55 70.0039C150.149 69.6691 150.973 69.3573 151.555 69.2321C151.002 65.7932 149.497 62.3535 147.074 59.6605L145.769 61.1197ZM148.909 57.7532L150.47 58.2849L155.501 43.5122L153.941 42.9805L148.909 57.7532ZM140.855 54.6687L142.528 55.2387L147.324 41.158L145.65 40.588L140.855 54.6687ZM149.189 51.8684C150.449 53.3388 152.042 55.462 152.99 56.8982L154.189 55.2233C153.236 53.8032 151.674 51.7448 150.319 50.1339L149.189 51.8684ZM152.903 47.9251C155.554 50.2648 155.393 53.5861 153.771 59.0859C154.294 58.9226 155.068 58.8632 155.675 58.9263C157.242 52.7971 157.277 49.1094 154.022 46.2228L152.903 47.9251ZM153.497 55.8316C155.627 52.2651 158.068 48.8941 159.813 46.8841L158.646 45.1938C156.939 47.3062 154.464 50.935 152.447 54.3787L153.497 55.8316ZM142.956 50.6612L148.459 52.5356L149.079 50.7172L143.575 48.8427L142.956 50.6612ZM144.2 47.0082L149.703 48.8827L150.323 47.0642L144.819 45.1898L144.2 47.0082ZM145.824 53.5237L148.921 44.4316L150.433 44.9468L147.337 54.0389L145.824 53.5237ZM143.697 54.8109L148.235 56.3565L152.604 43.5309L148.066 41.9854L143.697 54.8109ZM149.072 32.756L150.44 33.2218L153.345 24.6929L151.977 24.2271L149.072 32.756ZM152.857 34.3504L154.225 34.8163L157.327 25.7081L155.959 25.2422L152.857 34.3504ZM158.87 36.4701L160.238 36.9359L163.373 27.7312L162.005 27.2653L158.87 36.4701ZM151.145 33.049L152.449 33.493L155.145 25.5756L153.842 25.1316L151.145 33.049ZM148.43 30.5799L154.159 32.5311L154.729 30.8575L149 28.9063L148.43 30.5799ZM149.565 27.2488L155.294 29.2L155.875 27.4942L150.146 25.543L149.565 27.2488ZM154.74 30.879L160.517 32.8466L161.087 31.173L155.31 29.2054L154.74 30.879ZM157.078 28.3891L163.338 30.5211C163.531 30.5869 163.558 30.6677 163.503 30.8824C163.437 31.0755 163.201 31.7674 162.955 32.3841C163.461 32.3228 164.192 32.3384 164.67 32.4114C165.026 31.3654 165.284 30.609 165.213 29.9742C165.136 29.3555 164.756 29.0466 163.952 28.7725L157.676 26.635L157.078 28.3891ZM155.089 34.2305L163.151 36.9764L163.732 35.2707L157.038 32.9906L158.698 28.1147L157.331 27.6488L155.089 34.2305ZM157.471 34.0902L158.662 34.4957L160.613 28.7669L159.423 28.3613L157.471 34.0902ZM157.363 40.8417C158.401 41.5366 159.346 42.5588 159.85 43.5566C160.213 43.2311 160.921 42.682 161.293 42.4317C160.682 41.3794 159.55 40.1678 158.341 39.289L157.363 40.8417ZM158.589 39.1401C159.617 38.9156 160.957 38.7255 161.763 38.7307L161.56 37.0091C160.764 37.0254 159.467 37.2481 158.46 37.5157L158.589 39.1401ZM151.576 37.901L152.119 36.3078L153.615 36.8175L153.073 38.4107L151.576 37.901ZM154.489 38.893L155.031 37.2999L156.56 37.8205L156.017 39.4137L154.489 38.893ZM148.663 36.9089L149.206 35.3158L150.686 35.82L150.144 37.4132L148.663 36.9089ZM146.559 38.0242L156.987 41.5758L158.664 36.6515L148.236 33.1L146.559 38.0242ZM166.89 16.7172C168.042 15.7086 169.684 14.4721 170.661 13.9785L170.103 12.0825C169.056 12.6778 167.483 13.9739 166.407 14.9722L166.89 16.7172ZM159.568 22.5024L161.033 23.0012L164.694 12.2516L163.229 11.7528L159.568 22.5024ZM161.056 25.1464L162.585 25.667L167.556 11.0714L166.027 10.5507L161.056 25.1464ZM152.009 21.8135L153.521 22.3287L158.306 8.28011L156.793 7.76492L152.009 21.8135ZM163.478 18.9314L166.761 20.0495C166.938 20.1098 166.97 20.1745 166.893 20.3998C166.838 20.6144 166.591 21.3386 166.345 21.9552C166.889 21.8889 167.706 21.862 168.249 21.9569C168.61 20.8948 168.857 20.1169 168.792 19.4122C168.748 18.6969 168.347 18.3986 167.494 18.1081L164.147 16.9681L163.478 18.9314ZM163.804 22.5085C164.48 23.5828 164.97 25.2041 165.121 26.6566C165.554 26.3369 166.438 25.8481 166.886 25.6413C166.589 24.1395 165.897 22.2695 165.019 20.9467L163.804 22.5085ZM156.69 20.3548L159.606 11.7937L160.797 12.1993L157.881 20.7604L156.69 20.3548ZM154.698 21.6697L158.672 23.0235L162.849 10.7612L158.874 9.40739L154.698 21.6697ZM154.068 17.6659L159.266 19.4362L159.868 17.666L154.671 15.8957L154.068 17.6659ZM155.246 14.206L160.444 15.9763L161.058 14.174L155.86 12.4037L155.246 14.206Z" fill="#FFFBEF"/>
</g>
</g>
<defs>
<clipPath id="clip0_2072_18722">
<rect width="234" height="122" fill="white"/>
</clipPath>
<clipPath id="clip1_2072_18722">
<rect width="161.599" height="168.084" fill="white" transform="translate(14.1914 -8.96899) rotate(-26.3712)"/>
</clipPath>
</defs>
</svg>
