<svg width="24" height="25" viewBox="0 0 24 25" fill="none" xmlns="http://www.w3.org/2000/svg">
<path d="M11.9999 0.833496C5.55992 0.833496 0.333252 6.06016 0.333252 12.5002C0.333252 18.9402 5.55992 24.1668 11.9999 24.1668C18.4399 24.1668 23.6666 18.9402 23.6666 12.5002C23.6666 6.06016 18.4399 0.833496 11.9999 0.833496ZM11.9999 4.3335C13.9366 4.3335 15.4999 5.89683 15.4999 7.8335C15.4999 9.77016 13.9366 11.3335 11.9999 11.3335C10.0633 11.3335 8.49992 9.77016 8.49992 7.8335C8.49992 5.89683 10.0633 4.3335 11.9999 4.3335ZM11.9999 20.9002C9.08325 20.9002 6.50492 19.4068 4.99992 17.1435C5.03492 14.8218 9.66659 13.5502 11.9999 13.5502C14.3216 13.5502 18.9649 14.8218 18.9999 17.1435C17.4949 19.4068 14.9166 20.9002 11.9999 20.9002Z" fill="#FFFBEF"/>
</svg>
