<svg width="1807" height="1906" viewBox="0 0 1807 1906" fill="none" xmlns="http://www.w3.org/2000/svg">
<circle cx="904.513" cy="919.483" r="713.765" stroke="#8C8C8C" stroke-width="40"/>
<path d="M908.27 200.042L908.269 1627.57" stroke="#C4C4C4" stroke-width="40"/>
<line y1="-20" x2="1427.53" y2="-20" transform="matrix(-0.707103 0.707111 -0.707103 -0.707111 1408.8 414.347)" stroke="#C4C4C4" stroke-width="40"/>
<line x1="190.748" y1="899.484" x2="1618.28" y2="899.484" stroke="#C4C4C4" stroke-width="40"/>
<line y1="-20" x2="1427.53" y2="-20" transform="matrix(0.707102 0.707111 -0.707102 0.707111 399.404 414.347)" stroke="#C4C4C4" stroke-width="40"/>
<path d="M908.257 1053.08L1296.42 1844.68H520.098L908.257 1053.08Z" stroke="#8C8C8C" stroke-width="40"/>
<circle cx="908.727" cy="901.727" r="181.186" fill="white" stroke="#707070" stroke-width="40"/>
<ellipse cx="395" cy="377.742" rx="190" ry="177.742" fill="#398590"/>
<path fill-rule="evenodd" clip-rule="evenodd" d="M551.744 374.214C551.805 372.534 551.836 370.847 551.836 369.154C551.836 287.92 481.441 222.066 394.604 222.066C307.768 222.066 237.373 287.92 237.373 369.154C237.373 370.847 237.404 372.534 237.464 374.214H551.744Z" fill="white"/>
<rect x="237.246" y="372.59" width="314.796" height="33.4889" fill="white"/>
<ellipse cx="908" cy="177.742" rx="190" ry="177.742" fill="#A7D4D3"/>
<path fill-rule="evenodd" clip-rule="evenodd" d="M1064.74 174.214C1064.8 172.534 1064.84 170.847 1064.84 169.154C1064.84 87.9196 994.441 22.0664 907.604 22.0664C820.768 22.0664 750.373 87.9196 750.373 169.154C750.373 170.847 750.404 172.534 750.464 174.214H1064.74Z" fill="white"/>
<rect x="750.246" y="172.59" width="314.796" height="33.4889" fill="white"/>
<ellipse cx="1408" cy="377.742" rx="190" ry="177.742" fill="#398590"/>
<path fill-rule="evenodd" clip-rule="evenodd" d="M1564.74 374.214C1564.8 372.534 1564.84 370.847 1564.84 369.154C1564.84 287.92 1494.44 222.066 1407.6 222.066C1320.77 222.066 1250.37 287.92 1250.37 369.154C1250.37 370.847 1250.4 372.534 1250.46 374.214H1564.74Z" fill="white"/>
<rect x="1250.25" y="372.59" width="314.796" height="33.4889" fill="white"/>
<ellipse cx="1617" cy="853.742" rx="190" ry="177.742" fill="#398590"/>
<path fill-rule="evenodd" clip-rule="evenodd" d="M1773.74 850.214C1773.8 848.534 1773.84 846.847 1773.84 845.154C1773.84 763.92 1703.44 698.066 1616.6 698.066C1529.77 698.066 1459.37 763.92 1459.37 845.154C1459.37 846.847 1459.4 848.534 1459.46 850.214H1773.74Z" fill="white"/>
<rect x="1459.25" y="848.59" width="314.796" height="33.4889" fill="white"/>
<ellipse cx="1447" cy="1383.74" rx="190" ry="177.742" fill="#398590"/>
<path fill-rule="evenodd" clip-rule="evenodd" d="M1603.74 1380.21C1603.8 1378.53 1603.84 1376.85 1603.84 1375.15C1603.84 1293.92 1533.44 1228.07 1446.6 1228.07C1359.77 1228.07 1289.37 1293.92 1289.37 1375.15C1289.37 1376.85 1289.4 1378.53 1289.46 1380.21H1603.74Z" fill="white"/>
<rect x="1289.25" y="1378.59" width="314.796" height="33.4889" fill="white"/>
<ellipse cx="910" cy="1614.74" rx="190" ry="177.742" fill="#A7D4D3"/>
<path fill-rule="evenodd" clip-rule="evenodd" d="M1066.74 1611.21C1066.8 1609.53 1066.84 1607.85 1066.84 1606.15C1066.84 1524.92 996.441 1459.07 909.604 1459.07C822.768 1459.07 752.373 1524.92 752.373 1606.15C752.373 1607.85 752.404 1609.53 752.464 1611.21H1066.74Z" fill="white"/>
<rect x="752.246" y="1609.59" width="314.796" height="33.4889" fill="white"/>
<ellipse cx="395" cy="1381.74" rx="190" ry="177.742" fill="#398590"/>
<path fill-rule="evenodd" clip-rule="evenodd" d="M551.744 1378.21C551.805 1376.53 551.836 1374.85 551.836 1373.15C551.836 1291.92 481.441 1226.07 394.604 1226.07C307.768 1226.07 237.373 1291.92 237.373 1373.15C237.373 1374.85 237.404 1376.53 237.464 1378.21H551.744Z" fill="white"/>
<rect x="237.246" y="1376.59" width="314.796" height="33.4889" fill="white"/>
<ellipse cx="190" cy="875.742" rx="190" ry="177.742" fill="#A7D4D3"/>
<path fill-rule="evenodd" clip-rule="evenodd" d="M346.744 872.214C346.805 870.534 346.836 868.847 346.836 867.154C346.836 785.92 276.441 720.066 189.604 720.066C102.768 720.066 32.373 785.92 32.373 867.154C32.373 868.847 32.4036 870.534 32.4643 872.214H346.744Z" fill="white"/>
<rect x="32.2461" y="870.59" width="314.796" height="33.4889" fill="white"/>
<rect x="475" y="1819" width="860" height="87" rx="10" fill="#707070"/>
</svg>
